<?xml version="1.0" encoding="UTF-8"?>
<svg xmlns="http://www.w3.org/2000/svg" xmlns:xlink="http://www.w3.org/1999/xlink" width="209px" height="125px" viewBox="0 0 208 125" version="1.1">
  <g id="surface1">
    <path style=" stroke:none;fill-rule:nonzero;fill:rgb(0%,0%,0%);fill-opacity:1;" d="M 82.863281 45.902344 C 82.953125 43.617188 82.988281 42.550781 83.734375 41.480469 C 84.421875 40.484375 87.039062 40.003906 90.253906 39.820312 C 93.292969 39.648438 99.574219 39.519531 103.09375 39.492188 C 106.613281 39.460938 112.652344 39.640625 115.476562 39.820312 C 118.300781 40.003906 120.777344 40.234375 121.789062 41.082031 C 122.929688 42.050781 123.109375 44.394531 123.109375 45.929688 L 121.1875 45.929688 C 121.1875 45.929688 121.1875 44.394531 121.097656 43.941406 C 121.007812 43.492188 120.949219 42.289062 119.355469 42.105469 C 117.761719 41.925781 110.875 41.441406 109.011719 41.414062 C 106.242188 41.367188 99.089844 41.414062 96.71875 41.472656 C 94.917969 41.515625 87.914062 41.890625 86.769531 42.042969 C 85.804688 42.167969 84.964844 42.675781 84.875 43.726562 C 84.789062 44.714844 84.753906 45.894531 84.753906 45.894531 L 82.863281 45.894531 Z M 82.863281 45.902344 " />
    <path style=" stroke:none;fill-rule:nonzero;fill:rgb(0%,0%,0%);fill-opacity:1;" d="M 123.109375 64.445312 C 123.023438 66.734375 122.984375 67.800781 122.238281 68.871094 C 121.546875 69.867188 118.929688 70.347656 115.714844 70.523438 C 112.683594 70.695312 106.394531 70.824219 102.882812 70.859375 C 99.363281 70.886719 93.320312 70.707031 90.496094 70.523438 C 87.671875 70.347656 85.195312 70.113281 84.1875 69.261719 C 83.046875 68.300781 82.863281 65.949219 82.863281 64.417969 L 84.785156 64.417969 C 84.785156 64.417969 84.785156 65.949219 84.875 66.402344 C 84.96875 66.855469 85.027344 68.058594 86.621094 68.242188 C 88.210938 68.421875 95.097656 68.902344 96.960938 68.933594 C 99.730469 68.980469 106.882812 68.933594 109.257812 68.875 C 111.058594 68.828125 118.066406 68.453125 119.207031 68.304688 C 120.175781 68.175781 121.015625 67.671875 121.101562 66.617188 C 121.183594 65.625 121.222656 64.449219 121.222656 64.449219 L 123.109375 64.449219 Z M 123.109375 64.445312 " />
    <path style=" stroke:none;fill-rule:nonzero;fill:rgb(0%,0%,0%);fill-opacity:1;" d="M 187.636719 21.089844 C 189.175781 21.089844 190.464844 22.308594 190.464844 23.902344 C 190.464844 25.527344 189.175781 26.746094 187.636719 26.746094 C 186.089844 26.746094 184.792969 25.527344 184.792969 23.902344 C 184.792969 22.308594 186.089844 21.089844 187.636719 21.089844 M 187.636719 26.328125 C 188.941406 26.328125 189.953125 25.289062 189.953125 23.902344 C 189.953125 22.550781 188.941406 21.507812 187.636719 21.507812 C 186.316406 21.507812 185.304688 22.550781 185.304688 23.902344 C 185.308594 25.285156 186.316406 26.328125 187.636719 26.328125 M 186.535156 22.261719 L 187.8125 22.261719 C 188.59375 22.261719 188.964844 22.570312 188.964844 23.207031 C 188.964844 23.804688 188.585938 24.054688 188.09375 24.109375 L 189.039062 25.566406 L 188.488281 25.566406 L 187.589844 24.144531 L 187.046875 24.144531 L 187.046875 25.566406 L 186.535156 25.566406 Z M 187.050781 23.730469 L 187.585938 23.730469 C 188.039062 23.730469 188.453125 23.707031 188.453125 23.183594 C 188.453125 22.746094 188.074219 22.679688 187.726562 22.679688 L 187.050781 22.679688 Z M 187.050781 23.730469 " />
    <path style=" stroke:none;fill-rule:nonzero;fill:rgb(0%,0%,0%);fill-opacity:1;" d="M 183.171875 21.453125 L 24.132812 21.453125 L 24.132812 89.300781 L 183.171875 89.300781 Z M 26.296875 23.621094 L 181.011719 23.621094 L 181.011719 87.132812 L 26.296875 87.132812 Z M 26.296875 23.621094 " />
    <path style=" stroke:none;fill-rule:nonzero;fill:rgb(0%,0%,0%);fill-opacity:1;" d="M 150.992188 81.710938 L 54.875 81.710938 L 54.875 64.402344 L 57.039062 64.402344 L 57.039062 79.546875 L 148.824219 79.546875 L 148.824219 64.402344 L 150.988281 64.402344 L 150.988281 81.710938 Z M 150.992188 45.859375 L 148.828125 45.859375 L 148.828125 30.730469 L 57.039062 30.730469 L 57.039062 45.859375 L 54.875 45.859375 L 54.875 28.558594 L 150.992188 28.558594 Z M 150.992188 45.859375 " />
    <path style=" stroke:none;fill-rule:nonzero;fill:rgb(0%,0%,0%);fill-opacity:1;" d="M 36.464844 61.519531 L 38.195312 57.507812 L 30.277344 57.507812 L 31.066406 55.515625 L 39.039062 55.515625 L 41.964844 48.585938 L 57.121094 48.585938 L 53.453125 57.503906 L 40.71875 57.503906 L 38.992188 61.515625 L 36.464844 61.515625 Z M 51.691406 55.519531 L 53.863281 50.519531 L 43.574219 50.519531 L 41.539062 55.519531 Z M 51.691406 55.519531 " />
    <path style=" stroke:none;fill-rule:nonzero;fill:rgb(0%,0%,0%);fill-opacity:1;" d="M 54.226562 61.488281 L 66.367188 48.664062 L 68.835938 61.492188 L 66.214844 61.492188 L 65.730469 58.277344 L 60.15625 58.277344 L 57.117188 61.488281 Z M 61.886719 56.515625 L 65.429688 56.515625 L 64.894531 53.328125 Z M 61.886719 56.515625 " />
    <path style=" stroke:none;fill-rule:nonzero;fill:rgb(0%,0%,0%);fill-opacity:1;" d="M 85.175781 61.472656 L 97.351562 48.660156 L 99.820312 61.488281 L 97.183594 61.484375 L 96.714844 58.273438 L 91.136719 58.273438 L 88.121094 61.472656 Z M 92.871094 56.515625 L 96.414062 56.515625 L 95.875 53.328125 Z M 92.871094 56.515625 " />
    <path style=" stroke:none;fill-rule:nonzero;fill:rgb(0%,0%,0%);fill-opacity:1;" d="M 71.003906 61.472656 L 76.882812 48.359375 L 81.039062 57.617188 L 84.996094 48.601562 L 87.488281 48.601562 L 82.078125 61.5 L 79.976562 61.484375 L 76.679688 54.816406 L 73.601562 61.472656 Z M 71.003906 61.472656 " />
    <path style=" stroke:none;fill-rule:nonzero;fill:rgb(0%,0%,0%);fill-opacity:1;" d="M 161.785156 61.472656 L 167.664062 48.359375 L 171.828125 57.617188 L 175.78125 48.601562 L 178.277344 48.601562 L 172.863281 61.5 L 170.757812 61.484375 L 167.46875 54.816406 L 164.386719 61.472656 Z M 161.785156 61.472656 " />
    <path style=" stroke:none;fill-rule:nonzero;fill:rgb(0%,0%,0%);fill-opacity:1;" d="M 102.355469 48.601562 L 104.59375 61.488281 L 116.574219 48.613281 L 113.839844 48.613281 L 105.964844 56.851562 L 104.59375 48.601562 Z M 102.355469 48.601562 " />
    <path style=" stroke:none;fill-rule:nonzero;fill:rgb(0%,0%,0%);fill-opacity:1;" d="M 114.527344 61.488281 L 120.136719 48.582031 L 122.527344 48.582031 L 117.238281 61.488281 Z M 114.527344 61.488281 " />
    <path style=" stroke:none;fill-rule:nonzero;fill:rgb(0%,0%,0%);fill-opacity:1;" d="M 137.664062 61.488281 L 143.269531 48.582031 L 145.660156 48.582031 L 140.367188 61.488281 Z M 137.664062 61.488281 " />
    <path style=" stroke:none;fill-rule:nonzero;fill:rgb(0%,0%,0%);fill-opacity:1;" d="M 122.121094 61.515625 L 123.292969 59.035156 L 125.757812 59.035156 L 125.59375 59.464844 L 131.09375 59.464844 L 132.660156 55.992188 L 124.433594 55.992188 L 127.472656 48.601562 L 138.253906 48.601562 L 137.101562 51.476562 L 134.734375 51.476562 L 134.972656 50.796875 L 129.234375 50.796875 L 127.980469 54.089844 L 135.957031 54.089844 L 132.949219 61.5 Z M 122.121094 61.515625 " />
    <path style=" stroke:none;fill-rule:nonzero;fill:rgb(0%,0%,0%);fill-opacity:1;" d="M 151.191406 48.589844 L 161.917969 48.589844 L 156.667969 61.507812 L 145.941406 61.507812 Z M 149.398438 59.378906 L 155.121094 59.378906 L 158.648438 50.808594 L 152.8125 50.808594 Z M 149.398438 59.378906 " />
    <path style=" stroke:none;fill-rule:nonzero;fill:rgb(0%,0%,0%);fill-opacity:1;" d="M 82.863281 45.902344 C 82.953125 43.617188 82.988281 42.550781 83.734375 41.480469 C 84.421875 40.484375 87.039062 40.003906 90.253906 39.820312 C 93.292969 39.648438 99.574219 39.519531 103.09375 39.492188 C 106.613281 39.460938 112.652344 39.640625 115.476562 39.820312 C 118.300781 40.003906 120.777344 40.234375 121.789062 41.082031 C 122.929688 42.050781 123.109375 44.394531 123.109375 45.929688 L 121.1875 45.929688 C 121.1875 45.929688 121.1875 44.394531 121.097656 43.941406 C 121.007812 43.492188 120.949219 42.289062 119.355469 42.105469 C 117.761719 41.925781 110.875 41.441406 109.011719 41.414062 C 106.242188 41.367188 99.089844 41.414062 96.71875 41.472656 C 94.917969 41.515625 87.914062 41.890625 86.769531 42.042969 C 85.804688 42.167969 84.964844 42.675781 84.875 43.726562 C 84.789062 44.714844 84.753906 45.894531 84.753906 45.894531 L 82.863281 45.894531 Z M 82.863281 45.902344 " />
    <path style=" stroke:none;fill-rule:nonzero;fill:rgb(0%,0%,0%);fill-opacity:1;" d="M 123.109375 64.445312 C 123.023438 66.734375 122.984375 67.800781 122.238281 68.871094 C 121.546875 69.867188 118.929688 70.347656 115.714844 70.523438 C 112.683594 70.695312 106.394531 70.824219 102.882812 70.859375 C 99.363281 70.886719 93.320312 70.707031 90.496094 70.523438 C 87.671875 70.347656 85.195312 70.113281 84.1875 69.261719 C 83.046875 68.300781 82.863281 65.949219 82.863281 64.417969 L 84.785156 64.417969 C 84.785156 64.417969 84.785156 65.949219 84.875 66.402344 C 84.96875 66.855469 85.027344 68.058594 86.621094 68.242188 C 88.210938 68.421875 95.097656 68.902344 96.960938 68.933594 C 99.730469 68.980469 106.882812 68.933594 109.257812 68.875 C 111.058594 68.828125 118.066406 68.453125 119.207031 68.304688 C 120.175781 68.175781 121.015625 67.671875 121.101562 66.617188 C 121.183594 65.625 121.222656 64.449219 121.222656 64.449219 L 123.109375 64.449219 Z M 123.109375 64.445312 " />
    <path style=" stroke:none;fill-rule:nonzero;fill:rgb(0%,0%,0%);fill-opacity:1;" d="M 62.007812 98.609375 L 63.3125 98.609375 L 62.65625 96.507812 Z M 62.007812 98.609375 " />
    <path style=" stroke:none;fill-rule:nonzero;fill:rgb(0%,0%,0%);fill-opacity:1;" d="M 76.546875 95.9375 L 76.058594 95.9375 L 76.058594 99.746094 L 76.566406 99.746094 C 76.984375 99.746094 77.304688 99.597656 77.53125 99.300781 C 77.753906 99 77.867188 98.558594 77.867188 97.972656 L 77.867188 97.707031 C 77.867188 97.121094 77.753906 96.683594 77.53125 96.382812 C 77.304688 96.082031 76.980469 95.9375 76.546875 95.9375 Z M 76.546875 95.9375 " />
    <path style=" stroke:none;fill-rule:nonzero;fill:rgb(0%,0%,0%);fill-opacity:1;" d="M 52.441406 95.9375 L 51.46875 95.9375 L 51.46875 97.6875 L 52.425781 97.6875 C 52.707031 97.6875 52.921875 97.617188 53.070312 97.476562 C 53.21875 97.332031 53.289062 97.132812 53.289062 96.875 C 53.289062 96.589844 53.214844 96.367188 53.0625 96.195312 C 52.910156 96.023438 52.703125 95.9375 52.441406 95.9375 Z M 52.441406 95.9375 " />
    <path style=" stroke:none;fill-rule:nonzero;fill:rgb(0%,0%,0%);fill-opacity:1;" d="M 108.933594 95.871094 C 108.203125 95.871094 107.816406 96.421875 107.773438 97.519531 L 107.769531 97.964844 C 107.769531 98.5625 107.867188 99.015625 108.0625 99.335938 C 108.261719 99.660156 108.554688 99.816406 108.941406 99.816406 C 109.3125 99.816406 109.59375 99.660156 109.792969 99.347656 C 109.996094 99.035156 110.09375 98.582031 110.097656 97.992188 L 110.097656 97.710938 C 110.097656 97.109375 110 96.652344 109.800781 96.339844 C 109.59375 96.023438 109.308594 95.871094 108.933594 95.871094 Z M 108.933594 95.871094 " />
    <path style=" stroke:none;fill-rule:nonzero;fill:rgb(0%,0%,0%);fill-opacity:1;" d="M 87.160156 95.933594 L 86.238281 95.933594 L 86.238281 97.605469 L 87.160156 97.605469 C 87.4375 97.605469 87.648438 97.527344 87.785156 97.382812 C 87.925781 97.238281 87.992188 97.035156 87.992188 96.769531 C 87.992188 96.507812 87.921875 96.304688 87.78125 96.152344 C 87.644531 96.007812 87.433594 95.933594 87.160156 95.933594 Z M 87.160156 95.933594 " />
    <path style=" stroke:none;fill-rule:nonzero;fill:rgb(0%,0%,0%);fill-opacity:1;" d="M 24.132812 92.328125 L 24.132812 103.675781 L 183.175781 103.675781 L 183.175781 92.328125 Z M 37.296875 100.121094 C 37.074219 100.371094 36.746094 100.570312 36.3125 100.726562 C 35.878906 100.878906 35.40625 100.953125 34.890625 100.953125 C 34.09375 100.953125 33.464844 100.710938 32.988281 100.226562 C 32.515625 99.738281 32.261719 99.0625 32.226562 98.195312 L 32.222656 97.671875 C 32.222656 97.074219 32.328125 96.554688 32.539062 96.109375 C 32.75 95.664062 33.050781 95.320312 33.441406 95.078125 C 33.832031 94.835938 34.285156 94.722656 34.800781 94.722656 C 35.554688 94.722656 36.140625 94.890625 36.558594 95.238281 C 36.972656 95.582031 37.21875 96.101562 37.285156 96.785156 L 35.878906 96.785156 C 35.832031 96.445312 35.722656 96.203125 35.554688 96.058594 C 35.390625 95.914062 35.152344 95.839844 34.847656 95.839844 C 34.480469 95.839844 34.199219 95.996094 34 96.308594 C 33.800781 96.621094 33.699219 97.0625 33.695312 97.640625 L 33.695312 98.007812 C 33.695312 98.613281 33.800781 99.066406 34.003906 99.371094 C 34.210938 99.675781 34.535156 99.824219 34.976562 99.824219 C 35.355469 99.824219 35.640625 99.742188 35.824219 99.570312 L 35.824219 98.628906 L 34.8125 98.628906 L 34.8125 97.625 L 37.285156 97.625 L 37.285156 100.121094 Z M 44.332031 100.871094 L 42.769531 100.871094 L 41.699219 98.726562 L 40.910156 98.726562 L 40.910156 100.871094 L 39.449219 100.871094 L 39.449219 94.808594 L 41.832031 94.808594 C 42.550781 94.808594 43.109375 94.964844 43.519531 95.289062 C 43.921875 95.609375 44.125 96.058594 44.125 96.636719 C 44.125 97.058594 44.042969 97.410156 43.871094 97.6875 C 43.699219 97.964844 43.433594 98.1875 43.074219 98.363281 L 44.335938 100.808594 L 44.335938 100.871094 Z M 47.726562 100.871094 L 46.273438 100.871094 L 46.273438 94.808594 L 47.726562 94.808594 Z M 54.136719 98.285156 C 53.714844 98.636719 53.136719 98.8125 52.398438 98.8125 L 51.46875 98.8125 L 51.46875 100.871094 L 50.007812 100.871094 L 50.007812 94.808594 L 52.425781 94.808594 C 52.886719 94.808594 53.296875 94.894531 53.652344 95.0625 C 54.007812 95.234375 54.285156 95.476562 54.480469 95.792969 C 54.675781 96.109375 54.769531 96.460938 54.769531 96.863281 C 54.769531 97.453125 54.558594 97.929688 54.136719 98.285156 Z M 64.015625 100.871094 L 63.660156 99.738281 L 61.660156 99.738281 L 61.308594 100.871094 L 59.75 100.871094 L 61.972656 94.808594 L 63.34375 94.808594 L 65.582031 100.871094 Z M 72.363281 100.871094 L 70.910156 100.871094 L 68.765625 97.101562 L 68.765625 100.871094 L 67.304688 100.871094 L 67.304688 94.808594 L 68.765625 94.808594 L 70.90625 98.578125 L 70.90625 94.808594 L 72.363281 94.808594 Z M 79.355469 97.964844 C 79.355469 98.519531 79.238281 99.019531 79.007812 99.457031 C 78.773438 99.898438 78.441406 100.242188 78.015625 100.492188 C 77.59375 100.742188 77.117188 100.867188 76.59375 100.867188 L 74.601562 100.867188 L 74.601562 94.804688 L 76.550781 94.804688 C 77.089844 94.804688 77.566406 94.925781 77.996094 95.167969 C 78.425781 95.410156 78.757812 95.753906 78.996094 96.195312 C 79.234375 96.636719 79.355469 97.132812 79.355469 97.683594 Z M 89.65625 100.871094 L 88.09375 100.871094 L 87.023438 98.726562 L 86.234375 98.726562 L 86.234375 100.871094 L 84.773438 100.871094 L 84.773438 94.808594 L 87.15625 94.808594 C 87.875 94.808594 88.433594 94.964844 88.839844 95.289062 C 89.246094 95.609375 89.449219 96.058594 89.449219 96.636719 C 89.449219 97.058594 89.363281 97.410156 89.195312 97.6875 C 89.023438 97.964844 88.757812 98.1875 88.394531 98.363281 L 89.660156 100.808594 L 89.660156 100.871094 Z M 95.734375 95.9375 L 93.019531 95.9375 L 93.019531 97.214844 L 95.3125 97.214844 L 95.3125 98.300781 L 93.019531 98.300781 L 93.019531 99.75 L 95.726562 99.75 L 95.726562 100.875 L 91.558594 100.875 L 91.558594 94.8125 L 95.734375 94.8125 Z M 104.257812 100.871094 L 102.792969 100.871094 L 102.792969 99.453125 L 102.933594 96.558594 L 101.472656 100.871094 L 100.503906 100.871094 L 99.039062 96.554688 L 99.179688 99.453125 L 99.179688 100.871094 L 97.71875 100.871094 L 97.71875 94.808594 L 99.636719 94.808594 L 100.988281 99.023438 L 102.335938 94.808594 L 104.257812 94.808594 Z M 111.578125 97.960938 C 111.578125 98.554688 111.472656 99.074219 111.25 99.535156 C 111.03125 99.988281 110.722656 100.335938 110.320312 100.582031 C 109.914062 100.828125 109.457031 100.949219 108.941406 100.949219 C 108.425781 100.949219 107.96875 100.828125 107.570312 100.597656 C 107.167969 100.359375 106.859375 100.019531 106.636719 99.578125 C 106.414062 99.136719 106.296875 98.632812 106.289062 98.058594 L 106.289062 97.714844 C 106.289062 97.121094 106.394531 96.601562 106.613281 96.144531 C 106.828125 95.691406 107.140625 95.339844 107.546875 95.097656 C 107.957031 94.851562 108.417969 94.726562 108.933594 94.726562 C 109.445312 94.726562 109.902344 94.847656 110.304688 95.089844 C 110.710938 95.335938 111.023438 95.683594 111.242188 96.132812 C 111.46875 96.582031 111.578125 97.101562 111.578125 97.683594 Z M 118.179688 95.9375 L 116.363281 95.9375 L 116.363281 100.871094 L 114.902344 100.871094 L 114.902344 95.9375 L 113.117188 95.9375 L 113.117188 94.808594 L 118.175781 94.808594 L 118.175781 95.9375 Z M 124.167969 95.9375 L 121.453125 95.9375 L 121.453125 97.214844 L 123.746094 97.214844 L 123.746094 98.300781 L 121.453125 98.300781 L 121.453125 99.75 L 124.160156 99.75 L 124.160156 100.875 L 119.992188 100.875 L 119.992188 94.8125 L 124.167969 94.8125 Z M 131.117188 96.863281 C 131.285156 96.988281 131.578125 97.121094 131.996094 97.253906 C 132.417969 97.386719 132.757812 97.535156 133.027344 97.6875 C 133.679688 98.066406 134.011719 98.585938 134.011719 99.25 C 134.011719 99.777344 133.8125 100.195312 133.410156 100.5 C 133.011719 100.804688 132.46875 100.953125 131.769531 100.953125 C 131.277344 100.953125 130.832031 100.867188 130.4375 100.691406 C 130.039062 100.515625 129.738281 100.273438 129.539062 99.964844 C 129.339844 99.660156 129.238281 99.308594 129.238281 98.910156 L 130.703125 98.910156 C 130.703125 99.234375 130.785156 99.472656 130.953125 99.625 C 131.117188 99.777344 131.394531 99.855469 131.769531 99.855469 C 132.007812 99.855469 132.199219 99.800781 132.339844 99.699219 C 132.480469 99.597656 132.546875 99.449219 132.546875 99.261719 C 132.546875 99.050781 132.472656 98.882812 132.320312 98.761719 C 132.171875 98.640625 131.90625 98.519531 131.527344 98.390625 C 131.148438 98.261719 130.835938 98.140625 130.59375 98.019531 C 129.808594 97.632812 129.417969 97.105469 129.417969 96.429688 C 129.417969 96.089844 129.511719 95.796875 129.707031 95.542969 C 129.90625 95.285156 130.179688 95.082031 130.535156 94.941406 C 130.894531 94.800781 131.292969 94.730469 131.742188 94.730469 C 132.179688 94.730469 132.566406 94.808594 132.910156 94.960938 C 133.257812 95.117188 133.523438 95.335938 133.714844 95.625 C 133.90625 95.914062 134 96.242188 134 96.609375 L 132.546875 96.609375 C 132.546875 96.363281 132.472656 96.171875 132.320312 96.035156 C 132.171875 95.894531 131.96875 95.828125 131.710938 95.828125 C 131.449219 95.828125 131.242188 95.886719 131.09375 96 C 130.945312 96.117188 130.871094 96.261719 130.871094 96.4375 C 130.871094 96.597656 130.953125 96.738281 131.117188 96.863281 Z M 138.769531 98.691406 L 138.769531 100.871094 L 137.289062 100.871094 L 137.289062 98.691406 L 135.339844 94.808594 L 136.910156 94.808594 L 138.027344 97.4375 L 139.144531 94.808594 L 140.71875 94.808594 Z M 143.855469 96.863281 C 144.023438 96.988281 144.316406 97.121094 144.734375 97.253906 C 145.15625 97.386719 145.496094 97.535156 145.765625 97.6875 C 146.417969 98.066406 146.75 98.585938 146.75 99.25 C 146.75 99.777344 146.546875 100.195312 146.148438 100.5 C 145.75 100.804688 145.203125 100.953125 144.507812 100.953125 C 144.015625 100.953125 143.570312 100.867188 143.175781 100.691406 C 142.773438 100.515625 142.476562 100.273438 142.277344 99.964844 C 142.078125 99.660156 141.976562 99.308594 141.976562 98.910156 L 143.441406 98.910156 C 143.441406 99.234375 143.523438 99.472656 143.691406 99.625 C 143.855469 99.777344 144.132812 99.855469 144.507812 99.855469 C 144.746094 99.855469 144.9375 99.800781 145.074219 99.699219 C 145.21875 99.597656 145.285156 99.449219 145.285156 99.261719 C 145.285156 99.050781 145.207031 98.882812 145.058594 98.761719 C 144.910156 98.640625 144.644531 98.519531 144.265625 98.390625 C 143.886719 98.261719 143.574219 98.140625 143.332031 98.019531 C 142.546875 97.632812 142.15625 97.105469 142.15625 96.429688 C 142.15625 96.089844 142.25 95.796875 142.445312 95.542969 C 142.640625 95.285156 142.917969 95.082031 143.273438 94.941406 C 143.632812 94.800781 144.03125 94.730469 144.480469 94.730469 C 144.917969 94.730469 145.304688 94.808594 145.648438 94.960938 C 145.996094 95.117188 146.261719 95.335938 146.453125 95.625 C 146.644531 95.914062 146.738281 96.242188 146.738281 96.609375 L 145.285156 96.609375 C 145.285156 96.363281 145.207031 96.171875 145.058594 96.035156 C 144.910156 95.894531 144.707031 95.828125 144.449219 95.828125 C 144.1875 95.828125 143.980469 95.886719 143.832031 96 C 143.683594 96.117188 143.605469 96.261719 143.605469 96.4375 C 143.605469 96.597656 143.691406 96.738281 143.855469 96.863281 Z M 153.496094 95.9375 L 151.679688 95.9375 L 151.679688 100.871094 L 150.21875 100.871094 L 150.21875 95.9375 L 148.433594 95.9375 L 148.433594 94.808594 L 153.492188 94.808594 L 153.492188 95.9375 Z M 159.480469 95.9375 L 156.765625 95.9375 L 156.765625 97.214844 L 159.0625 97.214844 L 159.0625 98.300781 L 156.765625 98.300781 L 156.765625 99.75 L 159.472656 99.75 L 159.472656 100.875 L 155.304688 100.875 L 155.304688 94.8125 L 159.480469 94.8125 Z M 168.003906 100.871094 L 166.542969 100.871094 L 166.542969 99.453125 L 166.683594 96.558594 L 165.21875 100.871094 L 164.253906 100.871094 L 162.785156 96.554688 L 162.925781 99.453125 L 162.925781 100.871094 L 161.464844 100.871094 L 161.464844 94.808594 L 163.382812 94.808594 L 164.734375 99.023438 L 166.082031 94.808594 L 168.003906 94.808594 Z M 171.855469 96.863281 C 172.019531 96.988281 172.3125 97.121094 172.730469 97.253906 C 173.152344 97.386719 173.492188 97.535156 173.761719 97.6875 C 174.417969 98.066406 174.746094 98.585938 174.746094 99.25 C 174.746094 99.777344 174.546875 100.195312 174.144531 100.5 C 173.746094 100.804688 173.203125 100.953125 172.503906 100.953125 C 172.011719 100.953125 171.566406 100.867188 171.171875 100.691406 C 170.773438 100.515625 170.472656 100.273438 170.273438 99.964844 C 170.074219 99.660156 169.972656 99.308594 169.972656 98.910156 L 171.4375 98.910156 C 171.4375 99.234375 171.519531 99.472656 171.6875 99.625 C 171.855469 99.777344 172.128906 99.855469 172.503906 99.855469 C 172.742188 99.855469 172.933594 99.800781 173.074219 99.699219 C 173.214844 99.597656 173.28125 99.449219 173.28125 99.261719 C 173.28125 99.050781 173.207031 98.882812 173.054688 98.761719 C 172.90625 98.640625 172.640625 98.519531 172.261719 98.390625 C 171.882812 98.261719 171.570312 98.140625 171.328125 98.019531 C 170.542969 97.632812 170.152344 97.105469 170.152344 96.429688 C 170.152344 96.089844 170.246094 95.796875 170.445312 95.542969 C 170.640625 95.285156 170.914062 95.082031 171.269531 94.941406 C 171.628906 94.800781 172.027344 94.730469 172.476562 94.730469 C 172.914062 94.730469 173.300781 94.808594 173.648438 94.960938 C 173.992188 95.117188 174.257812 95.335938 174.449219 95.625 C 174.640625 95.914062 174.738281 96.242188 174.738281 96.609375 L 173.28125 96.609375 C 173.28125 96.363281 173.207031 96.171875 173.054688 96.035156 C 172.90625 95.894531 172.703125 95.828125 172.445312 95.828125 C 172.183594 95.828125 171.980469 95.886719 171.828125 96 C 171.679688 96.117188 171.605469 96.261719 171.605469 96.4375 C 171.605469 96.597656 171.6875 96.738281 171.855469 96.863281 Z M 171.855469 96.863281 " />
    <path style=" stroke:none;fill-rule:nonzero;fill:rgb(0%,0%,0%);fill-opacity:1;" d="M 41.832031 95.933594 L 40.910156 95.933594 L 40.910156 97.605469 L 41.832031 97.605469 C 42.113281 97.605469 42.320312 97.527344 42.457031 97.382812 C 42.597656 97.238281 42.664062 97.035156 42.664062 96.769531 C 42.664062 96.507812 42.59375 96.304688 42.453125 96.152344 C 42.316406 96.007812 42.109375 95.933594 41.832031 95.933594 Z M 41.832031 95.933594 " />
  </g>
</svg>