<?xml version="1.0" encoding="UTF-8"?>
<svg xmlns="http://www.w3.org/2000/svg" xmlns:xlink="http://www.w3.org/1999/xlink" width="209px" height="125px" viewBox="0 0 208 125" version="1.1">
  <g id="surface1">
    <path style=" stroke:none;fill-rule:nonzero;fill:rgb(0%,0%,0%);fill-opacity:1;" d="M 19.21875 44.175781 L 23.316406 44.175781 L 23.316406 72.296875 L 19.21875 72.296875 Z M 19.21875 44.175781 " />
    <path style=" stroke:none;fill-rule:nonzero;fill:rgb(0%,0%,0%);fill-opacity:1;" d="M 27.746094 72.578125 L 26.117188 68.988281 C 28.398438 68.328125 31.058594 67.375 31.058594 64.515625 C 31.058594 61 25.824219 57.921875 25.824219 52.386719 C 25.824219 48.175781 29.636719 44.804688 33.671875 43.886719 L 34.867188 47.769531 C 32.695312 48.359375 29.890625 49.710938 29.890625 52.386719 C 29.890625 56.601562 35.160156 59.3125 35.160156 64.515625 C 35.15625 68.914062 32.144531 71.371094 27.746094 72.578125 Z M 27.746094 72.578125 " />
    <path style=" stroke:none;fill-rule:nonzero;fill:rgb(0%,0%,0%);fill-opacity:1;" d="M 37.945312 72.296875 L 37.945312 44.171875 L 42.046875 44.171875 L 42.046875 68.628906 L 46.292969 68.628906 L 46.292969 72.296875 Z M 37.945312 72.296875 " />
    <path style=" stroke:none;fill-rule:nonzero;fill:rgb(0%,0%,0%);fill-opacity:1;" d="M 63.460938 72.601562 L 57.308594 43.867188 L 56.097656 43.867188 L 51.226562 66.445312 L 49.648438 66.445312 L 48.84375 70.113281 L 50.453125 70.113281 L 49.902344 72.597656 L 54.261719 72.597656 L 54.703125 70.113281 L 58.699219 70.113281 L 59.136719 72.597656 L 63.460938 72.597656 Z M 57.964844 66.445312 L 55.367188 66.445312 L 56.683594 59.472656 L 57.964844 66.445312 " />
    <path style=" stroke:none;fill-rule:nonzero;fill:rgb(0%,0%,0%);fill-opacity:1;" d="M 76.992188 72.910156 L 69.628906 58.601562 L 69.628906 72.285156 L 65.53125 72.285156 L 65.53125 43.5625 L 66.546875 43.5625 L 73.949219 57.867188 L 73.949219 44.148438 L 78.046875 44.148438 L 78.046875 72.910156 Z M 76.992188 72.910156 " />
    <path style=" stroke:none;fill-rule:nonzero;fill:rgb(0%,0%,0%);fill-opacity:1;" d="M 93.289062 58.253906 C 93.289062 47.839844 90.421875 44.171875 85.660156 44.171875 L 81.5625 44.171875 L 81.5625 72.296875 L 85.660156 72.296875 C 90.460938 72.296875 93.289062 68.628906 93.289062 58.253906 Z M 89.191406 58.253906 C 89.191406 64.960938 88.050781 68.628906 85.660156 68.628906 L 85.660156 47.839844 C 88.089844 47.839844 89.191406 50.992188 89.191406 58.253906 " />
    <path style=" stroke:none;fill-rule:nonzero;fill:rgb(0%,0%,0%);fill-opacity:1;" d="M 105.15625 72.589844 L 103.511719 69.003906 C 105.8125 68.347656 108.488281 67.390625 108.488281 64.527344 C 108.488281 61.007812 103.222656 57.925781 103.222656 52.386719 C 103.222656 48.171875 107.054688 44.796875 111.117188 43.875 L 112.320312 47.761719 C 110.132812 48.351562 107.308594 49.707031 107.308594 52.382812 C 107.308594 56.601562 112.609375 59.316406 112.609375 64.523438 C 112.609375 68.929688 109.582031 71.386719 105.15625 72.589844 Z M 105.15625 72.589844 " />
    <path style=" stroke:none;fill-rule:nonzero;fill:rgb(0%,0%,0%);fill-opacity:1;" d="M 122.175781 47.832031 L 122.175781 72.304688 L 118.089844 72.304688 L 118.089844 47.832031 L 114.828125 47.832031 L 115.742188 44.164062 L 125.109375 44.164062 L 125.109375 47.832031 Z M 122.175781 47.832031 " />
    <path style=" stroke:none;fill-rule:nonzero;fill:rgb(0%,0%,0%);fill-opacity:1;" d="M 133.410156 72.4375 C 130.007812 72.4375 127.859375 70.164062 127.859375 65.617188 L 127.859375 44.027344 L 131.980469 44.027344 L 131.980469 66.203125 C 131.980469 67.742188 132.421875 68.769531 133.410156 68.769531 C 134.511719 68.769531 134.84375 67.671875 134.84375 66.203125 L 134.84375 44.027344 L 138.964844 44.027344 L 138.964844 65.617188 C 138.964844 70.089844 136.847656 72.4375 133.410156 72.4375 Z M 133.410156 72.4375 " />
    <path style=" stroke:none;fill-rule:nonzero;fill:rgb(0%,0%,0%);fill-opacity:1;" d="M 153.574219 58.253906 C 153.574219 47.835938 150.691406 44.167969 145.902344 44.167969 L 141.78125 44.167969 L 141.78125 72.308594 L 145.902344 72.308594 C 150.730469 72.304688 153.574219 68.632812 153.574219 58.253906 Z M 149.453125 58.253906 C 149.453125 64.964844 148.304688 68.636719 145.902344 68.636719 L 145.902344 47.832031 C 148.339844 47.832031 149.453125 50.988281 149.453125 58.253906 " />
    <path style=" stroke:none;fill-rule:nonzero;fill:rgb(0%,0%,0%);fill-opacity:1;" d="M 156.773438 44.164062 L 160.894531 44.164062 L 160.894531 72.304688 L 156.773438 72.304688 Z M 156.773438 44.164062 " />
    <path style=" stroke:none;fill-rule:nonzero;fill:rgb(0%,0%,0%);fill-opacity:1;" d="M 176.488281 58.253906 C 176.488281 50.003906 175.25 43.878906 170.113281 43.878906 C 164.796875 43.878906 163.777344 50.042969 163.777344 58.253906 C 163.777344 66.320312 165.421875 72.589844 170.113281 72.589844 C 174.953125 72.589844 176.488281 66.429688 176.488281 58.253906 Z M 172.367188 58.253906 C 172.367188 63.714844 171.886719 68.921875 170.113281 68.921875 C 168.453125 68.921875 167.863281 63.824219 167.863281 58.253906 C 167.863281 52.570312 168.34375 47.550781 170.113281 47.550781 C 171.996094 47.546875 172.367188 52.609375 172.367188 58.253906 " />
    <path style=" stroke:none;fill-rule:nonzero;fill:rgb(0%,0%,0%);fill-opacity:1;" d="M 181.15625 72.589844 L 179.511719 69.003906 C 181.8125 68.347656 184.488281 67.390625 184.488281 64.527344 C 184.488281 61.007812 179.222656 57.925781 179.222656 52.386719 C 179.222656 48.171875 183.050781 44.796875 187.117188 43.875 L 188.320312 47.761719 C 186.132812 48.351562 183.304688 49.707031 183.304688 52.382812 C 183.304688 56.601562 188.609375 59.316406 188.609375 64.523438 C 188.613281 68.929688 185.585938 71.386719 181.15625 72.589844 Z M 181.15625 72.589844 " />
    <path style=" stroke:none;fill-rule:nonzero;fill:rgb(0%,0%,0%);fill-opacity:1;" d="M 82.359375 81.371094 L 83.558594 81.371094 L 84.132812 85.074219 L 87.464844 81.386719 L 88.9375 81.378906 L 83.382812 87.492188 Z M 82.359375 81.371094 " />
    <path style=" stroke:none;fill-rule:nonzero;fill:rgb(0%,0%,0%);fill-opacity:1;" d="M 97.003906 82.734375 L 97.074219 82.546875 L 94.714844 82.546875 L 94.222656 83.847656 L 97.824219 83.847656 L 96.429688 87.464844 L 91.59375 87.464844 L 92.132812 86.140625 L 93.375 86.140625 L 93.300781 86.320312 L 95.640625 86.320312 L 96.140625 85.003906 L 92.558594 85.003906 L 93.929688 81.378906 L 98.753906 81.378906 L 98.242188 82.734375 Z M 97.003906 82.734375 " />
    <path style=" stroke:none;fill-rule:nonzero;fill:rgb(0%,0%,0%);fill-opacity:1;" d="M 74.75 81.378906 L 76.019531 81.378906 L 73.546875 87.464844 L 72.46875 87.464844 L 71.042969 84.351562 L 69.8125 87.464844 L 68.570312 87.464844 L 71 81.347656 L 72.964844 85.820312 Z M 74.75 81.378906 " />
    <path style=" stroke:none;fill-rule:nonzero;fill:rgb(0%,0%,0%);fill-opacity:1;" d="M 90.308594 81.398438 L 91.546875 81.398438 L 89.164062 87.464844 L 87.925781 87.464844 Z M 90.308594 81.398438 " />
    <path style=" stroke:none;fill-rule:nonzero;fill:rgb(0%,0%,0%);fill-opacity:1;" d="M 100.925781 81.398438 L 102.160156 81.398438 L 99.78125 87.464844 L 98.542969 87.464844 Z M 100.925781 81.398438 " />
    <path style=" stroke:none;fill-rule:nonzero;fill:rgb(0%,0%,0%);fill-opacity:1;" d="M 115.445312 81.371094 L 116.714844 81.371094 L 114.238281 87.457031 L 113.160156 87.457031 L 111.738281 84.339844 L 110.507812 87.457031 L 109.261719 87.457031 L 111.691406 81.335938 L 113.660156 85.808594 Z M 115.445312 81.371094 " />
    <path style=" stroke:none;fill-rule:nonzero;fill:rgb(0%,0%,0%);fill-opacity:1;" d="M 52.941406 87.464844 L 53.617188 85.738281 L 49.980469 85.738281 L 50.390625 84.589844 L 54.078125 84.589844 L 55.371094 81.382812 L 62.3125 81.382812 L 60.578125 85.742188 L 54.847656 85.742188 L 54.171875 87.472656 L 52.941406 87.472656 Z M 59.785156 84.585938 L 60.640625 82.441406 L 56.160156 82.441406 L 55.316406 84.585938 Z M 59.785156 84.585938 " />
    <path style=" stroke:none;fill-rule:nonzero;fill:rgb(0%,0%,0%);fill-opacity:1;" d="M 60.632812 87.472656 L 66.4375 81.160156 L 67.433594 87.457031 L 66.253906 87.457031 L 66.027344 86.183594 L 63.3125 86.183594 L 62.152344 87.457031 Z M 65.835938 85.015625 L 65.664062 83.609375 L 64.386719 84.996094 Z M 65.835938 85.015625 " />
    <path style=" stroke:none;fill-rule:nonzero;fill:rgb(0%,0%,0%);fill-opacity:1;" d="M 74.558594 87.472656 L 80.367188 81.160156 L 81.359375 87.457031 L 80.179688 87.457031 L 79.957031 86.183594 L 77.238281 86.183594 L 76.078125 87.457031 Z M 79.769531 85.015625 L 79.597656 83.609375 L 78.320312 84.996094 Z M 79.769531 85.015625 " />
    <path style=" stroke:none;fill-rule:nonzero;fill:rgb(0%,0%,0%);fill-opacity:1;" d="M 102.101562 87.464844 L 104.523438 81.371094 L 109.554688 81.371094 L 107.140625 87.464844 Z M 103.789062 86.3125 L 106.351562 86.3125 L 107.871094 82.523438 L 105.320312 82.523438 Z M 103.789062 86.3125 " />
    <path style=" stroke:none;fill-rule:nonzero;fill:rgb(0%,0%,0%);fill-opacity:1;" d="M 119.585938 84.933594 C 119.585938 82.921875 121.277344 81.121094 123.367188 81.121094 C 124.550781 81.121094 125.34375 81.648438 125.808594 82.460938 L 124.894531 83.078125 C 124.519531 82.507812 124.0625 82.128906 123.246094 82.128906 C 121.90625 82.128906 120.730469 83.417969 120.730469 84.886719 C 120.730469 85.917969 121.4375 86.585938 122.429688 86.585938 C 123.136719 86.585938 123.597656 86.300781 124.09375 85.871094 L 124.816406 86.605469 C 124.226562 87.175781 123.492188 87.597656 122.414062 87.597656 C 120.800781 87.601562 119.585938 86.578125 119.585938 84.933594 Z M 119.585938 84.933594 " />
    <path style=" stroke:none;fill-rule:nonzero;fill:rgb(0%,0%,0%);fill-opacity:1;" d="M 125.917969 84.855469 C 125.917969 82.957031 127.464844 81.121094 129.625 81.121094 C 131.304688 81.121094 132.441406 82.3125 132.441406 83.867188 C 132.441406 85.761719 130.894531 87.601562 128.722656 87.601562 C 127.046875 87.601562 125.917969 86.414062 125.917969 84.855469 Z M 131.296875 83.929688 C 131.296875 82.898438 130.636719 82.128906 129.523438 82.128906 C 128.074219 82.128906 127.0625 83.507812 127.0625 84.789062 C 127.0625 85.824219 127.722656 86.585938 128.84375 86.585938 C 130.292969 86.585938 131.296875 85.210938 131.296875 83.929688 Z M 131.296875 83.929688 " />
    <path style=" stroke:none;fill-rule:nonzero;fill:rgb(0%,0%,0%);fill-opacity:1;" d="M 134.5625 81.230469 L 135.683594 81.230469 L 136.773438 84.191406 L 139.453125 81.230469 L 140.710938 81.230469 L 139.03125 87.496094 L 137.914062 87.496094 L 139.117188 83.003906 L 136.363281 85.957031 L 136.328125 85.957031 L 135.175781 83.019531 L 133.976562 87.496094 L 132.878906 87.496094 Z M 134.5625 81.230469 " />
    <path style=" stroke:none;fill-rule:nonzero;fill:rgb(0%,0%,0%);fill-opacity:1;" d="M 142.316406 81.230469 L 144.292969 81.230469 C 145.140625 81.230469 145.757812 81.410156 146.1875 81.847656 C 146.492188 82.148438 146.652344 82.5625 146.652344 83.078125 C 146.652344 84.589844 145.367188 85.457031 143.59375 85.457031 L 142.289062 85.457031 L 141.742188 87.492188 L 140.636719 87.492188 Z M 143.648438 84.488281 C 144.792969 84.488281 145.507812 84.003906 145.507812 83.171875 C 145.507812 82.921875 145.429688 82.710938 145.265625 82.554688 C 145.050781 82.335938 144.722656 82.234375 144.257812 82.234375 L 143.148438 82.234375 L 142.550781 84.488281 Z M 143.648438 84.488281 " />
    <path style=" stroke:none;fill-rule:nonzero;fill:rgb(0%,0%,0%);fill-opacity:1;" d="M 150.007812 81.183594 L 151.0625 81.183594 L 152.128906 87.492188 L 151 87.492188 L 150.757812 85.980469 L 147.800781 85.980469 L 146.757812 87.492188 L 145.566406 87.492188 Z M 150.625 85.003906 L 150.222656 82.472656 L 148.46875 85.003906 Z M 150.625 85.003906 " />
    <path style=" stroke:none;fill-rule:nonzero;fill:rgb(0%,0%,0%);fill-opacity:1;" d="M 154.683594 81.230469 L 155.703125 81.230469 L 157.820312 85.660156 L 159.019531 81.230469 L 160.101562 81.230469 L 158.421875 87.496094 L 157.5 87.496094 L 155.3125 82.941406 L 154.097656 87.496094 L 153.007812 87.496094 Z M 154.683594 81.230469 " />
    <path style=" stroke:none;fill-rule:nonzero;fill:rgb(0%,0%,0%);fill-opacity:1;" d="M 162.207031 85.003906 L 160.8125 81.230469 L 162.027344 81.230469 L 162.976562 84.058594 L 165.453125 81.230469 L 166.808594 81.230469 L 163.28125 85.121094 L 162.644531 87.492188 L 161.546875 87.492188 Z M 162.207031 85.003906 " />
    <path style=" stroke:none;fill-rule:nonzero;fill:rgb(0%,0%,0%);fill-opacity:1;" d="M 44.5625 81.183594 L 45.613281 81.183594 L 46.679688 87.492188 L 45.550781 87.492188 L 45.3125 85.980469 L 42.351562 85.980469 L 41.308594 87.492188 L 40.117188 87.492188 Z M 45.175781 85.003906 L 44.773438 82.472656 L 43.023438 85.003906 Z M 45.175781 85.003906 " />
  </g>
</svg>