<?xml version="1.0" encoding="UTF-8"?>
<svg xmlns="http://www.w3.org/2000/svg" xmlns:xlink="http://www.w3.org/1999/xlink" width="209px" height="125px" viewBox="0 0 208 125" version="1.1">
  <g id="surface1">
    <path style=" stroke:none;fill-rule:nonzero;fill:rgb(0%,0%,0%);fill-opacity:1;" d="M 13.824219 45.792969 C 13.835938 45.914062 13.867188 46.035156 13.867188 46.152344 C 13.867188 51.917969 13.867188 57.679688 13.867188 63.441406 C 13.867188 63.5625 13.867188 63.683594 13.867188 63.835938 C 17.082031 63.835938 20.257812 63.835938 23.457031 63.835938 C 23.457031 64.5 23.457031 65.132812 23.457031 65.804688 C 19.617188 65.804688 15.777344 65.804688 11.9375 65.804688 C 11.9375 59.132812 11.9375 52.460938 11.9375 45.796875 C 12.570312 45.792969 13.195312 45.792969 13.824219 45.792969 Z M 13.824219 45.792969 " />
    <path style=" stroke:none;fill-rule:nonzero;fill:rgb(0%,0%,0%);fill-opacity:1;" d="M 26.695312 45.910156 C 26.691406 45.761719 26.734375 45.796875 26.8125 45.796875 C 27.410156 45.796875 28.007812 45.796875 28.609375 45.796875 C 28.667969 45.808594 28.640625 46 28.640625 46.105469 C 28.640625 52.5625 28.640625 59.019531 28.640625 65.476562 C 28.640625 65.578125 28.640625 65.679688 28.640625 65.785156 C 27.976562 65.785156 27.34375 65.785156 26.699219 65.785156 C 26.699219 65.628906 26.699219 65.496094 26.699219 65.363281 C 26.699219 59.007812 26.699219 52.660156 26.699219 46.304688 C 26.695312 46.171875 26.703125 46.042969 26.695312 45.910156 Z M 26.695312 45.910156 " />
    <path style=" stroke:none;fill-rule:nonzero;fill:rgb(0%,0%,0%);fill-opacity:1;" d="M 41.222656 45.792969 C 41.394531 45.847656 42.390625 45.914062 42.953125 46.074219 C 45.792969 46.917969 47.46875 48.863281 48.183594 51.695312 C 48.195312 51.730469 48.183594 51.765625 48.183594 51.828125 C 47.507812 51.964844 46.828125 52.105469 46.121094 52.25 C 46.085938 52.132812 46.046875 52.027344 46.019531 51.925781 C 45.730469 50.988281 45.332031 50.113281 44.6875 49.359375 C 42.753906 47.097656 39.613281 46.898438 37.34375 48.898438 C 36.0625 50.027344 35.320312 51.457031 35 53.113281 C 34.511719 55.628906 34.597656 58.117188 35.472656 60.546875 C 36.019531 62.078125 36.90625 63.351562 38.394531 64.132812 C 41.613281 65.835938 45.703125 63.742188 46.1875 60.128906 C 46.253906 59.636719 46.273438 59.140625 46.304688 58.648438 C 46.308594 58.585938 46.300781 58.519531 46.292969 58.429688 C 44.644531 58.429688 43.015625 58.429688 41.359375 58.429688 L 41.359375 56.5 L 48.199219 56.5 L 48.199219 66.113281 L 46.300781 66.113281 C 46.300781 65.296875 46.300781 64.492188 46.300781 63.621094 C 46.179688 63.757812 46.105469 63.835938 46.039062 63.925781 C 43.039062 67.734375 37.007812 67.285156 34.417969 63.3125 C 33.464844 61.847656 32.914062 60.242188 32.703125 58.515625 C 32.417969 56.195312 32.480469 53.890625 33.171875 51.640625 C 33.890625 49.296875 35.339844 47.519531 37.585938 46.402344 C 38.316406 46.042969 39.125 45.886719 39.9375 45.792969 C 40 45.785156 40.097656 45.769531 40.160156 45.765625 C 40.511719 45.742188 40.28125 45.785156 40.308594 45.753906 Z M 41.222656 45.792969 " />
    <path style=" stroke:none;fill-rule:nonzero;fill:rgb(0%,0%,0%);fill-opacity:1;" d="M 66.5625 45.792969 C 66.566406 45.894531 66.582031 46 66.582031 46.105469 C 66.582031 52.5625 66.582031 59.019531 66.582031 65.480469 C 66.582031 65.574219 66.582031 65.667969 66.582031 65.785156 C 65.933594 65.785156 65.304688 65.785156 64.640625 65.785156 C 64.640625 62.605469 64.640625 59.4375 64.640625 56.25 C 61.109375 56.25 57.605469 56.25 54.066406 56.25 C 54.066406 59.425781 54.066406 62.601562 54.066406 65.789062 C 53.410156 65.789062 52.789062 65.789062 52.132812 65.789062 C 52.132812 65.664062 52.132812 65.550781 52.132812 65.4375 C 52.132812 59 52.132812 52.558594 52.132812 46.121094 C 52.132812 46.007812 52.113281 45.789062 52.179688 45.789062 C 52.808594 45.789062 53.433594 45.789062 54.0625 45.789062 C 54.0625 48.601562 54.0625 51.417969 54.0625 54.230469 C 57.609375 54.230469 61.113281 54.230469 64.636719 54.230469 C 64.636719 54.089844 64.636719 53.980469 64.636719 53.863281 C 64.636719 51.285156 64.636719 48.703125 64.636719 46.121094 C 64.636719 46.007812 64.664062 45.894531 64.675781 45.789062 C 65.308594 45.792969 65.9375 45.792969 66.5625 45.792969 Z M 66.5625 45.792969 " />
    <path style=" stroke:none;fill-rule:nonzero;fill:rgb(0%,0%,0%);fill-opacity:1;" d="M 83.972656 45.792969 C 83.972656 46.425781 83.972656 47.0625 83.972656 47.730469 C 81.851562 47.730469 79.765625 47.730469 77.65625 47.730469 C 77.65625 53.757812 77.65625 59.757812 77.65625 65.785156 C 77 65.785156 76.371094 65.785156 75.707031 65.785156 C 75.707031 59.773438 75.707031 53.765625 75.707031 47.730469 C 75.566406 47.730469 75.453125 47.730469 75.339844 47.730469 C 73.441406 47.730469 71.535156 47.730469 69.632812 47.726562 C 69.527344 47.726562 69.414062 47.695312 69.304688 47.679688 C 69.304688 47.050781 69.304688 46.425781 69.304688 45.792969 C 74.195312 45.792969 79.085938 45.792969 83.972656 45.792969 Z M 83.972656 45.792969 " />
    <path style=" stroke:none;fill-rule:nonzero;fill:rgb(0%,0%,0%);fill-opacity:1;" d="M 103.042969 73.203125 C 93.207031 73.203125 85.207031 65.191406 85.207031 55.335938 C 85.207031 45.484375 93.207031 37.472656 103.042969 37.472656 C 112.878906 37.472656 120.882812 45.488281 120.882812 55.335938 C 120.882812 65.1875 112.878906 73.203125 103.042969 73.203125 Z M 103.042969 38.1875 C 93.601562 38.1875 85.921875 45.882812 85.921875 55.335938 C 85.921875 64.796875 93.605469 72.488281 103.042969 72.488281 C 112.480469 72.488281 120.164062 64.792969 120.164062 55.335938 C 120.164062 45.878906 112.480469 38.1875 103.042969 38.1875 Z M 103.042969 38.1875 " />
    <path style=" stroke:none;fill-rule:nonzero;fill:rgb(82.352941%,87.058824%,24.705882%);fill-opacity:1;" d="M 103.039062 71.179688 C 94.320312 71.175781 87.269531 64.097656 87.265625 55.335938 C 87.261719 46.570312 94.328125 39.480469 103.054688 39.492188 C 111.777344 39.503906 118.828125 46.589844 118.816406 55.339844 C 118.808594 64.097656 111.75 71.183594 103.039062 71.179688 Z M 96.136719 45.015625 C 96.136719 45.152344 96.136719 45.265625 96.136719 45.378906 C 96.136719 48.941406 96.132812 52.503906 96.140625 56.066406 C 96.140625 56.585938 96.167969 57.117188 96.246094 57.632812 C 96.609375 59.964844 97.894531 61.539062 100.160156 62.253906 C 101.019531 62.523438 101.910156 62.589844 102.808594 62.585938 C 103.0625 62.585938 103.3125 62.585938 103.597656 62.585938 C 103.597656 63.796875 103.597656 64.953125 103.597656 66.125 C 105.316406 66.125 107.003906 66.125 108.699219 66.125 C 108.699219 61.851562 108.699219 57.597656 108.699219 53.324219 C 107 53.324219 105.308594 53.324219 103.585938 53.324219 C 103.585938 54.707031 103.585938 56.074219 103.585938 57.488281 C 103.289062 57.449219 103.035156 57.433594 102.785156 57.386719 C 102.210938 57.289062 101.871094 56.9375 101.792969 56.363281 C 101.742188 56.023438 101.714844 55.679688 101.714844 55.335938 C 101.710938 52.011719 101.710938 48.6875 101.710938 45.363281 C 101.710938 45.25 101.710938 45.140625 101.710938 45.011719 C 99.84375 45.015625 98.015625 45.015625 96.136719 45.015625 Z M 106.179688 51.566406 C 106.292969 51.554688 106.5 51.542969 106.707031 51.503906 C 107.65625 51.347656 108.410156 50.664062 108.605469 49.796875 C 108.8125 48.863281 108.460938 48.003906 107.628906 47.421875 C 106.546875 46.667969 105.066406 46.824219 104.144531 47.796875 C 103.214844 48.785156 103.363281 50.304688 104.472656 51.085938 C 104.953125 51.429688 105.5 51.554688 106.179688 51.566406 Z M 106.179688 51.566406 " />
    <path style=" stroke:none;fill-rule:nonzero;fill:rgb(82.352941%,87.058824%,24.705882%);fill-opacity:1;" d="M 103.617188 62.566406 C 103.617188 60.855469 103.617188 59.195312 103.617188 57.511719 C 104.121094 57.511719 104.613281 57.511719 105.128906 57.511719 C 105.136719 57.601562 105.144531 57.683594 105.144531 57.761719 C 105.144531 59.265625 105.140625 60.769531 105.148438 62.273438 C 105.148438 62.492188 105.097656 62.582031 104.867188 62.570312 C 104.457031 62.554688 104.050781 62.566406 103.617188 62.566406 Z M 103.617188 62.566406 " />
    <path style=" stroke:none;fill-rule:nonzero;fill:rgb(0%,0%,0%);fill-opacity:1;" d="M 130.574219 64 C 131.515625 64 132.449219 64 133.40625 64 C 133.40625 64.613281 133.40625 65.1875 133.40625 65.785156 C 130.867188 65.785156 128.324219 65.785156 125.765625 65.785156 C 125.765625 65.195312 125.765625 64.621094 125.765625 64.007812 C 126.714844 64.007812 127.648438 64.007812 128.601562 64.007812 C 128.601562 58.507812 128.601562 53.046875 128.601562 47.546875 C 127.65625 47.546875 126.722656 47.546875 125.769531 47.546875 C 125.769531 46.953125 125.769531 46.394531 125.769531 45.820312 C 128.316406 45.820312 130.847656 45.820312 133.40625 45.820312 C 133.40625 46.386719 133.40625 46.945312 133.40625 47.539062 C 132.46875 47.539062 131.53125 47.539062 130.578125 47.539062 C 130.574219 53.042969 130.574219 58.503906 130.574219 64 Z M 130.574219 64 " />
    <path style=" stroke:none;fill-rule:nonzero;fill:rgb(0%,0%,0%);fill-opacity:1;" d="M 145.222656 45.792969 C 145.757812 45.851562 146.300781 45.890625 146.835938 45.964844 C 147.734375 46.097656 148.613281 46.3125 149.402344 46.773438 C 151.089844 47.761719 152.046875 49.214844 152.078125 51.195312 C 152.105469 53.160156 151.167969 54.597656 149.503906 55.5625 C 149.027344 55.835938 148.5 56.015625 147.996094 56.238281 C 147.914062 56.273438 147.820312 56.300781 147.710938 56.339844 C 149.324219 59.492188 150.925781 62.625 152.554688 65.800781 C 151.859375 65.800781 151.207031 65.808594 150.558594 65.789062 C 150.488281 65.789062 150.394531 65.644531 150.351562 65.554688 C 148.945312 62.855469 147.523438 60.160156 146.152344 57.441406 C 145.875 56.890625 145.582031 56.683594 144.957031 56.707031 C 143.519531 56.765625 142.085938 56.726562 140.648438 56.726562 C 140.539062 56.726562 140.425781 56.726562 140.28125 56.726562 C 140.28125 59.753906 140.28125 62.757812 140.28125 65.792969 C 139.601562 65.792969 138.957031 65.792969 138.316406 65.792969 C 138.316406 59.128906 138.316406 52.464844 138.316406 45.785156 C 140.617188 45.792969 142.917969 45.792969 145.222656 45.792969 Z M 140.285156 55.011719 C 140.398438 55.011719 140.484375 55.011719 140.566406 55.011719 C 141.839844 55.011719 143.113281 55.003906 144.386719 55.015625 C 145.457031 55.023438 146.503906 54.847656 147.527344 54.527344 C 150.25 53.691406 150.46875 50.410156 149.054688 48.882812 C 148.226562 47.992188 147.167969 47.625 146.015625 47.585938 C 144.15625 47.523438 142.292969 47.554688 140.429688 47.546875 C 140.382812 47.546875 140.339844 47.5625 140.285156 47.574219 C 140.285156 50.042969 140.285156 52.503906 140.285156 55.011719 Z M 140.285156 55.011719 " />
    <path style=" stroke:none;fill-rule:nonzero;fill:rgb(0%,0%,0%);fill-opacity:1;" d="M 164.058594 45.792969 C 164.398438 45.792969 164.746094 45.792969 165.085938 45.792969 C 165.160156 45.808594 165.230469 45.832031 165.304688 45.839844 C 167.253906 46.003906 168.847656 46.878906 170.132812 48.3125 C 171.519531 49.863281 172.226562 51.734375 172.5625 53.761719 C 172.675781 54.476562 172.71875 55.195312 172.792969 55.914062 C 172.792969 56.140625 172.792969 56.371094 172.792969 56.601562 C 172.777344 56.796875 172.75 56.996094 172.738281 57.191406 C 172.664062 58.898438 172.25 60.519531 171.460938 62.039062 C 170.40625 64.078125 168.890625 65.613281 166.613281 66.242188 C 166.054688 66.394531 165.484375 66.484375 164.917969 66.601562 C 164.632812 66.601562 164.347656 66.601562 164.0625 66.601562 C 163.957031 66.582031 163.859375 66.554688 163.753906 66.546875 C 162.398438 66.425781 161.152344 65.992188 160.058594 65.175781 C 158.660156 64.125 157.640625 62.761719 157.050781 61.128906 C 155.65625 57.246094 155.90625 53.433594 157.789062 49.765625 C 158.765625 47.867188 160.363281 46.671875 162.414062 46.101562 C 162.945312 45.953125 163.503906 45.894531 164.058594 45.792969 Z M 158.386719 56.222656 C 158.363281 56.226562 158.34375 56.226562 158.316406 56.230469 C 158.425781 57.210938 158.484375 58.203125 158.648438 59.175781 C 158.941406 60.882812 159.660156 62.382812 161.015625 63.515625 C 162.613281 64.851562 164.417969 65.140625 166.332031 64.398438 C 168.234375 63.664062 169.421875 62.191406 170.035156 60.273438 C 170.742188 58.070312 170.742188 55.8125 170.355469 53.554688 C 170.089844 52.007812 169.523438 50.585938 168.503906 49.375 C 166.859375 47.417969 163.953125 46.949219 161.78125 48.308594 C 160.34375 49.210938 159.429688 50.519531 158.929688 52.136719 C 158.511719 53.460938 158.382812 54.832031 158.386719 56.222656 Z M 158.386719 56.222656 " />
    <path style=" stroke:none;fill-rule:nonzero;fill:rgb(0%,0%,0%);fill-opacity:1;" d="M 191.109375 45.792969 C 191.738281 45.792969 192.367188 45.792969 192.996094 45.792969 C 192.996094 52.457031 192.996094 59.121094 192.996094 65.804688 C 192.425781 65.804688 191.890625 65.792969 191.363281 65.808594 C 191.144531 65.816406 191.03125 65.746094 190.914062 65.554688 C 187.386719 59.667969 183.851562 53.789062 180.316406 47.902344 C 180.265625 47.820312 180.210938 47.738281 180.15625 47.652344 C 180.136719 47.664062 180.117188 47.671875 180.09375 47.679688 C 180.09375 53.710938 180.09375 59.746094 180.09375 65.777344 C 179.4375 65.777344 178.804688 65.777344 178.160156 65.777344 C 178.160156 65.660156 178.160156 65.566406 178.160156 65.472656 C 178.160156 59.011719 178.160156 52.554688 178.160156 46.089844 C 178.160156 45.992188 178.1875 45.890625 178.207031 45.789062 C 179.195312 45.789062 180.1875 45.789062 181.171875 45.789062 C 184.449219 51.203125 187.722656 56.621094 191.003906 62.039062 C 191.023438 62.027344 191.042969 62.019531 191.058594 62.011719 C 191.058594 61.898438 191.058594 61.789062 191.058594 61.671875 C 191.058594 56.496094 191.058594 51.324219 191.058594 46.148438 C 191.074219 46.039062 191.097656 45.914062 191.109375 45.792969 Z M 191.109375 45.792969 " />
    <path style=" stroke:none;fill-rule:nonzero;fill:rgb(0%,0%,0%);fill-opacity:1;" d="M 79.730469 76.257812 L 81.015625 76.257812 L 81.632812 80.238281 L 85.214844 76.273438 L 86.800781 76.265625 L 80.828125 82.835938 Z M 79.730469 76.257812 " />
    <path style=" stroke:none;fill-rule:nonzero;fill:rgb(0%,0%,0%);fill-opacity:1;" d="M 95.46875 77.722656 L 95.546875 77.515625 L 93.007812 77.515625 L 92.480469 78.917969 L 96.355469 78.917969 L 94.855469 82.808594 L 89.65625 82.808594 L 90.234375 81.382812 L 91.570312 81.382812 L 91.492188 81.578125 L 94.007812 81.578125 L 94.546875 80.164062 L 90.695312 80.164062 L 92.164062 76.265625 L 97.351562 76.265625 L 96.804688 77.722656 Z M 95.46875 77.722656 " />
    <path style=" stroke:none;fill-rule:nonzero;fill:rgb(0%,0%,0%);fill-opacity:1;" d="M 71.550781 76.265625 L 72.917969 76.265625 L 70.253906 82.808594 L 69.09375 82.808594 L 67.566406 79.460938 L 66.238281 82.808594 L 64.90625 82.808594 L 67.515625 76.230469 L 69.628906 81.039062 Z M 71.550781 76.265625 " />
    <path style=" stroke:none;fill-rule:nonzero;fill:rgb(0%,0%,0%);fill-opacity:1;" d="M 88.273438 76.289062 L 89.601562 76.289062 L 87.046875 82.808594 L 85.710938 82.808594 Z M 88.273438 76.289062 " />
    <path style=" stroke:none;fill-rule:nonzero;fill:rgb(0%,0%,0%);fill-opacity:1;" d="M 99.691406 76.289062 L 101.015625 76.289062 L 98.457031 82.808594 L 97.125 82.808594 Z M 99.691406 76.289062 " />
    <path style=" stroke:none;fill-rule:nonzero;fill:rgb(0%,0%,0%);fill-opacity:1;" d="M 115.296875 76.257812 L 116.664062 76.257812 L 114 82.800781 L 112.839844 82.800781 L 111.3125 79.449219 L 109.984375 82.800781 L 108.652344 82.800781 L 111.261719 76.214844 L 113.375 81.027344 Z M 115.296875 76.257812 " />
    <path style=" stroke:none;fill-rule:nonzero;fill:rgb(0%,0%,0%);fill-opacity:1;" d="M 48.101562 82.808594 L 48.832031 80.945312 L 44.925781 80.945312 L 45.363281 79.710938 L 49.328125 79.710938 L 50.714844 76.261719 L 58.183594 76.261719 L 56.316406 80.945312 L 50.160156 80.945312 L 49.433594 82.804688 L 48.101562 82.804688 Z M 55.460938 79.714844 L 56.378906 77.414062 L 51.5625 77.414062 L 50.65625 79.714844 Z M 55.460938 79.714844 " />
    <path style=" stroke:none;fill-rule:nonzero;fill:rgb(0%,0%,0%);fill-opacity:1;" d="M 56.367188 82.8125 L 62.609375 76.023438 L 63.671875 82.800781 L 62.402344 82.800781 L 62.164062 81.429688 L 59.242188 81.429688 L 57.996094 82.800781 Z M 61.96875 80.179688 L 61.785156 78.667969 L 60.410156 80.160156 Z M 61.96875 80.179688 " />
    <path style=" stroke:none;fill-rule:nonzero;fill:rgb(0%,0%,0%);fill-opacity:1;" d="M 71.34375 82.8125 L 77.585938 76.023438 L 78.648438 82.800781 L 77.378906 82.800781 L 77.140625 81.429688 L 74.21875 81.429688 L 72.96875 82.800781 Z M 76.945312 80.179688 L 76.761719 78.667969 L 75.386719 80.160156 Z M 76.945312 80.179688 " />
    <path style=" stroke:none;fill-rule:nonzero;fill:rgb(0%,0%,0%);fill-opacity:1;" d="M 100.949219 82.808594 L 103.554688 76.257812 L 108.960938 76.257812 L 106.367188 82.808594 Z M 102.769531 81.566406 L 105.527344 81.566406 L 107.160156 77.496094 L 104.414062 77.496094 Z M 102.769531 81.566406 " />
    <path style=" stroke:none;fill-rule:nonzero;fill:rgb(0%,0%,0%);fill-opacity:1;" d="M 119.75 80.085938 C 119.75 77.921875 121.5625 75.988281 123.8125 75.988281 C 125.082031 75.988281 125.9375 76.554688 126.433594 77.429688 L 125.453125 78.089844 C 125.050781 77.476562 124.558594 77.070312 123.675781 77.070312 C 122.238281 77.070312 120.976562 78.457031 120.976562 80.035156 C 120.976562 81.140625 121.734375 81.863281 122.804688 81.863281 C 123.558594 81.863281 124.0625 81.554688 124.59375 81.089844 L 125.371094 81.878906 C 124.738281 82.496094 123.945312 82.945312 122.785156 82.945312 C 121.054688 82.953125 119.75 81.859375 119.75 80.085938 Z M 119.75 80.085938 " />
    <path style=" stroke:none;fill-rule:nonzero;fill:rgb(0%,0%,0%);fill-opacity:1;" d="M 126.558594 80 C 126.558594 77.957031 128.222656 75.988281 130.546875 75.988281 C 132.351562 75.988281 133.570312 77.265625 133.570312 78.941406 C 133.570312 80.984375 131.910156 82.953125 129.570312 82.953125 C 127.769531 82.953125 126.558594 81.675781 126.558594 80 Z M 132.34375 79.007812 C 132.34375 77.898438 131.628906 77.074219 130.429688 77.074219 C 128.871094 77.074219 127.785156 78.558594 127.785156 79.933594 C 127.785156 81.050781 128.5 81.867188 129.699219 81.867188 C 131.257812 81.867188 132.34375 80.382812 132.34375 79.007812 Z M 132.34375 79.007812 " />
    <path style=" stroke:none;fill-rule:nonzero;fill:rgb(0%,0%,0%);fill-opacity:1;" d="M 135.847656 76.105469 L 137.050781 76.105469 L 138.222656 79.289062 L 141.105469 76.105469 L 142.464844 76.105469 L 140.65625 82.839844 L 139.457031 82.839844 L 140.753906 78.011719 L 137.796875 81.1875 L 137.757812 81.1875 L 136.519531 78.035156 L 135.234375 82.847656 L 134.050781 82.847656 Z M 135.847656 76.105469 " />
    <path style=" stroke:none;fill-rule:nonzero;fill:rgb(0%,0%,0%);fill-opacity:1;" d="M 144.191406 76.105469 L 146.3125 76.105469 C 147.222656 76.105469 147.886719 76.296875 148.351562 76.765625 C 148.679688 77.097656 148.847656 77.539062 148.847656 78.097656 C 148.847656 79.722656 147.464844 80.652344 145.5625 80.652344 L 144.160156 80.652344 L 143.574219 82.835938 L 142.382812 82.835938 Z M 145.621094 79.605469 C 146.851562 79.605469 147.617188 79.082031 147.617188 78.191406 C 147.617188 77.921875 147.53125 77.699219 147.359375 77.527344 C 147.132812 77.300781 146.773438 77.183594 146.273438 77.183594 L 145.085938 77.183594 L 144.4375 79.609375 L 145.621094 79.609375 Z M 145.621094 79.605469 " />
    <path style=" stroke:none;fill-rule:nonzero;fill:rgb(0%,0%,0%);fill-opacity:1;" d="M 152.457031 76.054688 L 153.589844 76.054688 L 154.734375 82.835938 L 153.523438 82.835938 L 153.265625 81.210938 L 150.089844 81.210938 L 148.964844 82.835938 L 147.6875 82.835938 Z M 153.121094 80.164062 L 152.6875 77.4375 L 150.804688 80.164062 Z M 153.121094 80.164062 " />
    <path style=" stroke:none;fill-rule:nonzero;fill:rgb(0%,0%,0%);fill-opacity:1;" d="M 157.480469 76.105469 L 158.574219 76.105469 L 160.851562 80.867188 L 162.136719 76.105469 L 163.296875 76.105469 L 161.492188 82.839844 L 160.5 82.839844 L 158.148438 77.945312 L 156.839844 82.839844 L 155.667969 82.839844 Z M 157.480469 76.105469 " />
    <path style=" stroke:none;fill-rule:nonzero;fill:rgb(0%,0%,0%);fill-opacity:1;" d="M 165.570312 80.164062 L 164.074219 76.101562 L 165.378906 76.101562 L 166.398438 79.140625 L 169.0625 76.101562 L 170.523438 76.101562 L 166.730469 80.289062 L 166.046875 82.835938 L 164.863281 82.835938 Z M 165.570312 80.164062 " />
    <path style=" stroke:none;fill-rule:nonzero;fill:rgb(0%,0%,0%);fill-opacity:1;" d="M 39.09375 76.054688 L 40.230469 76.054688 L 41.375 82.835938 L 40.164062 82.835938 L 39.90625 81.210938 L 36.730469 81.210938 L 35.605469 82.835938 L 34.320312 82.835938 Z M 39.757812 80.164062 L 39.324219 77.4375 L 37.441406 80.164062 Z M 39.757812 80.164062 " />
  </g>
</svg>