<?xml version="1.0" encoding="UTF-8"?>
<svg xmlns="http://www.w3.org/2000/svg" xmlns:xlink="http://www.w3.org/1999/xlink" width="209px" height="125px" viewBox="0 0 208 125" version="1.1">
  <g id="surface1">
    <path style=" stroke:none;fill-rule:nonzero;fill:rgb(91.764706%,0%,16.078431%);fill-opacity:1;" d="M 148.269531 48.898438 C 141.667969 38.3125 124.074219 30.722656 103.472656 30.722656 C 82.851562 30.722656 65.253906 38.320312 58.660156 48.914062 L 62.136719 48.914062 C 68.933594 40.007812 85.125 33.574219 103.472656 33.574219 C 121.800781 33.574219 137.984375 40.003906 144.789062 48.898438 Z M 144.800781 67.402344 C 138 76.304688 121.8125 82.738281 103.476562 82.738281 C 85.144531 82.738281 68.960938 76.304688 62.152344 67.410156 L 58.667969 67.410156 C 65.265625 78 82.863281 85.589844 103.476562 85.589844 C 124.085938 85.589844 141.675781 78 148.277344 67.410156 Z M 144.800781 67.402344 " />
    <path style=" stroke:none;fill-rule:nonzero;fill:rgb(91.764706%,0%,16.078431%);fill-opacity:1;" d="M 120.4375 67.414062 C 116.429688 70.941406 110.257812 73.253906 103.472656 73.253906 C 96.6875 73.253906 90.503906 70.941406 86.503906 67.414062 L 82.476562 67.402344 C 86.769531 72.617188 94.578125 76.109375 103.472656 76.109375 C 112.367188 76.109375 120.167969 72.621094 124.464844 67.414062 Z M 124.449219 48.886719 C 120.152344 43.6875 112.359375 40.203125 103.472656 40.203125 C 94.574219 40.203125 86.769531 43.695312 82.476562 48.910156 L 86.503906 48.910156 C 90.507812 45.375 96.6875 43.0625 103.476562 43.0625 C 110.253906 43.0625 116.425781 45.367188 120.433594 48.890625 L 124.449219 48.890625 Z M 124.449219 48.886719 " />
    <path style=" stroke:none;fill-rule:nonzero;fill:rgb(91.764706%,0%,16.078431%);fill-opacity:1;" d="M 172.71875 22.050781 L 32.800781 22.050781 L 32.800781 94.261719 L 174.144531 94.261719 L 174.144531 22.050781 Z M 171.292969 24.902344 C 171.292969 27.582031 171.292969 88.726562 171.292969 91.410156 C 168.53125 91.410156 38.414062 91.410156 35.652344 91.410156 C 35.652344 88.730469 35.652344 27.585938 35.652344 24.902344 C 38.414062 24.902344 168.53125 24.902344 171.292969 24.902344 Z M 171.292969 24.902344 " />
    <path style=" stroke:none;fill-rule:nonzero;fill:rgb(48.627451%,49.019608%,49.803922%);fill-opacity:1;" d="M 43.25 62.835938 L 43.25 52.925781 L 51.734375 52.925781 C 53.21875 52.925781 53.960938 53.566406 53.960938 54.847656 L 53.960938 57.054688 C 53.960938 58.332031 53.21875 58.976562 51.734375 58.976562 L 45.523438 58.976562 L 45.523438 62.839844 L 43.25 62.839844 Z M 50.714844 54.605469 L 45.527344 54.605469 L 45.527344 57.289062 L 50.714844 57.289062 C 51.074219 57.289062 51.320312 57.25 51.464844 57.171875 C 51.65625 57.054688 51.75 56.824219 51.75 56.488281 L 51.75 55.414062 C 51.75 55.074219 51.65625 54.847656 51.464844 54.730469 C 51.320312 54.644531 51.074219 54.605469 50.714844 54.605469 Z M 50.714844 54.605469 " />
    <path style=" stroke:none;fill-rule:nonzero;fill:rgb(48.627451%,49.019608%,49.803922%);fill-opacity:1;" d="M 58.726562 62.835938 L 64.332031 52.925781 L 66.554688 52.925781 L 72.234375 62.835938 L 69.640625 62.835938 L 68.453125 60.652344 L 62.179688 60.652344 L 61.027344 62.835938 Z M 63.152344 58.878906 L 67.488281 58.878906 L 65.359375 54.851562 Z M 63.152344 58.878906 " />
    <path style=" stroke:none;fill-rule:nonzero;fill:rgb(48.627451%,49.019608%,49.803922%);fill-opacity:1;" d="M 78.503906 62.835938 L 78.503906 52.925781 L 80.078125 52.925781 L 87.050781 58.765625 C 87.550781 59.1875 87.929688 59.550781 88.183594 59.839844 C 88.121094 58.921875 88.09375 58.351562 88.09375 58.132812 L 88.09375 52.925781 L 90.175781 52.925781 L 90.175781 62.835938 L 88.601562 62.835938 L 81.320312 56.707031 C 81.011719 56.449219 80.738281 56.183594 80.492188 55.898438 C 80.554688 56.542969 80.582031 57.066406 80.582031 57.476562 L 80.582031 62.835938 Z M 78.503906 62.835938 " />
    <path style=" stroke:none;fill-rule:nonzero;fill:rgb(48.627451%,49.019608%,49.803922%);fill-opacity:1;" d="M 96.421875 62.835938 L 102.023438 52.925781 L 104.25 52.925781 L 109.929688 62.835938 L 107.335938 62.835938 L 106.148438 60.652344 L 99.875 60.652344 L 98.722656 62.835938 Z M 100.851562 58.878906 L 105.1875 58.878906 L 103.054688 54.851562 Z M 100.851562 58.878906 " />
    <path style=" stroke:none;fill-rule:nonzero;fill:rgb(48.627451%,49.019608%,49.803922%);fill-opacity:1;" d="M 116.230469 62.835938 L 116.230469 52.925781 L 118.535156 52.925781 L 118.535156 60.972656 L 125.953125 60.972656 L 125.953125 62.839844 L 116.230469 62.839844 Z M 116.230469 62.835938 " />
    <path style=" stroke:none;fill-rule:nonzero;fill:rgb(48.627451%,49.019608%,49.803922%);fill-opacity:1;" d="M 134.753906 52.921875 L 134.753906 60.964844 L 141.324219 60.964844 L 141.324219 52.921875 L 143.628906 52.921875 L 143.628906 60.492188 C 143.628906 61.414062 143.453125 62.039062 143.109375 62.355469 C 142.761719 62.675781 142.113281 62.832031 141.167969 62.832031 L 134.910156 62.832031 C 133.960938 62.832031 133.316406 62.675781 132.96875 62.355469 C 132.625 62.035156 132.449219 61.414062 132.449219 60.492188 L 132.449219 52.921875 Z M 134.753906 52.921875 " />
    <path style=" stroke:none;fill-rule:nonzero;fill:rgb(48.627451%,49.019608%,49.803922%);fill-opacity:1;" d="M 150.289062 62.835938 L 154.984375 57.746094 L 150.210938 52.925781 L 153.257812 52.925781 L 156.425781 56.292969 L 159.4375 52.925781 L 162.082031 52.925781 L 157.769531 57.480469 L 163.101562 62.839844 L 159.976562 62.839844 L 156.355469 59 L 153.015625 62.839844 L 150.289062 62.839844 Z M 150.289062 62.835938 " />
    <path style=" stroke:none;fill-rule:nonzero;fill:rgb(48.627451%,49.019608%,49.803922%);fill-opacity:1;" d="M 165.835938 84.027344 C 166.171875 84.027344 166.488281 84.089844 166.785156 84.214844 C 167.085938 84.339844 167.351562 84.523438 167.585938 84.761719 C 167.808594 84.992188 167.980469 85.253906 168.097656 85.546875 C 168.214844 85.835938 168.277344 86.148438 168.277344 86.476562 C 168.277344 86.808594 168.214844 87.121094 168.09375 87.421875 C 167.96875 87.714844 167.792969 87.980469 167.5625 88.203125 C 167.328125 88.433594 167.0625 88.609375 166.761719 88.734375 C 166.460938 88.859375 166.15625 88.917969 165.835938 88.917969 C 165.503906 88.917969 165.195312 88.855469 164.898438 88.726562 C 164.597656 88.597656 164.335938 88.417969 164.105469 88.179688 C 163.875 87.949219 163.699219 87.6875 163.582031 87.394531 C 163.464844 87.105469 163.40625 86.796875 163.40625 86.480469 C 163.40625 86.253906 163.433594 86.039062 163.496094 85.824219 C 163.554688 85.613281 163.644531 85.410156 163.761719 85.207031 C 163.984375 84.835938 164.273438 84.546875 164.636719 84.339844 C 165 84.128906 165.398438 84.027344 165.835938 84.027344 Z M 165.84375 84.433594 C 165.5625 84.433594 165.304688 84.484375 165.070312 84.578125 C 164.832031 84.675781 164.617188 84.820312 164.425781 85.011719 C 164.226562 85.207031 164.074219 85.433594 163.964844 85.6875 C 163.859375 85.941406 163.804688 86.199219 163.804688 86.472656 C 163.804688 86.746094 163.855469 87.003906 163.953125 87.246094 C 164.054688 87.492188 164.199219 87.707031 164.386719 87.894531 C 164.582031 88.089844 164.808594 88.246094 165.054688 88.355469 C 165.304688 88.460938 165.5625 88.515625 165.832031 88.515625 C 166.09375 88.515625 166.351562 88.464844 166.59375 88.363281 C 166.839844 88.257812 167.066406 88.113281 167.273438 87.921875 C 167.460938 87.738281 167.605469 87.523438 167.714844 87.277344 C 167.820312 87.035156 167.871094 86.777344 167.871094 86.515625 C 167.871094 86.226562 167.824219 85.957031 167.726562 85.710938 C 167.632812 85.464844 167.484375 85.246094 167.292969 85.050781 C 167.097656 84.851562 166.875 84.695312 166.628906 84.589844 C 166.386719 84.484375 166.125 84.433594 165.84375 84.433594 Z M 164.828125 85.070312 L 165.886719 85.070312 C 166.269531 85.070312 166.5625 85.136719 166.753906 85.265625 C 166.945312 85.394531 167.039062 85.589844 167.039062 85.851562 C 167.039062 86.027344 166.988281 86.183594 166.882812 86.308594 C 166.777344 86.4375 166.632812 86.519531 166.449219 86.566406 L 167.054688 87.773438 L 166.320312 87.773438 L 165.804688 86.667969 L 165.480469 86.667969 L 165.480469 87.773438 L 164.824219 87.773438 L 164.824219 85.070312 Z M 165.488281 85.488281 L 165.488281 86.273438 L 165.8125 86.273438 C 166.003906 86.273438 166.144531 86.242188 166.238281 86.179688 C 166.328125 86.117188 166.371094 86.019531 166.371094 85.890625 C 166.371094 85.753906 166.320312 85.648438 166.226562 85.585938 C 166.128906 85.519531 165.980469 85.492188 165.78125 85.492188 L 165.488281 85.492188 Z M 165.488281 85.488281 " />
    <path style=" stroke:none;fill-rule:nonzero;fill:rgb(48.627451%,49.019608%,49.803922%);fill-opacity:1;" d="M 84.441406 100.386719 L 85.527344 100.386719 L 86.046875 103.75 L 89.074219 100.398438 L 90.414062 100.390625 L 85.367188 105.945312 Z M 84.441406 100.386719 " />
    <path style=" stroke:none;fill-rule:nonzero;fill:rgb(48.627451%,49.019608%,49.803922%);fill-opacity:1;" d="M 97.738281 101.621094 L 97.804688 101.449219 L 95.664062 101.449219 L 95.214844 102.632812 L 98.488281 102.632812 L 97.222656 105.921875 L 92.832031 105.921875 L 93.316406 104.714844 L 94.445312 104.714844 L 94.378906 104.878906 L 96.507812 104.878906 L 96.960938 103.6875 L 93.703125 103.6875 L 94.949219 100.390625 L 99.332031 100.390625 L 98.871094 101.621094 Z M 97.738281 101.621094 " />
    <path style=" stroke:none;fill-rule:nonzero;fill:rgb(48.627451%,49.019608%,49.803922%);fill-opacity:1;" d="M 77.527344 100.390625 L 78.679688 100.390625 L 76.433594 105.921875 L 75.445312 105.921875 L 74.15625 103.089844 L 73.039062 105.921875 L 71.910156 105.921875 L 74.113281 100.359375 L 75.902344 104.425781 Z M 77.527344 100.390625 " />
    <path style=" stroke:none;fill-rule:nonzero;fill:rgb(48.627451%,49.019608%,49.803922%);fill-opacity:1;" d="M 91.660156 100.410156 L 92.785156 100.410156 L 90.621094 105.921875 L 89.492188 105.921875 Z M 91.660156 100.410156 " />
    <path style=" stroke:none;fill-rule:nonzero;fill:rgb(48.627451%,49.019608%,49.803922%);fill-opacity:1;" d="M 101.308594 100.410156 L 102.425781 100.410156 L 100.269531 105.921875 L 99.140625 105.921875 Z M 101.308594 100.410156 " />
    <path style=" stroke:none;fill-rule:nonzero;fill:rgb(48.627451%,49.019608%,49.803922%);fill-opacity:1;" d="M 114.5 100.382812 L 115.652344 100.382812 L 113.40625 105.914062 L 112.417969 105.914062 L 111.128906 103.082031 L 110.011719 105.914062 L 108.882812 105.914062 L 111.09375 100.351562 L 112.878906 104.417969 Z M 114.5 100.382812 " />
    <path style=" stroke:none;fill-rule:nonzero;fill:rgb(48.627451%,49.019608%,49.803922%);fill-opacity:1;" d="M 57.707031 105.921875 L 58.324219 104.351562 L 55.019531 104.351562 L 55.390625 103.308594 L 58.742188 103.308594 L 59.917969 100.394531 L 66.226562 100.394531 L 64.652344 104.355469 L 59.445312 104.355469 L 58.832031 105.925781 L 57.707031 105.925781 Z M 63.925781 103.308594 L 64.703125 101.359375 L 60.636719 101.359375 L 59.871094 103.308594 Z M 63.925781 103.308594 " />
    <path style=" stroke:none;fill-rule:nonzero;fill:rgb(48.627451%,49.019608%,49.803922%);fill-opacity:1;" d="M 64.695312 105.925781 L 69.972656 100.1875 L 70.875 105.914062 L 69.800781 105.914062 L 69.597656 104.753906 L 67.128906 104.753906 L 66.074219 105.914062 Z M 69.425781 103.695312 L 69.273438 102.417969 L 68.113281 103.679688 Z M 69.425781 103.695312 " />
    <path style=" stroke:none;fill-rule:nonzero;fill:rgb(48.627451%,49.019608%,49.803922%);fill-opacity:1;" d="M 77.351562 105.925781 L 82.625 100.1875 L 83.527344 105.914062 L 82.457031 105.914062 L 82.25 104.753906 L 79.785156 104.753906 L 78.726562 105.914062 Z M 82.082031 103.695312 L 81.925781 102.417969 L 80.765625 103.679688 Z M 82.082031 103.695312 " />
    <path style=" stroke:none;fill-rule:nonzero;fill:rgb(48.627451%,49.019608%,49.803922%);fill-opacity:1;" d="M 102.375 105.921875 L 104.574219 100.382812 L 109.144531 100.382812 L 106.953125 105.921875 Z M 103.910156 104.875 L 106.238281 104.875 L 107.621094 101.433594 L 105.296875 101.433594 Z M 103.910156 104.875 " />
    <path style=" stroke:none;fill-rule:nonzero;fill:rgb(48.627451%,49.019608%,49.803922%);fill-opacity:1;" d="M 118.261719 103.621094 C 118.261719 101.792969 119.796875 100.160156 121.695312 100.160156 C 122.769531 100.160156 123.488281 100.636719 123.914062 101.378906 L 123.085938 101.941406 C 122.746094 101.421875 122.328125 101.078125 121.585938 101.078125 C 120.367188 101.078125 119.304688 102.25 119.304688 103.582031 C 119.304688 104.515625 119.945312 105.128906 120.847656 105.128906 C 121.488281 105.128906 121.914062 104.871094 122.359375 104.480469 L 123.015625 105.144531 C 122.480469 105.667969 121.8125 106.050781 120.832031 106.050781 C 119.367188 106.046875 118.261719 105.117188 118.261719 103.621094 Z M 118.261719 103.621094 " />
    <path style=" stroke:none;fill-rule:nonzero;fill:rgb(48.627451%,49.019608%,49.803922%);fill-opacity:1;" d="M 124.019531 103.550781 C 124.019531 101.824219 125.425781 100.160156 127.386719 100.160156 C 128.914062 100.160156 129.945312 101.242188 129.945312 102.652344 C 129.945312 104.378906 128.539062 106.046875 126.566406 106.046875 C 125.042969 106.046875 124.019531 104.960938 124.019531 103.550781 Z M 128.90625 102.707031 C 128.90625 101.773438 128.308594 101.074219 127.292969 101.074219 C 125.976562 101.074219 125.058594 102.328125 125.058594 103.492188 C 125.058594 104.433594 125.65625 105.125 126.671875 105.125 C 127.988281 105.125 128.90625 103.875 128.90625 102.707031 Z M 128.90625 102.707031 " />
    <path style=" stroke:none;fill-rule:nonzero;fill:rgb(48.627451%,49.019608%,49.803922%);fill-opacity:1;" d="M 131.867188 100.253906 L 132.882812 100.253906 L 133.871094 102.945312 L 136.3125 100.253906 L 137.453125 100.253906 L 135.929688 105.945312 L 134.914062 105.945312 L 136.007812 101.863281 L 133.507812 104.546875 L 133.472656 104.546875 L 132.425781 101.878906 L 131.335938 105.945312 L 130.335938 105.945312 Z M 131.867188 100.253906 " />
    <path style=" stroke:none;fill-rule:nonzero;fill:rgb(48.627451%,49.019608%,49.803922%);fill-opacity:1;" d="M 138.917969 100.253906 L 140.710938 100.253906 C 141.480469 100.253906 142.042969 100.417969 142.433594 100.816406 C 142.707031 101.089844 142.859375 101.464844 142.859375 101.9375 C 142.859375 103.3125 141.691406 104.101562 140.078125 104.101562 L 138.894531 104.101562 L 138.398438 105.945312 L 137.390625 105.945312 Z M 140.125 103.210938 C 141.164062 103.210938 141.8125 102.773438 141.8125 102.015625 C 141.8125 101.789062 141.738281 101.601562 141.59375 101.453125 C 141.398438 101.257812 141.097656 101.164062 140.675781 101.164062 L 139.667969 101.164062 L 139.121094 103.210938 Z M 140.125 103.210938 " />
    <path style=" stroke:none;fill-rule:nonzero;fill:rgb(48.627451%,49.019608%,49.803922%);fill-opacity:1;" d="M 145.90625 100.210938 L 146.863281 100.210938 L 147.828125 105.945312 L 146.804688 105.945312 L 146.585938 104.570312 L 143.898438 104.570312 L 142.949219 105.945312 L 141.867188 105.945312 Z M 146.464844 103.6875 L 146.097656 101.386719 L 144.507812 103.6875 Z M 146.464844 103.6875 " />
    <path style=" stroke:none;fill-rule:nonzero;fill:rgb(48.627451%,49.019608%,49.803922%);fill-opacity:1;" d="M 150.152344 100.253906 L 151.078125 100.253906 L 153.003906 104.277344 L 154.09375 100.253906 L 155.078125 100.253906 L 153.550781 105.945312 L 152.714844 105.945312 L 150.726562 101.808594 L 149.621094 105.945312 L 148.632812 105.945312 Z M 150.152344 100.253906 " />
    <path style=" stroke:none;fill-rule:nonzero;fill:rgb(48.627451%,49.019608%,49.803922%);fill-opacity:1;" d="M 156.988281 103.6875 L 155.726562 100.253906 L 156.828125 100.253906 L 157.6875 102.824219 L 159.941406 100.253906 L 161.175781 100.253906 L 157.96875 103.792969 L 157.390625 105.945312 L 156.390625 105.945312 Z M 156.988281 103.6875 " />
    <path style=" stroke:none;fill-rule:nonzero;fill:rgb(48.627451%,49.019608%,49.803922%);fill-opacity:1;" d="M 50.09375 100.210938 L 51.050781 100.210938 L 52.015625 105.945312 L 50.992188 105.945312 L 50.773438 104.570312 L 48.085938 104.570312 L 47.136719 105.945312 L 46.054688 105.945312 Z M 50.652344 103.6875 L 50.285156 101.386719 L 48.691406 103.6875 Z M 50.652344 103.6875 " />
  </g>
</svg>