<?xml version="1.0" encoding="utf-8"?>
<!-- Generator: Adobe Illustrator 26.0.2, SVG Export Plug-In . SVG Version: 6.00 Build 0)  -->
<svg version="1.1" id="Layer_1" xmlns="http://www.w3.org/2000/svg" xmlns:xlink="http://www.w3.org/1999/xlink" x="0px" y="0px" viewBox="0 0 500 300" style="enable-background:new 0 0 500 300;" xml:space="preserve">
  <style type="text/css">
	.st0{display:none;}
	.st1{display:inline;}
	.st2{fill:#D2DE3F;}
	.st3{fill:#EA0029;}
	.st4{fill:#7C7D7F;}
</style>
  <g class="st0">
    <path class="st1" d="M478.8,63.1c5,0,9.3,4,9.3,9.2c0,5.3-4.2,9.3-9.3,9.3c-5.1,0-9.3-4-9.3-9.3C469.5,67.1,473.8,63.1,478.8,63.1z
		 M478.8,80.2c4.3,0,7.6-3.4,7.6-7.9c0-4.4-3.3-7.8-7.6-7.8c-4.3,0-7.6,3.4-7.6,7.8C471.2,76.8,474.5,80.2,478.8,80.2z M475.2,66.9
		h4.2c2.6,0,3.8,1,3.8,3.1c0,1.9-1.2,2.8-2.8,2.9l3.1,4.8h-1.8l-2.9-4.6h-1.8v4.6h-1.7L475.2,66.9L475.2,66.9z M476.9,71.7h1.8
		c1.5,0,2.8-0.1,2.8-1.8c0-1.4-1.2-1.7-2.4-1.7h-2.2V71.7z" />
    <g class="st1">
      <path d="M461.8,243H34.3V63.1h427.5V243z M38.2,239.1h419.6v-172H38.2V239.1z" />
      <g>
        <polygon points="369.7,126.8 365.7,126.8 365.7,90 124.1,90 124.1,126.8 120.2,126.8 120.2,86 369.7,86 			" />
      </g>
      <g>
        <polygon points="369.7,219.8 120.2,219.8 120.2,179 124.1,179 124.1,215.8 365.7,215.8 365.7,179 369.7,179 			" />
      </g>
    </g>
    <g class="st1">
      <path d="M300.6,126.8h-3c0-1.2,0-2.3,0-3.2c0-3.6,0.1-5.8-0.6-6.6c-0.7-0.8-2.9-1.1-6.6-1.6c-1-0.1-2.2-0.3-3.6-0.5
			c-16.7-2.5-66.6-2.1-83.1,0l-1.8,0.2c-4.8,0.6-7.6,1-8.6,1.9c-0.9,0.9-0.9,3.1-0.9,7.2c0,0.8,0,1.6,0,2.5h-3c0-0.9,0-1.8,0-2.5
			c-0.1-10.3,0.8-10.7,12.1-12.1l1.7-0.2c16.6-2.1,67-2.5,83.9,0c1.3,0.2,2.5,0.3,3.5,0.5c9.3,1.3,9.9,1.9,9.8,11.2
			C300.6,124.5,300.6,125.6,300.6,126.8z" />
      <path d="M247.1,195.5c-17.4,0-35.1-0.6-43.7-1.7l-1.7-0.2c-11.9-1.5-12.2-2.3-12.1-12.1c0-0.8,0-1.6,0-2.5h3c0,0.9,0,1.8,0,2.5
			c0,4.1,0,6.3,0.9,7.2c1,1,3.9,1.3,8.6,1.9l1.8,0.2c16.4,2.1,66.4,2.5,83.1,0c1.3-0.2,2.5-0.4,3.6-0.5c3.7-0.5,5.9-0.8,6.6-1.6
			c0.7-0.8,0.7-3,0.6-6.6c0-1,0-2,0-3.2h3c0,1.2,0,2.2,0,3.2c0.1,9.3-0.5,9.9-9.8,11.2c-1,0.1-2.2,0.3-3.5,0.5
			C279.2,195,263.3,195.5,247.1,195.5z" />
    </g>
    <polygon class="st1" points="242.3,134.4 249.6,134.4 253.1,157 273.5,134.5 282.5,134.5 248.6,171.8 	" />
    <g class="st1">
      <polygon points="331.7,142.7 332.1,141.6 317.7,141.6 314.7,149.5 336.7,149.5 328.2,171.6 298.7,171.6 302,163.5 309.6,163.5 
			309.1,164.6 323.4,164.6 326.5,156.6 304.6,156.6 312.9,134.5 342.4,134.5 339.3,142.7 		" />
    </g>
    <g class="st1">
      <polygon points="195.9,134.5 203.6,134.5 188.5,171.6 181.9,171.6 173.2,152.6 165.7,171.6 158.1,171.6 172.9,134.3 184.9,161.6 
					" />
    </g>
    <polygon class="st1" points="290.9,134.6 298.4,134.6 283.9,171.6 276.3,171.6 	" />
    <polygon class="st1" points="355.7,134.6 363.2,134.6 348.7,171.6 341.1,171.6 	" />
    <g class="st1">
      <polygon points="444.3,134.4 452.1,134.4 437,171.5 430.4,171.5 421.7,152.6 414.2,171.5 406.6,171.5 421.4,134.2 433.4,161.5 		
			" />
    </g>
    <path class="st1" d="M62.7,171.6l4.1-10.6H44.6l2.5-7h22.5l7.9-19.6h42.4l-10.6,26.6h-35l-4.2,10.5H62.7z M104.5,154.1l5.2-13.1
		l-27.3,0l-5.2,13.1H104.5z" />
    <path class="st1" d="M109.6,171.6l35.4-38.5l6.1,38.4h-7.2l-1.4-7.8H126l-7.1,7.8L109.6,171.6z M141.4,156.7l-1-8.6l-7.8,8.5
		L141.4,156.7z" />
    <path class="st1" d="M194.7,171.6l35.4-38.5l6.1,38.4H229l-1.4-7.8h-16.6l-7.1,7.8L194.7,171.6z M226.5,156.7l-1-8.6l-7.8,8.5
		L226.5,156.7z" />
    <path class="st1" d="M362.9,171.6l14.8-37.1h30.7l-14.7,37.1H362.9z M373.2,164.6h15.7l9.3-23.1h-15.6L373.2,164.6z" />
  </g>
  <g class="st0">
    <rect x="46.2" y="106" class="st1" width="9.9" height="67.5" />
    <path class="st1" d="M66.7,174.2l-3.9-8.6c5.5-1.6,11.9-3.9,11.9-10.7c0-8.4-12.6-15.8-12.6-29.1c0-10.1,9.2-18.2,18.9-20.4
		l2.9,9.3c-5.2,1.4-12,4.7-12,11.1c0,10.1,12.7,16.6,12.7,29.1C84.5,165.4,77.3,171.3,66.7,174.2z" />
    <polygon class="st1" points="91.2,173.5 91.2,106 101.1,106 101.1,164.7 111.3,164.7 111.3,173.5 	" />
    <path class="st1" d="M152.6,174.2l-14.8-69h-2.9l-11.7,54.2h-3.8l-1.9,8.8h3.9l-1.3,6h10.5l1.1-6h9.6l1.1,6L152.6,174.2
		L152.6,174.2z M139.3,159.5h-6.2l3.2-16.7L139.3,159.5" />
    <polygon class="st1" points="185.1,175 167.4,140.6 167.4,173.5 157.5,173.5 157.5,104.5 160,104.5 177.8,138.9 177.8,106 
		187.6,106 187.6,175 	" />
    <path class="st1" d="M224.2,139.8c0-25-6.9-33.8-18.3-33.8h-9.9v67.5h9.9C217.4,173.5,224.2,164.7,224.2,139.8z M214.4,139.8
		c0,16.1-2.7,24.9-8.5,24.9v-49.9C211.8,114.8,214.4,122.4,214.4,139.8" />
    <path class="st1" d="M252.8,174.2l-3.9-8.6c5.5-1.6,12-3.9,12-10.7c0-8.4-12.7-15.9-12.7-29.1c0-10.1,9.2-18.2,19-20.4l2.9,9.3
		c-5.3,1.4-12,4.7-12,11.1c0,10.1,12.8,16.6,12.8,29.1C270.7,165.4,263.4,171.3,252.8,174.2z" />
    <polygon class="st1" points="293.7,114.8 293.7,173.5 283.9,173.5 283.9,114.8 276,114.8 278.2,106 300.7,106 300.7,114.8 	" />
    <path class="st1" d="M320.7,173.8c-8.2,0-13.4-5.5-13.4-16.4v-51.8h9.9v53.2c0,3.7,1.1,6.2,3.4,6.2c2.6,0,3.4-2.6,3.4-6.2v-53.2
		h9.9v51.8C334,168.2,329,173.8,320.7,173.8z" />
    <path class="st1" d="M369.2,139.8c0-25-6.9-33.8-18.4-33.8h-9.9v67.5h9.9C362.3,173.5,369.2,164.7,369.2,139.8z M359.3,139.8
		c0,16.1-2.8,24.9-8.5,24.9v-49.9C356.6,114.8,359.3,122.4,359.3,139.8" />
    <rect x="376.9" y="106" class="st1" width="9.9" height="67.5" />
    <path class="st1" d="M424.2,139.8c0-19.8-3-34.5-15.3-34.5c-12.8,0-15.2,14.8-15.2,34.5c0,19.4,4,34.4,15.2,34.4
		C420.6,174.2,424.2,159.4,424.2,139.8z M414.3,139.8c0,13.1-1.1,25.6-5.4,25.6c-4,0-5.4-12.2-5.4-25.6c0-13.6,1.1-25.7,5.4-25.7
		C413.5,114.1,414.3,126.3,414.3,139.8" />
    <path class="st1" d="M435.5,174.2l-4-8.6c5.5-1.6,12-3.9,12-10.7c0-8.4-12.7-15.9-12.7-29.1c0-10.1,9.2-18.2,19-20.4l2.9,9.3
		c-5.3,1.4-12,4.7-12,11.1c0,10.1,12.8,16.6,12.8,29.1C453.4,165.4,446.1,171.3,435.5,174.2z" />
    <g class="st1">
      <g>
        <g>
          <polygon points="198,195.3 200.9,195.3 202.2,204.2 210.2,195.3 213.8,195.3 200.4,210 				" />
          <g>
            <polygon points="233.2,198.6 233.4,198.1 227.7,198.1 226.5,201.2 235.1,201.2 231.8,209.9 220.2,209.9 221.5,206.7 
						224.5,206.7 224.3,207.2 229.9,207.2 231.1,204 222.5,204 225.8,195.3 237.4,195.3 236.2,198.6 					" />
          </g>
          <g>
            <polygon points="179.7,195.3 182.7,195.3 176.8,209.9 174.2,209.9 170.8,202.4 167.8,209.9 164.8,209.9 170.7,195.2 175.4,206 
											" />
          </g>
          <polygon points="217.1,195.4 220.1,195.4 214.3,209.9 211.4,209.9 				" />
          <polygon points="242.6,195.4 245.6,195.4 239.9,209.9 236.9,209.9 				" />
          <g>
            <polygon points="277.5,195.3 280.6,195.3 274.6,209.9 272,209.9 268.6,202.4 265.6,209.9 262.6,209.9 268.5,195.2 273.2,205.9 
											" />
          </g>
          <path d="M127.3,209.9l1.6-4.1h-8.7l1-2.8h8.9l3.1-7.7h16.7l-4.2,10.5h-13.8l-1.6,4.1L127.3,209.9L127.3,209.9z M143.7,203
					l2.1-5.1H135l-2,5.1H143.7z" />
          <path d="M145.8,209.9l14-15.1l2.4,15.1h-2.8l-0.5-3.1h-6.5l-2.8,3.1L145.8,209.9z M158.3,204l-0.4-3.4l-3.1,3.3L158.3,204z" />
          <path d="M179.2,209.9l14-15.1l2.4,15.1h-2.8l-0.5-3.1h-6.5l-2.8,3.1L179.2,209.9z M191.8,204l-0.4-3.4l-3.1,3.3L191.8,204z" />
          <path d="M245.4,209.9l5.8-14.6h12.1l-5.8,14.6H245.4z M249.5,207.1h6.2l3.7-9.1h-6.1L249.5,207.1z" />
        </g>
        <g>
          <path d="M287.5,203.8c0-4.8,4.1-9.1,9.1-9.1c2.8,0,4.8,1.3,5.9,3.2l-2.2,1.5c-0.9-1.4-2-2.3-4-2.3c-3.2,0-6,3.1-6,6.6
					c0,2.5,1.7,4.1,4.1,4.1c1.7,0,2.8-0.7,4-1.7l1.7,1.8c-1.4,1.4-3.2,2.4-5.8,2.4C290.4,210.2,287.5,207.8,287.5,203.8z" />
          <path d="M302.7,203.6c0-4.6,3.7-9,8.9-9c4,0,6.8,2.9,6.8,6.6c0,4.6-3.7,9-8.9,9C305.4,210.2,302.7,207.4,302.7,203.6z
					 M315.6,201.4c0-2.5-1.6-4.3-4.3-4.3c-3.5,0-5.9,3.3-5.9,6.4c0,2.5,1.6,4.3,4.3,4.3C313.2,207.8,315.6,204.5,315.6,201.4z" />
          <path d="M323.5,194.9h2.7l2.6,7.1l6.4-7.1h3l-4,15h-2.7l2.9-10.8l-6.6,7.1h-0.1l-2.8-7.1l-2.9,10.7h-2.6L323.5,194.9z" />
          <path d="M342.1,194.9h4.8c2,0,3.5,0.4,4.5,1.5c0.7,0.7,1.1,1.7,1.1,3c0,3.6-3.1,5.7-7.4,5.7H342l-1.3,4.9h-2.7L342.1,194.9z
					 M345.3,202.8c2.8,0,4.5-1.2,4.5-3.2c0-0.6-0.2-1.1-0.6-1.5c-0.5-0.5-1.3-0.8-2.4-0.8h-2.7l-1.4,5.4H345.3z" />
          <path d="M360.6,194.8h2.5l2.6,15.1H363l-0.6-3.6h-7.1l-2.5,3.6h-2.9L360.6,194.8z M362.1,204l-1-6.1l-4.2,6.1H362.1z" />
          <path d="M371.8,194.9h2.5l5.1,10.6l2.9-10.6h2.6l-4,15h-2.2l-5.3-10.9l-2.9,10.9h-2.6L371.8,194.9z" />
          <path d="M389.9,204l-3.4-9.1h2.9l2.3,6.8l6-6.8h3.3l-8.5,9.3L391,210h-2.6L389.9,204z" />
        </g>
        <g>
          <path d="M107.1,194.8h2.5l2.6,15.1h-2.7l-0.6-3.6h-7.1l-2.5,3.6h-2.9L107.1,194.8z M108.6,204l-1-6.1l-4.2,6.1H108.6z" />
        </g>
      </g>
    </g>
  </g>
  <g class="st0">
    <g class="st1">
      <path d="M230.1,101.3h33.2v8.4h-24.7v18.7h21.1v7.3h-21.1v25.8H230L230.1,101.3L230.1,101.3z" />
      <path d="M271.7,101.3h8.4v8.4h-8.4V101.3z M271.8,118.4h8.3v43.2h-8.3V118.4z" />
      <path d="M289.3,101.3h8.3v47c0,5.2,2,6.1,4.6,6.1c0.8,0,1.5-0.1,1.5-0.1v7.3c0,0-1.3,0.2-2.7,0.2c-4.7,0-11.6-1.3-11.6-12.1
			L289.3,101.3L289.3,101.3z" />
      <path d="M313,125.1h-5.6v-6.7h5.9v-11.9h8v11.9h10.4v6.7h-10.4v19.7c0,8.6,6.1,9.7,9.2,9.7c1.2,0,2-0.2,2-0.2v7.3
			c0,0-1.2,0.2-2.9,0.2c-5.5,0-16.5-1.7-16.5-16.1V125.1z" />
      <path d="M358.7,117.3c12.2,0,18.7,9,18.7,20.2c0,1.1-0.3,3.6-0.3,3.6h-31.5c0.4,9.5,7.2,14.2,14.8,14.2c7.4,0,12.8-5,12.8-5
			l3.4,6.1c0,0-6.4,6.1-16.7,6.1c-13.6,0-22.9-9.8-22.9-22.6C337.2,126.2,346.5,117.3,358.7,117.3z M369,134.9
			c-0.3-7.4-4.9-11-10.4-11c-6.3,0-11.4,3.9-12.6,11H369z" />
      <path d="M384.8,118.4h8v7.5c0,1.8-0.2,3.2-0.2,3.2h0.2c2-6.3,7-11.3,13.6-11.3c1.1,0,2.1,0.2,2.1,0.2v8.2c0,0-1.1-0.3-2.4-0.3
			c-5.3,0-10.1,3.7-12.1,10.1c-0.8,2.5-1,5.1-1,7.8v17.7h-8.3L384.8,118.4L384.8,118.4z" />
      <path d="M416.7,150.4c0,0,4.9,5,12.4,5c3.6,0,7.2-1.9,7.2-5.4c0-7.9-22.2-6.3-22.2-20.4c0-7.8,7-12.3,15.6-12.3
			c9.5,0,13.9,4.8,13.9,4.8l-3.3,6.2c0,0-3.8-3.8-10.7-3.8c-3.6,0-7.1,1.5-7.1,5.3c0,7.8,22.2,6.1,22.2,20.2
			c0,7.2-6.1,12.5-15.6,12.5c-10.6,0-16.4-6.3-16.4-6.3L416.7,150.4z" />
    </g>
    <g class="st1">
      <g>
        <polygon points="195.6,193.6 198.8,193.6 200.3,203.4 209.2,193.6 213.1,193.6 198.3,209.8 			" />
        <g>
          <polygon points="234.5,197.2 234.7,196.7 228.4,196.7 227.1,200.1 236.7,200.1 233,209.7 220.2,209.7 221.6,206.2 224.9,206.2 
					224.7,206.7 230.9,206.7 232.2,203.2 222.7,203.2 226.4,193.6 239.2,193.6 237.8,197.2 				" />
        </g>
        <g>
          <polygon points="175.4,193.6 178.8,193.6 172.2,209.7 169.3,209.7 165.5,201.5 162.3,209.7 159,209.7 165.4,193.5 170.6,205.4 
									" />
        </g>
        <polygon points="216.7,193.6 220,193.6 213.7,209.7 210.4,209.7 			" />
        <polygon points="245,193.6 248.2,193.6 241.9,209.7 238.6,209.7 			" />
        <g>
          <polygon points="283.5,193.6 286.9,193.6 280.3,209.7 277.5,209.7 273.7,201.5 270.4,209.7 267.1,209.7 273.6,193.5 
					278.8,205.3 				" />
        </g>
        <path d="M117.4,209.7l1.8-4.6h-9.7l1.1-3h9.8l3.4-8.5h18.5l-4.6,11.6h-15.2l-1.8,4.6L117.4,209.7L117.4,209.7z M135.6,202.1
				l2.3-5.7H126l-2.2,5.7H135.6z" />
        <path d="M137.9,209.7l15.4-16.8l2.6,16.7h-3.1l-0.6-3.4H145l-3.1,3.4L137.9,209.7z M151.7,203.2l-0.4-3.7l-3.4,3.7L151.7,203.2z" />
        <path d="M174.9,209.7l15.4-16.8l2.6,16.7h-3.1l-0.6-3.4H182l-3.1,3.4L174.9,209.7z M188.7,203.2l-0.4-3.7l-3.4,3.7L188.7,203.2z" />
        <path d="M248.1,209.7l6.4-16.2h13.4l-6.4,16.2H248.1z M252.6,206.7h6.8l4-10.1h-6.8L252.6,206.7z" />
      </g>
      <g>
        <path d="M294.5,203c0-5.3,4.5-10.1,10-10.1c3.1,0,5.2,1.4,6.5,3.6l-2.4,1.6c-1-1.5-2.2-2.5-4.4-2.5c-3.6,0-6.7,3.4-6.7,7.3
				c0,2.7,1.9,4.5,4.5,4.5c1.9,0,3.1-0.8,4.4-1.9l1.9,1.9c-1.6,1.5-3.5,2.6-6.4,2.6C297.8,210.1,294.5,207.4,294.5,203z" />
        <path d="M311.4,202.8c0-5,4.1-9.9,9.9-9.9c4.5,0,7.5,3.2,7.5,7.3c0,5-4.1,9.9-9.9,9.9C314.4,210.1,311.4,206.9,311.4,202.8z
				 M325.7,200.4c0-2.7-1.8-4.8-4.7-4.8c-3.9,0-6.5,3.7-6.5,7.1c0,2.8,1.8,4.8,4.7,4.8C323,207.4,325.7,203.8,325.7,200.4z" />
        <path d="M334.4,193.2h3l2.9,7.9l7.1-7.9h3.4l-4.5,16.6h-3l3.2-11.9l-7.3,7.8h-0.1l-3.1-7.8l-3.2,11.9h-2.9L334.4,193.2z" />
        <path d="M355,193.2h5.2c2.3,0,3.9,0.5,5,1.6c0.8,0.8,1.2,1.9,1.2,3.3c0,4-3.4,6.3-8.1,6.3h-3.5l-1.5,5.4h-2.9L355,193.2z
				 M358.5,201.8c3,0,4.9-1.3,4.9-3.5c0-0.7-0.2-1.2-0.6-1.6c-0.6-0.6-1.5-0.9-2.7-0.9h-3l-1.6,6H358.5z" />
        <path d="M375.4,193.1h2.8l2.8,16.7h-3l-0.6-4h-7.9l-2.8,4h-3.2L375.4,193.1z M377,203.2l-1.1-6.7l-4.7,6.7H377z" />
        <path d="M387.8,193.2h2.7l5.6,11.8l3.2-11.8h2.9l-4.5,16.6h-2.5l-5.8-12.1l-3.2,12.1h-2.9L387.8,193.2z" />
        <path d="M407.8,203.2l-3.7-10h3.2l2.5,7.5l6.6-7.5h3.6l-9.4,10.3l-1.7,6.3h-2.9L407.8,203.2z" />
      </g>
      <g>
        <path d="M95.2,193.1H98l2.8,16.7h-3l-0.6-4h-7.9l-2.8,4h-3.2L95.2,193.1z M96.8,203.2l-1.1-6.7l-4.7,6.7H96.8z" />
      </g>
    </g>
    <g class="st1">
      <path d="M80.7,101h11l-10,51.1h26.2l-2,9.5h-37L80.7,101z" />
      <path d="M122.5,101h36.2l-1.9,9.5h-25.2l-3.1,15.9h20.4l-1.9,9.5h-20.4l-3.2,16.3h26.6l-1.8,9.5h-37.6L122.5,101z" />
      <path d="M164.7,101h36.2l-1.9,9.5h-25.2l-3.1,15.9h20.4l-1.9,9.5h-20.4l-3.2,16.3h26.6l-1.8,9.5h-37.6L164.7,101z" />
      <path d="M199.7,177.5H70.1c-9.2,0-16.6-7.5-16.6-16.6v-59.4c0-9.2,7.5-16.6,16.6-16.6h129.6c9.2,0,16.6,7.5,16.6,16.6v59.4
			C216.3,170.1,208.9,177.5,199.7,177.5z M70.1,87.7c-7.6,0-13.9,6.2-13.9,13.9v59.4c0,7.6,6.2,13.9,13.9,13.9h129.6
			c7.6,0,13.9-6.2,13.9-13.9v-59.4c0-7.6-6.2-13.9-13.9-13.9C199.7,87.7,70.1,87.7,70.1,87.7z" />
      <g>
        <path d="M193.2,157.7c0.1-0.5,0.2-1,0.5-1.5c0.3-0.5,0.6-0.9,1-1.2c0.4-0.3,0.8-0.6,1.3-0.8c0.5-0.2,1-0.3,1.5-0.3s1,0.1,1.4,0.3
				c0.4,0.2,0.8,0.5,1.1,0.8c0.3,0.3,0.5,0.8,0.6,1.2s0.2,0.9,0.1,1.5c-0.1,0.5-0.2,1-0.5,1.5c-0.3,0.5-0.6,0.9-1,1.2
				c-0.4,0.3-0.8,0.6-1.3,0.8c-0.5,0.2-1,0.3-1.5,0.3s-1-0.1-1.4-0.3c-0.4-0.2-0.8-0.5-1.1-0.8c-0.3-0.3-0.5-0.8-0.6-1.2
				C193.2,158.7,193.1,158.2,193.2,157.7z M193.9,157.7c-0.1,0.4,0,0.8,0.1,1.2c0.1,0.4,0.3,0.7,0.5,1c0.2,0.3,0.5,0.5,0.9,0.7
				s0.8,0.2,1.2,0.2s0.9-0.1,1.2-0.2c0.4-0.2,0.8-0.4,1.1-0.7c0.3-0.3,0.6-0.6,0.8-1c0.2-0.4,0.4-0.8,0.4-1.2c0.1-0.4,0-0.8-0.1-1.2
				s-0.3-0.7-0.5-1c-0.2-0.3-0.6-0.5-0.9-0.7s-0.8-0.2-1.2-0.2s-0.9,0.1-1.2,0.2c-0.4,0.2-0.8,0.4-1.1,0.7c-0.3,0.3-0.6,0.6-0.8,1
				S193.9,157.3,193.9,157.7z M195.9,155.5h0.8h0.9c0.5,0,0.9,0.1,1.1,0.3s0.3,0.6,0.2,1c-0.1,0.4-0.2,0.7-0.4,0.9s-0.5,0.3-0.8,0.3
				l0.9,1.8h-0.8l-0.8-1.8h-0.6l-0.2,1.8h-0.8L195.9,155.5z M196.4,157.4h0.6c0.1,0,0.2,0,0.4,0c0.1,0,0.2,0,0.3-0.1
				s0.2-0.1,0.3-0.2c0.1-0.1,0.1-0.2,0.1-0.3c0-0.1,0-0.3-0.1-0.3c-0.1-0.1-0.1-0.1-0.2-0.2c-0.1,0-0.2-0.1-0.3-0.1
				c-0.1,0-0.2,0-0.4,0h-0.6L196.4,157.4z" />
      </g>
    </g>
  </g>
  <g class="st0">
    <g class="st1">
      <path d="M33.2,109.9c0,0.3,0.1,0.6,0.1,0.9c0,13.8,0,27.7,0,41.5c0,0.3,0,0.6,0,0.9c7.7,0,15.4,0,23.1,0c0,1.6,0,3.1,0,4.7
			c-9.2,0-18.5,0-27.7,0c0-16,0-32,0-48C30.2,109.9,31.7,109.9,33.2,109.9z" />
    </g>
    <g class="st1">
      <path d="M64.2,110.2c0-0.3,0.1-0.3,0.3-0.3c1.4,0,2.9,0,4.3,0c0.1,0,0.1,0.5,0.1,0.7c0,15.5,0,31,0,46.5c0,0.2,0,0.5,0,0.7
			c-1.6,0-3.1,0-4.7,0c0-0.4,0-0.7,0-1c0-15.2,0-30.5,0-45.7C64.2,110.8,64.2,110.5,64.2,110.2z" />
    </g>
    <g class="st1">
      <path d="M99.1,109.9c0.4,0.1,2.8,0.3,4.2,0.7c6.8,2,10.9,6.7,12.6,13.5c0,0.1,0,0.2,0,0.3c-1.6,0.3-3.3,0.7-5,1
			c-0.1-0.3-0.2-0.5-0.2-0.8c-0.7-2.2-1.7-4.3-3.2-6.2c-4.7-5.4-12.2-5.9-17.7-1.1c-3.1,2.7-4.9,6.1-5.6,10.1c-1.2,6-1,12,1.1,17.8
			c1.3,3.7,3.4,6.7,7,8.6c7.7,4.1,17.6-0.9,18.7-9.6c0.2-1.2,0.2-2.4,0.3-3.6c0-0.1,0-0.3,0-0.5c-4,0-7.9,0-11.9,0v-4.6h16.4v23.1
			h-4.6c0-2,0-3.9,0-6c-0.3,0.3-0.5,0.5-0.6,0.7c-7.2,9.1-21.7,8.1-27.9-1.5c-2.3-3.5-3.6-7.4-4.1-11.5c-0.7-5.6-0.5-11.1,1.1-16.5
			c1.7-5.6,5.2-9.9,10.6-12.6c1.8-0.9,3.7-1.2,5.7-1.5c0.2,0,0.4-0.1,0.5-0.1c0.8-0.1,0.3,0,0.4,0L99.1,109.9z" />
    </g>
    <g class="st1">
      <path d="M160,109.9c0,0.2,0,0.5,0,0.8c0,15.5,0,31,0,46.5c0,0.2,0,0.4,0,0.7c-1.6,0-3.1,0-4.7,0c0-7.6,0-15.2,0-22.9
			c-8.5,0-16.9,0-25.4,0c0,7.6,0,15.2,0,22.9c-1.6,0-3.1,0-4.7,0c0-0.3,0-0.6,0-0.8c0-15.4,0-30.9,0-46.4c0-0.3-0.1-0.8,0.1-0.8
			c1.5,0,3,0,4.5,0c0,6.8,0,13.5,0,20.3c8.5,0,16.9,0,25.4,0c0-0.3,0-0.6,0-0.9c0-6.2,0-12.4,0-18.6c0-0.3,0.1-0.5,0.1-0.8
			C157,109.9,158.5,109.9,160,109.9z" />
    </g>
    <g class="st1">
      <path d="M201.9,109.9c0,1.5,0,3.1,0,4.7c-5.1,0-10.1,0-15.2,0c0,14.5,0,28.9,0,43.3c-1.6,0-3.1,0-4.7,0c0-14.4,0-28.8,0-43.3
			c-0.3,0-0.6,0-0.9,0c-4.6,0-9.1,0-13.7,0c-0.3,0-0.5-0.1-0.8-0.1c0-1.5,0-3,0-4.5C178.4,109.9,190.1,109.9,201.9,109.9z" />
    </g>
    <path class="st1" d="M247.7,175.7c-23.6,0-42.9-19.2-42.9-42.9s19.2-42.9,42.9-42.9s42.9,19.2,42.9,42.9S271.3,175.7,247.7,175.7z
		 M247.7,91.6c-22.7,0-41.2,18.5-41.2,41.2c0,22.7,18.5,41.2,41.2,41.2s41.2-18.5,41.2-41.2C288.9,110.1,270.4,91.6,247.7,91.6z" />
    <g class="st1">
      <path class="st2" d="M247.7,170.8c-21,0-37.9-17-37.9-38c0-21,17-38.1,38-38c21,0,37.9,17,37.9,38
			C285.6,153.8,268.6,170.8,247.7,170.8z M231.1,108c0,0.3,0,0.6,0,0.9c0,8.6,0,17.1,0,25.6c0,1.2,0.1,2.5,0.2,3.8
			c0.9,5.6,4,9.4,9.4,11.1c2.1,0.6,4.2,0.8,6.4,0.8c0.6,0,1.2,0,1.9,0c0,2.9,0,5.7,0,8.5c4.1,0,8.2,0,12.3,0c0-10.3,0-20.5,0-30.7
			c-4.1,0-8.1,0-12.3,0c0,3.3,0,6.6,0,10c-0.7-0.1-1.3-0.1-1.9-0.2c-1.4-0.2-2.2-1.1-2.4-2.5c-0.1-0.8-0.2-1.6-0.2-2.5
			c0-8,0-16,0-23.9c0-0.3,0-0.5,0-0.8C240,108,235.6,108,231.1,108z M255.2,123.8c0.3,0,0.8-0.1,1.3-0.2c2.3-0.4,4.1-2,4.6-4.1
			c0.5-2.2-0.4-4.3-2.4-5.7c-2.6-1.8-6.2-1.4-8.4,0.9c-2.2,2.4-1.9,6,0.8,7.9C252.3,123.4,253.6,123.7,255.2,123.8z" />
    </g>
    <g class="st1">
      <path class="st2" d="M249.1,150.2c0-4.1,0-8.1,0-12.1c1.2,0,2.4,0,3.6,0c0,0.2,0,0.4,0,0.6c0,3.6,0,7.2,0,10.8
			c0,0.5-0.1,0.7-0.7,0.7C251.1,150.1,250.1,150.2,249.1,150.2z" />
    </g>
    <g class="st1">
      <path d="M313.9,153.6c2.3,0,4.5,0,6.8,0c0,1.5,0,2.9,0,4.3c-6.1,0-12.2,0-18.4,0c0-1.4,0-2.8,0-4.3c2.3,0,4.5,0,6.8,0
			c0-13.2,0-26.3,0-39.5c-2.3,0-4.5,0-6.8,0c0-1.4,0-2.8,0-4.1c6.1,0,12.2,0,18.4,0c0,1.4,0,2.7,0,4.1c-2.3,0-4.5,0-6.8,0
			C313.9,127.3,313.9,140.4,313.9,153.6z" />
    </g>
    <g class="st1">
      <path d="M349.1,109.9c1.3,0.1,2.6,0.2,3.9,0.4c2.2,0.3,4.3,0.8,6.2,1.9c4.1,2.4,6.4,5.9,6.4,10.6c0.1,4.7-2.2,8.2-6.2,10.5
			c-1.1,0.7-2.4,1.1-3.6,1.6c-0.2,0.1-0.4,0.1-0.7,0.2c3.9,7.6,7.7,15.1,11.6,22.7c-1.7,0-3.2,0-4.8,0c-0.2,0-0.4-0.3-0.5-0.6
			c-3.4-6.5-6.8-12.9-10.1-19.5c-0.7-1.3-1.4-1.8-2.9-1.8c-3.5,0.1-6.9,0-10.4,0c-0.3,0-0.5,0-0.9,0c0,7.3,0,14.5,0,21.8
			c-1.6,0-3.2,0-4.7,0c0-16,0-32,0-48C338,109.9,343.5,109.9,349.1,109.9z M337.2,132c0.3,0,0.5,0,0.7,0c3.1,0,6.1,0,9.2,0
			c2.6,0,5.1-0.4,7.5-1.2c6.5-2,7.1-9.9,3.7-13.5c-2-2.1-4.5-3-7.3-3.1c-4.5-0.2-9-0.1-13.4-0.1c-0.1,0-0.2,0-0.4,0.1
			C337.2,120.1,337.2,126,337.2,132z" />
    </g>
    <g class="st1">
      <path d="M394.4,109.9c0.8,0,1.6,0,2.5,0c0.2,0,0.4,0.1,0.5,0.1c4.7,0.4,8.5,2.5,11.6,5.9c3.3,3.7,5,8.2,5.8,13.1
			c0.3,1.7,0.4,3.4,0.6,5.2c0,0.6,0,1.1,0,1.6c0,0.5-0.1,0.9-0.1,1.4c-0.2,4.1-1.2,8-3.1,11.6c-2.5,4.9-6.2,8.6-11.7,10.1
			c-1.3,0.4-2.7,0.6-4.1,0.9c-0.7,0-1.4,0-2.1,0c-0.2,0-0.5-0.1-0.7-0.1c-3.3-0.3-6.2-1.3-8.9-3.3c-3.4-2.5-5.8-5.8-7.2-9.7
			c-3.4-9.3-2.8-18.5,1.8-27.3c2.4-4.6,6.2-7.4,11.1-8.8C391.7,110.3,393,110.1,394.4,109.9z M380.7,134.9c-0.1,0-0.1,0-0.2,0
			c0.3,2.4,0.4,4.7,0.8,7.1c0.7,4.1,2.4,7.7,5.7,10.4c3.8,3.2,8.2,3.9,12.8,2.1c4.6-1.8,7.4-5.3,8.9-9.9c1.7-5.3,1.7-10.7,0.8-16.1
			c-0.6-3.7-2-7.1-4.5-10c-4-4.7-10.9-5.8-16.2-2.6c-3.5,2.2-5.7,5.3-6.9,9.2C381,128.3,380.7,131.6,380.7,134.9z" />
    </g>
    <g class="st1">
      <path d="M459.4,109.9c1.5,0,3,0,4.5,0c0,16,0,32,0,48c-1.4,0-2.6,0-3.9,0c-0.5,0-0.8-0.1-1.1-0.6c-8.5-14.1-17-28.2-25.5-42.4
			c-0.1-0.2-0.2-0.4-0.4-0.6c0,0-0.1,0-0.1,0.1c0,14.5,0,29,0,43.4c-1.6,0-3.1,0-4.6,0c0-0.3,0-0.5,0-0.7c0-15.5,0-31,0-46.5
			c0-0.2,0.1-0.5,0.1-0.7c2.4,0,4.8,0,7.1,0c7.9,13,15.8,26,23.6,39c0,0,0.1,0,0.1-0.1c0-0.3,0-0.5,0-0.8c0-12.4,0-24.8,0-37.2
			C459.3,110.5,459.4,110.2,459.4,109.9z" />
    </g>
    <g class="st1">
      <g>
        <polygon points="191.7,183 194.8,183 196.2,192.6 204.8,183.1 208.7,183 194.3,198.8 			" />
        <g>
          <polygon points="229.5,186.5 229.7,186 223.6,186 222.3,189.4 231.6,189.4 228,198.7 215.5,198.7 216.9,195.3 220.1,195.3 
					219.9,195.8 226,195.8 227.3,192.4 218,192.4 221.6,183 234,183 232.7,186.5 				" />
        </g>
        <g>
          <polygon points="172,183 175.3,183 168.9,198.7 166.1,198.7 162.4,190.7 159.2,198.7 156,198.7 162.3,182.9 167.4,194.5 				" />
        </g>
        <polygon points="212.2,183.1 215.4,183.1 209.2,198.7 206,198.7 			" />
        <polygon points="239.6,183.1 242.8,183.1 236.7,198.7 233.5,198.7 			" />
        <g>
          <polygon points="277.2,183 280.4,183 274,198.7 271.2,198.7 267.6,190.7 264.4,198.7 261.2,198.7 267.5,182.9 272.5,194.5 				
					" />
        </g>
        <path d="M115.6,198.7l1.8-4.5H108l1.1-3h9.5l3.3-8.3h18l-4.5,11.2h-14.8l-1.8,4.5L115.6,198.7L115.6,198.7z M133.3,191.3l2.2-5.5
				H124l-2.2,5.5H133.3z" />
        <path d="M135.5,198.7l15-16.3l2.6,16.3H150l-0.6-3.3h-7l-3,3.3L135.5,198.7z M149,192.4l-0.4-3.6l-3.3,3.6L149,192.4z" />
        <path d="M171.5,198.7l15-16.3l2.6,16.3H186l-0.6-3.3h-7l-3,3.3L171.5,198.7z M185,192.4l-0.4-3.6l-3.3,3.6L185,192.4z" />
        <path d="M242.7,198.7l6.3-15.7h13l-6.2,15.7H242.7z M247,195.8h6.6l3.9-9.8H251L247,195.8z" />
      </g>
      <g>
        <path d="M287.9,192.2c0-5.2,4.4-9.8,9.8-9.8c3,0,5.1,1.4,6.3,3.5l-2.4,1.6c-1-1.5-2.1-2.4-4.3-2.4c-3.5,0-6.5,3.3-6.5,7.1
				c0,2.7,1.8,4.4,4.4,4.4c1.8,0,3-0.7,4.3-1.9l1.9,1.9c-1.5,1.5-3.4,2.6-6.2,2.6C291,199.1,287.9,196.5,287.9,192.2z" />
        <path d="M304.2,192c0-4.9,4-9.6,9.6-9.6c4.3,0,7.3,3.1,7.3,7.1c0,4.9-4,9.6-9.6,9.6C307.1,199.1,304.2,196,304.2,192z
				 M318.1,189.6c0-2.7-1.7-4.6-4.6-4.6c-3.7,0-6.4,3.6-6.4,6.9c0,2.7,1.7,4.6,4.6,4.6C315.5,196.5,318.1,192.9,318.1,189.6z" />
        <path d="M326.6,182.6h2.9l2.8,7.6l6.9-7.6h3.3l-4.3,16.2h-2.9l3.1-11.6l-7.1,7.6h-0.1l-3-7.6l-3.1,11.6h-2.8L326.6,182.6z" />
        <path d="M346.6,182.6h5.1c2.2,0,3.8,0.5,4.9,1.6c0.8,0.8,1.2,1.9,1.2,3.2c0,3.9-3.3,6.1-7.9,6.1h-3.4l-1.4,5.2h-2.9L346.6,182.6z
				 M350,191c3,0,4.8-1.2,4.8-3.4c0-0.6-0.2-1.2-0.6-1.6c-0.5-0.6-1.4-0.8-2.6-0.8h-2.9l-1.5,5.8L350,191L350,191z" />
        <path d="M366.5,182.5h2.7l2.8,16.3h-2.9l-0.6-3.9h-7.6l-2.7,3.9H355L366.5,182.5z M368.1,192.4l-1-6.5l-4.5,6.5H368.1z" />
        <path d="M378.6,182.6h2.6l5.5,11.4l3.1-11.4h2.8l-4.3,16.2h-2.4l-5.7-11.8l-3.1,11.8h-2.8L378.6,182.6z" />
        <path d="M398,192.4l-3.6-9.8h3.1l2.5,7.3l6.4-7.3h3.5l-9.1,10.1l-1.6,6.1h-2.8L398,192.4z" />
      </g>
      <g>
        <path d="M94,182.5h2.7l2.8,16.3h-2.9l-0.6-3.9h-7.6l-2.7,3.9h-3.1L94,182.5z M95.6,192.4l-1-6.5l-4.5,6.5H95.6z" />
      </g>
    </g>
  </g>
  <g class="st0">
    <g class="st1">
      <path class="st3" d="M356.4,117.4c-15.9-25.4-58.2-43.6-107.7-43.6c-49.6,0-91.9,18.2-107.7,43.7h8.4
			c16.3-21.4,55.3-36.8,99.4-36.8c44.1,0,83,15.4,99.3,36.8H356.4z M348.1,161.8c-16.4,21.4-55.3,36.8-99.3,36.8
			c-44.1,0-83-15.4-99.3-36.8H141c15.9,25.4,58.2,43.6,107.7,43.6c49.5,0,91.8-18.2,107.7-43.6L348.1,161.8z" />
    </g>
    <g class="st1">
      <path class="st3" d="M289.5,161.8c-9.6,8.5-24.5,14-40.8,14s-31.2-5.6-40.8-14l-9.7,0c10.3,12.5,29.1,20.9,50.5,20.9
			s40.1-8.4,50.5-20.9H289.5z M299.2,117.3c-10.3-12.5-29.1-20.8-50.4-20.8c-21.4,0-40.1,8.4-50.5,20.9h9.7c9.6-8.5,24.5-14,40.8-14
			c16.3,0,31.1,5.5,40.8,14L299.2,117.3L299.2,117.3z" />
    </g>
    <g class="st1">
      <path class="st3" d="M415.2,52.9H78.8v173.3h339.8V52.9H415.2z M411.8,59.8c0,6.4,0,153.2,0,159.6c-6.6,0-319.4,0-326.1,0
			c0-6.4,0-153.2,0-159.6C92.3,59.8,405.1,59.8,411.8,59.8z" />
    </g>
    <g class="st1">
      <path class="st4" d="M104,150.8V127h20.4c3.6,0,5.4,1.5,5.4,4.6v5.3c0,3.1-1.8,4.6-5.3,4.6h-14.9v9.3L104,150.8L104,150.8z
			 M121.9,131h-12.5v6.4h12.5c0.9,0,1.5-0.1,1.8-0.3c0.5-0.3,0.7-0.8,0.7-1.6V133c0-0.8-0.2-1.4-0.7-1.6
			C123.4,131.1,122.8,131,121.9,131z" />
      <path class="st4" d="M141.2,150.8l13.5-23.8h5.4l13.6,23.8h-6.2l-2.9-5.2h-15.1l-2.8,5.2H141.2z M151.8,141.3h10.4l-5.1-9.7
			L151.8,141.3z" />
      <path class="st4" d="M188.7,150.8V127h3.8l16.8,14c1.2,1,2.1,1.9,2.7,2.6c-0.1-2.2-0.2-3.6-0.2-4.1V127h5v23.8H213l-17.5-14.7
			c-0.7-0.6-1.4-1.3-2-1.9c0.1,1.5,0.2,2.8,0.2,3.8v12.9L188.7,150.8L188.7,150.8z" />
      <path class="st4" d="M231.8,150.8l13.5-23.8h5.4l13.6,23.8H258l-2.9-5.2h-15.1l-2.8,5.2H231.8z M242.4,141.3h10.4l-5.1-9.7
			L242.4,141.3z" />
      <path class="st4" d="M279.4,150.8V127h5.5v19.3h17.8v4.5L279.4,150.8L279.4,150.8z" />
      <path class="st4" d="M323.9,127v19.3h15.8V127h5.5v18.2c0,2.2-0.4,3.7-1.2,4.5c-0.8,0.8-2.4,1.1-4.7,1.1h-15.1
			c-2.3,0-3.8-0.4-4.7-1.1c-0.8-0.8-1.2-2.3-1.2-4.5V127C318.4,127,323.9,127,323.9,127z" />
      <path class="st4" d="M361.3,150.8l11.3-12.2L361.1,127h7.3l7.6,8.1l7.2-8.1h6.4l-10.4,10.9l12.8,12.9h-7.5l-8.7-9.2l-8,9.2
			L361.3,150.8L361.3,150.8z" />
    </g>
    <g class="st1">
      <path class="st4" d="M398.6,201.7c0.8,0,1.6,0.1,2.3,0.4s1.4,0.7,1.9,1.3c0.5,0.6,1,1.2,1.2,1.9c0.3,0.7,0.4,1.4,0.4,2.2
			c0,0.8-0.1,1.6-0.4,2.3c-0.3,0.7-0.7,1.3-1.3,1.9c-0.6,0.6-1.2,1-1.9,1.3s-1.5,0.4-2.2,0.4c-0.8,0-1.5-0.1-2.2-0.5
			c-0.7-0.3-1.4-0.7-1.9-1.3c-0.5-0.6-1-1.2-1.2-1.9c-0.3-0.7-0.4-1.4-0.4-2.2c0-0.5,0.1-1.1,0.2-1.6c0.1-0.5,0.4-1,0.6-1.5
			c0.5-0.9,1.2-1.6,2.1-2.1C396.6,201.9,397.6,201.7,398.6,201.7z M398.7,202.6c-0.7,0-1.3,0.1-1.9,0.4c-0.6,0.2-1.1,0.6-1.5,1
			c-0.5,0.5-0.8,1-1.1,1.6s-0.4,1.2-0.4,1.9c0,0.7,0.1,1.3,0.4,1.9c0.2,0.6,0.6,1.1,1,1.6c0.5,0.5,1,0.8,1.6,1.1
			c0.6,0.3,1.2,0.4,1.9,0.4c0.6,0,1.2-0.1,1.8-0.4s1.1-0.6,1.6-1.1c0.5-0.4,0.8-0.9,1.1-1.5c0.2-0.6,0.4-1.2,0.4-1.8
			c0-0.7-0.1-1.3-0.4-1.9s-0.6-1.1-1-1.6c-0.5-0.5-1-0.9-1.6-1.1C400,202.8,399.3,202.6,398.7,202.6z M396.2,204.2h2.5
			c0.9,0,1.6,0.2,2.1,0.5s0.7,0.8,0.7,1.4c0,0.4-0.1,0.8-0.4,1.1c-0.2,0.3-0.6,0.5-1,0.6l1.5,2.9h-1.8l-1.2-2.7h-0.8v2.7h-1.6
			L396.2,204.2L396.2,204.2z M397.8,205.2v1.9h0.8c0.5,0,0.8-0.1,1-0.2s0.3-0.4,0.3-0.7c0-0.3-0.1-0.6-0.4-0.7
			c-0.2-0.2-0.6-0.2-1.1-0.2L397.8,205.2L397.8,205.2z" />
    </g>
    <g class="st1">
      <g>
        <polygon class="st4" points="203,240.9 205.6,240.9 206.8,249 214.1,241 217.3,240.9 205.2,254.3 			" />
        <g>
          <polygon class="st4" points="234.9,243.9 235.1,243.5 230,243.5 228.9,246.3 236.8,246.3 233.7,254.2 223.1,254.2 224.3,251.3 
					227,251.3 226.9,251.7 232,251.7 233.1,248.8 225.2,248.8 228.2,240.9 238.8,240.9 237.7,243.9 				" />
        </g>
        <g>
          <polygon class="st4" points="186.4,240.9 189.1,240.9 183.7,254.2 181.4,254.2 178.3,247.4 175.6,254.2 172.9,254.2 
					178.2,240.9 182.5,250.6 				" />
        </g>
        <polygon class="st4" points="220.3,241 223,241 217.8,254.2 215.1,254.2 			" />
        <polygon class="st4" points="243.5,241 246.2,241 241,254.2 238.3,254.2 			" />
        <g>
          <polygon class="st4" points="275.2,240.9 278,240.9 272.6,254.2 270.2,254.2 267.1,247.4 264.5,254.2 261.7,254.2 267,240.8 
					271.3,250.6 				" />
        </g>
        <path class="st4" d="M138.7,254.2l1.5-3.8h-7.9l0.9-2.5h8.1l2.8-7h15.2l-3.8,9.5h-12.5l-1.5,3.8L138.7,254.2L138.7,254.2z
				 M153.7,247.9l1.9-4.7h-9.8l-1.8,4.7H153.7z" />
        <path class="st4" d="M155.5,254.2l12.7-13.8l2.2,13.7h-2.6l-0.5-2.8h-5.9l-2.5,2.8L155.5,254.2z M166.9,248.9l-0.4-3.1l-2.8,3
				L166.9,248.9z" />
        <path class="st4" d="M185.9,254.2l12.7-13.8l2.2,13.7h-2.6l-0.5-2.8h-5.9l-2.5,2.8L185.9,254.2z M197.3,248.9l-0.4-3.1l-2.8,3
				L197.3,248.9z" />
        <path class="st4" d="M246.1,254.2l5.3-13.3h11l-5.3,13.3H246.1z M249.8,251.7h5.6l3.3-8.3h-5.6L249.8,251.7z" />
      </g>
      <g>
        <path class="st4" d="M284.3,248.7c0-4.4,3.7-8.3,8.3-8.3c2.6,0,4.3,1.1,5.3,2.9l-2,1.4c-0.8-1.2-1.8-2.1-3.6-2.1
				c-2.9,0-5.5,2.8-5.5,6c0,2.2,1.5,3.7,3.7,3.7c1.5,0,2.6-0.6,3.6-1.6l1.6,1.6c-1.3,1.2-2.9,2.2-5.2,2.2
				C286.9,254.5,284.3,252.3,284.3,248.7z" />
        <path class="st4" d="M298.1,248.5c0-4.1,3.4-8.1,8.1-8.1c3.7,0,6.1,2.6,6.1,6c0,4.1-3.4,8.1-8.1,8.1
				C300.6,254.5,298.1,251.9,298.1,248.5z M309.9,246.5c0-2.2-1.4-3.9-3.9-3.9c-3.2,0-5.4,3-5.4,5.8c0,2.3,1.4,3.9,3.9,3.9
				C307.7,252.3,309.9,249.3,309.9,246.5z" />
        <path class="st4" d="M317,240.6h2.4l2.4,6.5l5.9-6.5h2.8l-3.7,13.7h-2.4l2.6-9.8l-6,6.4h-0.1l-2.5-6.4l-2.6,9.8h-2.4L317,240.6z" />
        <path class="st4" d="M333.9,240.6h4.3c1.9,0,3.2,0.4,4.1,1.4c0.7,0.7,1,1.6,1,2.7c0,3.3-2.8,5.2-6.7,5.2h-2.9l-1.2,4.4h-2.4
				L333.9,240.6z M336.8,247.7c2.5,0,4.1-1.1,4.1-2.9c0-0.6-0.2-1-0.5-1.4c-0.5-0.5-1.2-0.7-2.2-0.7h-2.4l-1.3,4.9H336.8z" />
        <path class="st4" d="M350.7,240.5h2.3l2.3,13.8h-2.5l-0.5-3.3h-6.5l-2.3,3.3H341L350.7,240.5z M352.1,248.8l-0.9-5.5l-3.8,5.5
				H352.1z" />
        <path class="st4" d="M360.9,240.6h2.2l4.6,9.7l2.6-9.7h2.4l-3.7,13.7h-2l-4.8-9.9l-2.6,9.9h-2.4L360.9,240.6z" />
        <path class="st4" d="M377.4,248.8l-3-8.2h2.6l2.1,6.2l5.4-6.2h3l-7.7,8.5l-1.4,5.2h-2.4L377.4,248.8z" />
      </g>
      <g>
        <path class="st4" d="M120.4,240.5h2.3l2.3,13.8h-2.5l-0.5-3.3h-6.5l-2.3,3.3h-2.6L120.4,240.5z M121.8,248.8l-0.9-5.5l-3.8,5.5
				H121.8z" />
      </g>
    </g>
  </g>
  <g class="st0">
    <g class="st1">
      <path d="M199.2,110.2c0.2-5.5,0.3-8.1,2.1-10.6c1.7-2.4,7.9-3.5,15.7-4c7.3-0.4,22.4-0.7,30.9-0.8s23,0.4,29.8,0.8
			c6.8,0.4,12.7,1,15.2,3c2.7,2.3,3.2,7.9,3.2,11.6h-4.6c0,0,0-3.7-0.2-4.8c-0.2-1.1-0.4-4-4.2-4.4c-3.8-0.4-20.4-1.6-24.9-1.7
			c-6.7-0.1-23.9,0-29.6,0.1c-4.3,0.1-21.2,1-23.9,1.4c-2.3,0.3-4.3,1.5-4.6,4c-0.2,2.4-0.3,5.2-0.3,5.2L199.2,110.2L199.2,110.2z" />
    </g>
    <g class="st1">
      <path d="M295.9,154.7c-0.2,5.5-0.3,8.1-2.1,10.6c-1.7,2.4-8,3.5-15.7,4c-7.3,0.4-22.4,0.7-30.9,0.8c-8.5,0.1-23-0.4-29.8-0.8
			c-6.8-0.4-12.7-1-15.2-3c-2.7-2.3-3.2-7.9-3.2-11.6h4.6c0,0,0,3.7,0.2,4.8c0.2,1.1,0.4,4,4.2,4.4c3.8,0.4,20.4,1.6,24.9,1.7
			c6.7,0.1,23.8,0,29.6-0.1c4.3-0.1,21.2-1,23.9-1.4c2.3-0.3,4.3-1.5,4.5-4.1c0.2-2.4,0.3-5.2,0.3-5.2L295.9,154.7L295.9,154.7z" />
    </g>
    <g class="st1">
      <path d="M451,50.6c3.7,0,6.8,2.9,6.8,6.8c0,3.9-3.1,6.8-6.8,6.8c-3.7,0-6.8-2.9-6.8-6.8C444.2,53.5,447.3,50.6,451,50.6 M451,63.2
			c3.1,0,5.6-2.5,5.6-5.8c0-3.2-2.4-5.8-5.6-5.8c-3.2,0-5.6,2.5-5.6,5.8C445.5,60.7,447.9,63.2,451,63.2 M448.4,53.4h3.1
			c1.9,0,2.8,0.7,2.8,2.3c0,1.4-0.9,2-2.1,2.2l2.3,3.5h-1.3l-2.2-3.4h-1.3v3.4h-1.2L448.4,53.4L448.4,53.4z M449.6,56.9h1.3
			c1.1,0,2.1,0,2.1-1.3c0-1-0.9-1.2-1.7-1.2h-1.6V56.9z" />
    </g>
    <g class="st1">
      <path d="M440.3,51.5H58v162.8h382.3v-5.2V51.5z M63.2,56.7h371.9v152.4H63.2V56.7z" />
    </g>
    <g class="st1">
      <path d="M363,196.1h-231v-41.5h5.2v36.3h220.6v-36.3h5.2L363,196.1L363,196.1z M363,110.1h-5.2V73.7H137.1v36.3h-5.2V68.5H363
			L363,110.1L363,110.1z" />
    </g>
    <g class="st1">
      <path d="M87.7,147.6l4.2-9.6h-19l1.9-4.8h19.2l7-16.6h36.4l-8.8,21.4H97.9l-4.2,9.6L87.7,147.6L87.7,147.6z M124.3,133.2l5.2-12
			h-24.7l-4.9,12H124.3z" />
    </g>
    <g class="st1">
      <path d="M130.4,147.6l29.2-30.8l5.9,30.8h-6.3l-1.2-7.7h-13.4l-7.3,7.7H130.4z M148.8,135.6h8.5L156,128L148.8,135.6z" />
    </g>
    <g class="st1">
      <path d="M204.8,147.5l29.3-30.7l5.9,30.8l-6.3,0l-1.1-7.7h-13.4l-7.2,7.7L204.8,147.5L204.8,147.5z M223.2,135.6h8.5l-1.3-7.6
			L223.2,135.6z" />
    </g>
    <g class="st1">
      <polygon points="170.7,147.5 184.8,116.1 194.8,138.3 204.3,116.6 210.3,116.6 197.3,147.6 192.2,147.6 184.3,131.6 176.9,147.5 
					" />
    </g>
    <g class="st1">
      <polygon points="388.9,147.5 403,116.1 413,138.3 422.5,116.6 428.5,116.6 415.5,147.6 410.5,147.6 402.6,131.6 395.2,147.5 		" />
    </g>
    <g class="st1">
      <polygon points="246.1,116.6 251.4,147.6 280.2,116.7 273.6,116.7 254.7,136.4 251.4,116.6 		" />
    </g>
    <g class="st1">
      <polygon points="275.3,147.6 288.8,116.6 294.5,116.6 281.8,147.6 		" />
    </g>
    <g class="st1">
      <polygon points="330.9,147.6 344.4,116.6 350.1,116.6 337.4,147.6 		" />
    </g>
    <g class="st1">
      <polygon points="293.6,147.6 296.4,141.7 302.3,141.7 301.9,142.7 315.1,142.7 318.9,134.4 299.1,134.4 306.4,116.6 332.3,116.6 
			329.6,123.5 323.9,123.5 324.5,121.9 310.7,121.9 307.6,129.8 326.8,129.8 319.6,147.6 		" />
    </g>
    <g class="st1">
      <path d="M363.4,116.6h25.8l-12.6,31h-25.8L363.4,116.6z M359.1,142.5h13.8l8.5-20.6h-14L359.1,142.5z" />
    </g>
    <g class="st1">
      <path d="M199.2,110.2c0.2-5.5,0.3-8.1,2.1-10.6c1.7-2.4,7.9-3.5,15.7-4c7.3-0.4,22.4-0.7,30.9-0.8s23,0.4,29.8,0.8
			c6.8,0.4,12.7,1,15.2,3c2.7,2.3,3.2,7.9,3.2,11.6h-4.6c0,0,0-3.7-0.2-4.8c-0.2-1.1-0.4-4-4.2-4.4c-3.8-0.4-20.4-1.6-24.9-1.7
			c-6.7-0.1-23.9,0-29.6,0.1c-4.3,0.1-21.2,1-23.9,1.4c-2.3,0.3-4.3,1.5-4.6,4c-0.2,2.4-0.3,5.2-0.3,5.2L199.2,110.2L199.2,110.2z" />
    </g>
    <g class="st1">
      <path d="M295.9,154.7c-0.2,5.5-0.3,8.1-2.1,10.6c-1.7,2.4-8,3.5-15.7,4c-7.3,0.4-22.4,0.7-30.9,0.8c-8.5,0.1-23-0.4-29.8-0.8
			c-6.8-0.4-12.7-1-15.2-3c-2.7-2.3-3.2-7.9-3.2-11.6h4.6c0,0,0,3.7,0.2,4.8c0.2,1.1,0.4,4,4.2,4.4c3.8,0.4,20.4,1.6,24.9,1.7
			c6.7,0.1,23.8,0,29.6-0.1c4.3-0.1,21.2-1,23.9-1.4c2.3-0.3,4.3-1.5,4.5-4.1c0.2-2.4,0.3-5.2,0.3-5.2L295.9,154.7L295.9,154.7z" />
    </g>
    <g class="st1">
      <polygon points="149.1,236.7 152.2,236.7 150.6,231.6 		" />
      <path d="M184,230.2h-1.2v9.1h1.2c1,0,1.8-0.4,2.3-1.1c0.5-0.7,0.8-1.8,0.8-3.2v-0.6c0-1.4-0.3-2.5-0.8-3.2
			C185.8,230.6,185.1,230.2,184,230.2z" />
      <path d="M126.1,230.2h-2.3v4.2h2.3c0.7,0,1.2-0.2,1.6-0.5c0.4-0.3,0.5-0.8,0.5-1.4c0-0.7-0.2-1.2-0.6-1.6
			C127.2,230.5,126.7,230.2,126.1,230.2z" />
      <path d="M261.9,230.1c-1.8,0-2.7,1.3-2.8,4l0,1.1c0,1.4,0.2,2.5,0.7,3.3c0.5,0.8,1.2,1.1,2.1,1.1c0.9,0,1.6-0.4,2-1.1
			c0.5-0.8,0.7-1.8,0.7-3.2v-0.7c0-1.4-0.2-2.5-0.7-3.3C263.5,230.5,262.8,230.1,261.9,230.1z" />
      <path d="M209.5,230.2h-2.2v4h2.2c0.7,0,1.2-0.2,1.5-0.5c0.3-0.4,0.5-0.8,0.5-1.5s-0.2-1.1-0.5-1.5
			C210.7,230.4,210.2,230.2,209.5,230.2z" />
      <path d="M58,221.6v27.2h382.3v-27.2H58z M89.7,240.3c-0.5,0.6-1.3,1.1-2.4,1.4s-2.2,0.6-3.4,0.6c-1.9,0-3.4-0.6-4.6-1.8
			s-1.8-2.8-1.8-4.9l0-1.3c0-1.4,0.2-2.7,0.8-3.8s1.2-1.9,2.2-2.5c0.9-0.6,2-0.9,3.3-0.9c1.8,0,3.2,0.4,4.2,1.2s1.6,2.1,1.8,3.7
			h-3.4c-0.1-0.8-0.4-1.4-0.8-1.7s-1-0.5-1.7-0.5c-0.9,0-1.6,0.4-2,1.1s-0.7,1.8-0.7,3.2v0.9c0,1.4,0.2,2.5,0.7,3.3
			c0.5,0.7,1.3,1.1,2.3,1.1c0.9,0,1.6-0.2,2-0.6v-2.3h-2.4v-2.4h5.9L89.7,240.3L89.7,240.3z M106.6,242.1h-3.8l-2.6-5.1h-1.9v5.1
			h-3.5v-14.6h5.7c1.7,0,3.1,0.4,4.1,1.1c1,0.8,1.5,1.9,1.5,3.2c0,1-0.2,1.9-0.6,2.5s-1.1,1.2-1.9,1.6l3,5.9L106.6,242.1
			L106.6,242.1z M114.7,242.1h-3.5v-14.6h3.5V242.1z M130.1,235.9c-1,0.9-2.4,1.3-4.2,1.3h-2.2v4.9h-3.5v-14.6h5.8
			c1.1,0,2.1,0.2,3,0.6c0.9,0.4,1.5,1,2,1.8s0.7,1.6,0.7,2.6C131.7,233.9,131.1,235,130.1,235.9z M153.9,242.1l-0.9-2.7h-4.8
			l-0.8,2.7h-3.8l5.3-14.6h3.3l5.4,14.6H153.9z M173.9,242.1h-3.5l-5.2-9.1v9.1h-3.5v-14.6h3.5l5.1,9.1v-9.1h3.5L173.9,242.1
			L173.9,242.1z M190.8,235.1c0,1.3-0.3,2.5-0.8,3.6c-0.6,1.1-1.4,1.9-2.4,2.5c-1,0.6-2.2,0.9-3.4,0.9h-4.8v-14.6h4.7
			c1.3,0,2.4,0.3,3.5,0.9s1.8,1.4,2.4,2.5c0.6,1.1,0.9,2.2,0.9,3.6V235.1z M215.5,242.1h-3.8l-2.6-5.1h-1.9v5.1h-3.5v-14.6h5.7
			c1.7,0,3.1,0.4,4.1,1.1c1,0.8,1.5,1.9,1.5,3.2c0,1-0.2,1.9-0.6,2.5s-1.1,1.2-1.9,1.6l3,5.9L215.5,242.1L215.5,242.1z M230.1,230.2
			h-6.5v3.1h5.5v2.6h-5.5v3.5h6.5v2.7h-10v-14.6h10L230.1,230.2L230.1,230.2z M250.6,242.1h-3.5v-3.4l0.3-6.9l-3.5,10.4h-2.3
			l-3.5-10.4l0.3,7v3.4h-3.5v-14.6h4.6l3.2,10.1l3.2-10.1h4.6L250.6,242.1L250.6,242.1z M268.2,235.1c0,1.4-0.3,2.7-0.8,3.8
			c-0.5,1.1-1.3,1.9-2.2,2.5c-1,0.6-2.1,0.9-3.3,0.9s-2.3-0.3-3.3-0.9c-1-0.6-1.7-1.4-2.2-2.4c-0.5-1.1-0.8-2.3-0.8-3.6v-0.8
			c0-1.4,0.3-2.7,0.8-3.8c0.5-1.1,1.3-1.9,2.2-2.5c1-0.6,2.1-0.9,3.3-0.9c1.2,0,2.3,0.3,3.3,0.9c1,0.6,1.7,1.4,2.2,2.5
			c0.5,1.1,0.8,2.3,0.8,3.7V235.1z M284.1,230.2h-4.4v11.8h-3.5v-11.8h-4.3v-2.7h12.2L284.1,230.2L284.1,230.2z M298.5,230.2H292
			v3.1h5.5v2.6H292v3.5h6.5v2.7h-10v-14.6h10L298.5,230.2L298.5,230.2z M315.2,232.5c0.4,0.3,1.1,0.6,2.1,0.9c1,0.3,1.8,0.7,2.5,1
			c1.6,0.9,2.4,2.2,2.4,3.8c0,1.3-0.5,2.3-1.4,3s-2.3,1.1-4,1.1c-1.2,0-2.2-0.2-3.2-0.6c-1-0.4-1.7-1-2.2-1.7s-0.7-1.6-0.7-2.5h3.5
			c0,0.8,0.2,1.4,0.6,1.7s1.1,0.6,2,0.6c0.6,0,1-0.1,1.4-0.4c0.3-0.2,0.5-0.6,0.5-1.1c0-0.5-0.2-0.9-0.5-1.2c-0.4-0.3-1-0.6-1.9-0.9
			s-1.7-0.6-2.2-0.9c-1.9-0.9-2.8-2.2-2.8-3.8c0-0.8,0.2-1.5,0.7-2.1c0.5-0.6,1.1-1.1,2-1.4s1.8-0.5,2.9-0.5c1,0,2,0.2,2.8,0.6
			s1.5,0.9,1.9,1.6s0.7,1.5,0.7,2.4h-3.5c0-0.6-0.2-1.1-0.5-1.4c-0.4-0.3-0.9-0.5-1.5-0.5c-0.6,0-1.1,0.1-1.5,0.4
			c-0.4,0.3-0.5,0.6-0.5,1.1C314.6,231.8,314.8,232.2,315.2,232.5z M333.6,236.9v5.2H330v-5.2l-4.7-9.3h3.8l2.7,6.3l2.7-6.3h3.8
			L333.6,236.9z M345.8,232.5c0.4,0.3,1.1,0.6,2.1,0.9c1,0.3,1.8,0.7,2.5,1c1.6,0.9,2.4,2.2,2.4,3.8c0,1.3-0.5,2.3-1.4,3
			s-2.3,1.1-4,1.1c-1.2,0-2.2-0.2-3.2-0.6c-1-0.4-1.7-1-2.2-1.7s-0.7-1.6-0.7-2.5h3.5c0,0.8,0.2,1.4,0.6,1.7s1.1,0.6,2,0.6
			c0.6,0,1-0.1,1.4-0.4c0.3-0.2,0.5-0.6,0.5-1.1c0-0.5-0.2-0.9-0.5-1.2c-0.4-0.3-1-0.6-1.9-0.9s-1.7-0.6-2.2-0.9
			c-1.9-0.9-2.8-2.2-2.8-3.8c0-0.8,0.2-1.5,0.7-2.1c0.5-0.6,1.1-1.1,2-1.4s1.8-0.5,2.9-0.5c1,0,2,0.2,2.8,0.6s1.5,0.9,1.9,1.6
			s0.7,1.5,0.7,2.4h-3.5c0-0.6-0.2-1.1-0.5-1.4c-0.4-0.3-0.9-0.5-1.5-0.5c-0.6,0-1.1,0.1-1.5,0.4c-0.4,0.3-0.5,0.6-0.5,1.1
			C345.2,231.8,345.4,232.2,345.8,232.5z M369,230.2h-4.4v11.8h-3.5v-11.8h-4.3v-2.7H369L369,230.2L369,230.2z M383.4,230.2h-6.5
			v3.1h5.5v2.6h-5.5v3.5h6.5v2.7h-10v-14.6h10L383.4,230.2L383.4,230.2z M403.9,242.1h-3.5v-3.4l0.3-6.9l-3.5,10.4h-2.3l-3.5-10.4
			l0.3,7v3.4h-3.5v-14.6h4.6l3.2,10.1l3.2-10.1h4.6L403.9,242.1L403.9,242.1z M413.1,232.5c0.4,0.3,1.1,0.6,2.1,0.9
			c1,0.3,1.8,0.7,2.5,1c1.6,0.9,2.4,2.2,2.4,3.8c0,1.3-0.5,2.3-1.4,3s-2.3,1.1-4,1.1c-1.2,0-2.2-0.2-3.2-0.6c-1-0.4-1.7-1-2.2-1.7
			s-0.7-1.6-0.7-2.5h3.5c0,0.8,0.2,1.4,0.6,1.7s1.1,0.6,2,0.6c0.6,0,1-0.1,1.4-0.4c0.3-0.2,0.5-0.6,0.5-1.1c0-0.5-0.2-0.9-0.5-1.2
			c-0.4-0.3-1-0.6-1.9-0.9s-1.7-0.6-2.2-0.9c-1.9-0.9-2.8-2.2-2.8-3.8c0-0.8,0.2-1.5,0.7-2.1c0.5-0.6,1.1-1.1,2-1.4s1.8-0.5,2.9-0.5
			c1,0,2,0.2,2.8,0.6s1.5,0.9,1.9,1.6s0.7,1.5,0.7,2.4h-3.5c0-0.6-0.2-1.1-0.5-1.4c-0.4-0.3-0.9-0.5-1.5-0.5c-0.6,0-1.1,0.1-1.5,0.4
			c-0.4,0.3-0.5,0.6-0.5,1.1C412.5,231.8,412.7,232.2,413.1,232.5z" />
      <path d="M100.6,230.2h-2.2v4h2.2c0.7,0,1.2-0.2,1.5-0.5c0.3-0.4,0.5-0.8,0.5-1.5s-0.2-1.1-0.5-1.5
			C101.7,230.4,101.2,230.2,100.6,230.2z" />
    </g>
  </g>
  <g>
    <path d="M488.2,123.6c4.3,0,7.8,3.4,7.8,7.8c0,4.5-3.6,7.9-7.8,7.9c-4.3,0-7.9-3.4-7.9-7.9C480.3,126.9,483.9,123.6,488.2,123.6z
		 M488.2,138c3.6,0,6.4-2.9,6.4-6.7c0-3.7-2.8-6.6-6.4-6.6c-3.6,0-6.5,2.9-6.5,6.6C481.7,135.2,484.5,138,488.2,138z M485.1,126.8
		h3.5c2.2,0,3.2,0.9,3.2,2.6c0,1.7-1,2.3-2.4,2.5l2.6,4h-1.5L488,132h-1.5v3.9h-1.4L485.1,126.8L485.1,126.8z M486.5,130.9h1.5
		c1.3,0,2.4-0.1,2.4-1.5c0-1.2-1-1.4-2-1.4h-1.9V130.9z" />
    <polygon points="232.4,127.6 240.8,127.6 244.9,153.8 268.5,127.7 278.9,127.7 239.6,170.9 	" />
    <g>
      <polygon points="335.9,137.2 336.5,135.9 319.8,135.9 316.3,145.1 341.8,145.1 331.9,170.7 297.7,170.7 301.5,161.3 310.3,161.3 
			309.8,162.6 326.3,162.6 329.9,153.3 304.5,153.3 314.2,127.7 348.3,127.7 344.7,137.2 		" />
    </g>
    <g>
      <polygon points="178.5,127.7 187.5,127.7 170,170.7 162.4,170.7 152.3,148.7 143.6,170.7 134.8,170.7 152,127.4 165.9,159 		" />
    </g>
    <polygon points="288.6,127.8 297.3,127.8 280.5,170.7 271.7,170.7 	" />
    <polygon points="363.7,127.8 372.4,127.8 355.6,170.7 346.8,170.7 	" />
    <g>
      <polygon points="466.4,127.6 475.4,127.6 457.9,170.6 450.3,170.6 440.2,148.6 431.5,170.6 422.7,170.6 439.9,127.4 453.8,159 		
			" />
    </g>
    <path d="M24.2,170.7l4.8-12.2H3.3l2.9-8.1h26.1l9.1-22.7h49.1l-12.3,30.8H37.7l-4.8,12.2L24.2,170.7L24.2,170.7z M72.6,150.4
		l6.1-15.1l-31.7,0l-6,15.2L72.6,150.4L72.6,150.4z" />
    <path d="M78.6,170.7l41.1-44.6l7,44.5h-8.3l-1.6-9H97.6l-8.2,9L78.6,170.7z M115.5,153.4l-1.2-9.9l-9,9.8L115.5,153.4z" />
    <path d="M177.2,170.7l41.1-44.6l7,44.5h-8.3l-1.6-9h-19.2l-8.2,9L177.2,170.7z M214,153.4l-1.2-9.9l-9,9.8L214,153.4z" />
    <path d="M372,170.7l17.1-43h35.6l-17.1,43H372z M384,162.5h18.1l10.8-26.7h-18.1L384,162.5z" />
  </g>
</svg>