<?xml version="1.0" encoding="utf-8"?>
<!-- Generator: Adobe Illustrator 26.0.1, SVG Export Plug-In . SVG Version: 6.00 Build 0)  -->
<svg version="1.1" id="Layer_1" xmlns="http://www.w3.org/2000/svg" xmlns:xlink="http://www.w3.org/1999/xlink" x="0px" y="0px" viewBox="0 0 500 300" style="enable-background:new 0 0 500 300;" xml:space="preserve">
  <style type="text/css">
	.st0{display:none;}
	.st1{display:inline;fill:#FFFFFF;}
	.st2{display:inline;}
	.st3{fill:#FFFFFF;}
</style>
  <g class="st0">
    <path class="st1" d="M478.84,63.08c5.04,0,9.26,3.98,9.26,9.18c0,5.31-4.22,9.28-9.26,9.28c-5.06,0-9.31-3.98-9.31-9.28
		C469.53,67.06,473.77,63.08,478.84,63.08z M478.84,80.19c4.27,0,7.58-3.41,7.58-7.93c0-4.42-3.31-7.83-7.58-7.83
		c-4.32,0-7.63,3.41-7.63,7.83C471.21,76.79,474.51,80.19,478.84,80.19z M475.23,66.91h4.17c2.57,0,3.78,1.01,3.78,3.09
		c0,1.95-1.24,2.77-2.84,2.94l3.09,4.77h-1.8l-2.94-4.64h-1.78v4.64h-1.68V66.91z M476.91,71.7h1.75c1.48,0,2.84-0.07,2.84-1.78
		c0-1.43-1.23-1.65-2.37-1.65h-2.22V71.7z" />
    <g class="st2">
      <path class="st3" d="M461.81,243.04H34.3V63.14h427.51V243.04z M38.25,239.08h419.6V67.1H38.25V239.08z" />
      <g>
        <polygon class="st3" points="369.69,126.78 365.74,126.78 365.74,90 124.13,90 124.13,126.78 120.18,126.78 120.18,86.05 
				369.69,86.05 			" />
      </g>
      <g>
        <polygon class="st3" points="369.69,219.78 120.18,219.78 120.18,179.05 124.13,179.05 124.13,215.82 365.74,215.82 
				365.74,179.05 369.69,179.05 			" />
      </g>
    </g>
    <g class="st2">
      <path class="st3" d="M300.62,126.78h-2.99c0-1.19,0.01-2.26,0.02-3.22c0.04-3.63,0.06-5.82-0.62-6.6
			c-0.69-0.79-2.9-1.09-6.56-1.58c-1.05-0.14-2.24-0.3-3.56-0.5c-16.73-2.46-66.65-2.11-83.1,0l-1.75,0.22
			c-4.76,0.6-7.63,0.97-8.62,1.94c-0.9,0.88-0.88,3.12-0.85,7.19c0.01,0.78,0.01,1.63,0.01,2.54h-2.99c0-0.91-0.01-1.75-0.01-2.52
			c-0.07-10.33,0.78-10.68,12.09-12.11l1.74-0.22c16.6-2.13,67.01-2.48,83.92,0c1.31,0.19,2.49,0.35,3.53,0.49
			c9.32,1.26,9.87,1.88,9.77,11.17C300.63,124.54,300.62,125.6,300.62,126.78z" />
      <path class="st3" d="M247.12,195.5c-17.4,0-35.1-0.63-43.71-1.73l-1.74-0.22c-11.88-1.5-12.16-2.28-12.09-12.11
			c0.01-0.77,0.01-1.61,0.01-2.52h2.99c0,0.92-0.01,1.76-0.01,2.54c-0.03,4.06-0.04,6.3,0.85,7.19c0.99,0.97,3.86,1.34,8.62,1.94
			l1.75,0.22c16.45,2.11,66.37,2.46,83.1,0c1.33-0.2,2.51-0.35,3.56-0.5c3.66-0.49,5.87-0.79,6.56-1.58
			c0.68-0.78,0.66-2.97,0.62-6.6c-0.01-0.96-0.02-2.03-0.02-3.22h2.99c0,1.18,0.01,2.24,0.02,3.19c0.1,9.29-0.45,9.92-9.77,11.17
			c-1.04,0.14-2.21,0.3-3.53,0.49C279.2,194.96,263.29,195.5,247.12,195.5z" />
    </g>
    <path class="st1" d="M185.4,161.4" />
    <polygon class="st1" points="242.31,134.45 249.62,134.45 253.12,157.02 273.47,134.54 282.48,134.5 248.55,171.77 	" />
    <g class="st2">
      <polygon class="st3" points="331.71,142.74 332.15,141.59 317.74,141.59 314.74,149.53 336.73,149.53 328.22,171.6 298.7,171.6 
			301.97,163.53 309.56,163.53 309.12,164.62 323.42,164.62 326.47,156.6 304.59,156.6 312.94,134.5 342.4,134.5 339.29,142.74 		
			" />
    </g>
    <g class="st2">
      <polygon class="st3" points="195.86,134.5 203.61,134.5 188.5,171.6 181.9,171.6 173.22,152.61 165.69,171.6 158.11,171.6 
			172.95,134.28 184.95,161.56 		" />
    </g>
    <polygon class="st1" points="290.86,134.61 298.39,134.61 283.88,171.6 276.29,171.6 	" />
    <polygon class="st1" points="355.68,134.61 363.21,134.61 348.7,171.6 341.11,171.6 	" />
    <g class="st2">
      <polygon class="st3" points="444.33,134.45 452.08,134.45 436.97,171.55 430.37,171.55 421.69,152.56 414.16,171.55 
			406.58,171.55 421.42,134.23 433.42,161.51 		" />
    </g>
    <path class="st1" d="M244.6,155.23" />
    <path class="st1" d="M62.67,171.6l4.14-10.55H44.61l2.5-6.99h22.52l7.87-19.55h42.4l-10.58,26.56H74.35L70.2,171.6H62.67z
		 M104.47,154.06l5.23-13.07l-27.35-0.01l-5.16,13.08H104.47z" />
    <path class="st1" d="M109.64,171.62l35.45-38.49l6.06,38.41h-7.2l-1.37-7.77h-16.58l-7.09,7.77L109.64,171.62z M141.43,156.68
		l-1.03-8.57l-7.81,8.46L141.43,156.68z" />
    <path class="st1" d="M194.69,171.62l35.45-38.49l6.06,38.41H229l-1.37-7.77h-16.58l-7.09,7.77L194.69,171.62z M226.48,156.68
		l-1.03-8.57l-7.81,8.46L226.48,156.68z" />
    <path class="st1" d="M362.85,171.6l14.8-37.15h30.72l-14.74,37.15H362.85z M373.16,164.56h15.66l9.29-23.08h-15.6L373.16,164.56z" />
  </g>
  <g class="st0">
    <rect x="46.2" y="106.02" class="st1" width="9.85" height="67.49" />
    <path class="st1" d="M66.7,174.19l-3.92-8.62c5.49-1.58,11.88-3.87,11.88-10.73c0-8.44-12.58-15.83-12.58-29.11
		c0-10.11,9.16-18.2,18.86-20.4l2.88,9.32c-5.23,1.41-11.97,4.66-11.97,11.08c0,10.11,12.67,16.62,12.67,29.11
		C84.51,165.39,77.27,171.29,66.7,174.19z" />
    <polygon class="st1" points="91.21,173.51 91.21,106.01 101.07,106.01 101.07,164.71 111.28,164.71 111.28,173.51 	" />
    <path class="st1" d="M152.55,174.24l-14.79-68.96h-2.91l-11.71,54.19h-3.79l-1.94,8.8h3.87l-1.32,5.96h10.48l1.06-5.96h9.6
		l1.06,5.96H152.55z M139.34,159.47h-6.25l3.17-16.74L139.34,159.47" />
    <polygon class="st1" points="185.08,174.98 167.38,140.64 167.38,173.48 157.53,173.48 157.53,104.55 159.97,104.55 177.76,138.88 
		177.76,105.96 187.61,105.96 187.61,174.98 	" />
    <path class="st1" d="M224.25,139.81c0-24.99-6.89-33.8-18.34-33.8h-9.85v67.5h9.85C217.45,173.51,224.25,164.71,224.25,139.81z
		 M214.4,139.81c0,16.1-2.74,24.9-8.49,24.9v-49.89C211.75,114.82,214.4,122.38,214.4,139.81" />
    <path class="st1" d="M252.78,174.22l-3.95-8.61c5.53-1.58,11.96-3.87,11.96-10.74c0-8.45-12.66-15.85-12.66-29.14
		c0-10.12,9.21-18.22,18.98-20.43l2.89,9.33c-5.26,1.41-12.05,4.67-12.05,11.09c0,10.12,12.75,16.64,12.75,29.14
		C270.7,165.43,263.42,171.33,252.78,174.22z" />
    <polygon class="st1" points="293.69,114.8 293.69,173.53 283.87,173.53 283.87,114.8 276.03,114.8 278.23,105.99 300.74,105.99 
		300.74,114.8 	" />
    <path class="st1" d="M320.7,173.85c-8.18,0-13.35-5.46-13.35-16.37v-51.81h9.91v53.22c0,3.69,1.06,6.16,3.44,6.16
		c2.65,0,3.44-2.64,3.44-6.16v-53.22h9.91v51.81C334.05,168.22,328.96,173.85,320.7,173.85z" />
    <path class="st1" d="M369.17,139.81c0-25-6.93-33.81-18.44-33.81h-9.91v67.54h9.91C362.33,173.53,369.17,164.72,369.17,139.81z
		 M359.26,139.81c0,16.11-2.76,24.92-8.53,24.92V114.8C356.59,114.8,359.26,122.37,359.26,139.81" />
    <rect x="376.86" y="105.99" class="st1" width="9.91" height="67.54" />
    <path class="st1" d="M424.25,139.81c0-19.8-2.98-34.5-15.32-34.5c-12.78,0-15.23,14.79-15.23,34.5c0,19.36,3.95,34.41,15.23,34.41
		C420.56,174.22,424.25,159.43,424.25,139.81z M414.34,139.81c0,13.11-1.15,25.6-5.41,25.6c-3.99,0-5.41-12.23-5.41-25.6
		c0-13.64,1.15-25.69,5.41-25.69C413.45,114.11,414.34,126.26,414.34,139.81" />
    <path class="st1" d="M435.47,174.22l-3.95-8.61c5.53-1.58,11.96-3.87,11.96-10.74c0-8.45-12.66-15.85-12.66-29.14
		c0-10.12,9.21-18.22,18.98-20.43l2.89,9.33c-5.26,1.41-12.05,4.67-12.05,11.09c0,10.12,12.75,16.64,12.75,29.14
		C453.4,165.43,446.12,171.33,435.47,174.22z" />
    <g class="st2">
      <g>
        <g>
          <polygon class="st3" points="197.98,195.29 200.86,195.29 202.24,204.18 210.25,195.33 213.79,195.31 200.44,209.98 				" />
          <g>
            <polygon class="st3" points="233.18,198.56 233.35,198.11 227.68,198.11 226.5,201.23 235.15,201.23 231.8,209.92 
						220.18,209.92 221.47,206.74 224.46,206.74 224.28,207.17 229.91,207.17 231.11,204.01 222.5,204.01 225.79,195.31 
						237.39,195.31 236.16,198.56 					" />
          </g>
          <g>
            <polygon class="st3" points="179.69,195.31 182.74,195.31 176.8,209.92 174.2,209.92 170.78,202.44 167.82,209.92 
						164.83,209.92 170.67,195.23 175.4,205.97 					" />
          </g>
          <polygon class="st3" points="217.09,195.36 220.06,195.36 214.34,209.92 211.36,209.92 				" />
          <polygon class="st3" points="242.61,195.36 245.58,195.36 239.86,209.92 236.88,209.92 				" />
          <g>
            <polygon class="st3" points="277.51,195.29 280.56,195.29 274.61,209.9 272.02,209.9 268.6,202.42 265.64,209.9 262.65,209.9 
						268.49,195.21 273.22,205.94 					" />
          </g>
          <path class="st3" d="M127.26,209.92l1.63-4.15h-8.74l0.98-2.75H130l3.1-7.7h16.69l-4.17,10.46h-13.77l-1.63,4.15H127.26z
					 M143.71,203.01l2.06-5.15l-10.77,0l-2.03,5.15H143.71z" />
          <path class="st3" d="M145.75,209.93l13.96-15.15l2.39,15.12h-2.84l-0.54-3.06h-6.53l-2.79,3.06L145.75,209.93z M158.26,204.04
					l-0.41-3.38l-3.07,3.33L158.26,204.04z" />
          <path class="st3" d="M179.23,209.93l13.96-15.15l2.39,15.12h-2.84l-0.54-3.06h-6.53l-2.79,3.06L179.23,209.93z M191.75,204.04
					l-0.41-3.38l-3.07,3.33L191.75,204.04z" />
          <path class="st3" d="M245.44,209.92l5.82-14.63h12.09l-5.8,14.63H245.44z M249.49,207.15h6.16l3.66-9.09h-6.14L249.49,207.15z" />
        </g>
        <g>
          <path class="st3" d="M287.47,203.84c0-4.83,4.06-9.15,9.09-9.15c2.84,0,4.75,1.27,5.86,3.22l-2.19,1.48
					c-0.9-1.37-2-2.28-3.97-2.28c-3.22,0-6.04,3.09-6.04,6.62c0,2.47,1.7,4.08,4.08,4.08c1.7,0,2.81-0.69,4-1.72l1.74,1.76
					c-1.42,1.37-3.18,2.38-5.78,2.38C290.39,210.24,287.47,207.79,287.47,203.84z" />
          <path class="st3" d="M302.69,203.65c0-4.55,3.72-8.96,8.91-8.96c4.04,0,6.77,2.86,6.77,6.59c0,4.55-3.72,8.96-8.94,8.96
					C305.4,210.24,302.69,207.39,302.69,203.65z M315.62,201.43c0-2.47-1.59-4.32-4.27-4.32c-3.48,0-5.91,3.31-5.91,6.38
					c0,2.49,1.59,4.32,4.28,4.32C313.2,207.81,315.62,204.51,315.62,201.43z" />
          <path class="st3" d="M323.47,194.95h2.69l2.62,7.11l6.44-7.11h3.03l-4.04,15.04h-2.69l2.9-10.78l-6.62,7.09h-0.09l-2.77-7.05
					l-2.88,10.74h-2.64L323.47,194.95z" />
          <path class="st3" d="M342.11,194.95h4.75c2.04,0,3.52,0.43,4.55,1.48c0.73,0.73,1.12,1.72,1.12,2.96c0,3.63-3.09,5.71-7.35,5.71
					h-3.14l-1.31,4.88h-2.66L342.11,194.95z M345.31,202.77c2.75,0,4.47-1.16,4.47-3.16c0-0.6-0.19-1.1-0.58-1.48
					c-0.52-0.52-1.31-0.77-2.43-0.77h-2.66l-1.44,5.41H345.31z" />
          <path class="st3" d="M360.6,194.84h2.53l2.56,15.14h-2.71l-0.58-3.63h-7.11l-2.51,3.63h-2.86L360.6,194.84z M362.08,204.01
					l-0.97-6.08l-4.21,6.08H362.08z" />
          <path class="st3" d="M371.84,194.95h2.45l5.09,10.63l2.88-10.63h2.6l-4.04,15.04h-2.21l-5.26-10.93l-2.92,10.93h-2.62
					L371.84,194.95z" />
          <path class="st3" d="M389.92,204.01l-3.35-9.06h2.92l2.28,6.79l5.95-6.79h3.26l-8.48,9.34l-1.53,5.69h-2.64L389.92,204.01z" />
        </g>
        <g>
          <path class="st3" d="M107.12,194.84h2.53l2.56,15.14h-2.71l-0.58-3.63h-7.11l-2.51,3.63h-2.86L107.12,194.84z M108.6,204.01
					l-0.97-6.08l-4.21,6.08H108.6z" />
        </g>
      </g>
    </g>
  </g>
  <g class="st0">
    <g class="st2">
      <path class="st3" d="M230.06,101.31h33.18v8.44h-24.74v18.68h21.07v7.34h-21.07v25.76h-8.45V101.31z" />
      <path class="st3" d="M271.67,101.31h8.36v8.44h-8.36V101.31z M271.76,118.37h8.27v43.16h-8.27V118.37z" />
      <path class="st3" d="M289.29,101.31h8.27v47c0,5.2,2.05,6.14,4.61,6.14c0.77,0,1.45-0.09,1.45-0.09v7.34c0,0-1.28,0.17-2.73,0.17
			c-4.69,0-11.6-1.28-11.6-12.11V101.31z" />
      <path class="st3" d="M313.02,125.1h-5.63v-6.73h5.89v-11.86h8.02v11.86h10.41v6.73H321.3v19.71c0,8.62,6.06,9.72,9.21,9.72
			c1.19,0,1.96-0.17,1.96-0.17v7.34c0,0-1.19,0.17-2.9,0.17c-5.54,0-16.55-1.71-16.55-16.12V125.1z" />
      <path class="st3" d="M358.74,117.35c12.2,0,18.68,9.04,18.68,20.22c0,1.11-0.26,3.58-0.26,3.58h-31.48
			c0.43,9.47,7.17,14.25,14.84,14.25c7.42,0,12.8-5.03,12.8-5.03l3.41,6.06c0,0-6.4,6.14-16.72,6.14c-13.56,0-22.86-9.81-22.86-22.6
			C337.16,126.22,346.46,117.35,358.74,117.35z M368.98,134.92c-0.26-7.42-4.86-11-10.41-11c-6.31,0-11.43,3.92-12.62,11H368.98z" />
      <path class="st3" d="M384.76,118.37h8.02v7.51c0,1.79-0.17,3.24-0.17,3.24h0.17c1.96-6.31,6.99-11.26,13.65-11.26
			c1.11,0,2.13,0.17,2.13,0.17v8.19c0,0-1.11-0.26-2.39-0.26c-5.29,0-10.15,3.75-12.11,10.15c-0.77,2.47-1.02,5.12-1.02,7.76v17.66
			h-8.27V118.37z" />
      <path class="st3" d="M416.66,150.36c0,0,4.86,5.03,12.37,5.03c3.58,0,7.17-1.88,7.17-5.37c0-7.93-22.18-6.31-22.18-20.39
			c0-7.85,6.99-12.28,15.61-12.28c9.47,0,13.9,4.78,13.9,4.78l-3.33,6.23c0,0-3.84-3.84-10.66-3.84c-3.58,0-7.08,1.54-7.08,5.29
			c0,7.76,22.18,6.06,22.18,20.22c0,7.17-6.14,12.54-15.61,12.54c-10.58,0-16.38-6.31-16.38-6.31L416.66,150.36z" />
    </g>
    <g class="st2">
      <g>
        <polygon class="st3" points="195.61,193.58 198.79,193.58 200.31,203.4 209.17,193.61 213.09,193.6 198.32,209.82 			" />
        <g>
          <polygon class="st3" points="234.52,197.18 234.71,196.68 228.44,196.68 227.14,200.14 236.71,200.14 233,209.74 220.16,209.74 
					221.58,206.23 224.88,206.23 224.69,206.7 230.91,206.7 232.24,203.21 222.72,203.21 226.35,193.6 239.18,193.6 237.82,197.18 
									" />
        </g>
        <g>
          <polygon class="st3" points="175.39,193.6 178.76,193.6 172.19,209.74 169.31,209.74 165.54,201.48 162.26,209.74 
					158.96,209.74 165.42,193.5 170.64,205.37 				" />
        </g>
        <polygon class="st3" points="216.74,193.64 220.02,193.64 213.7,209.74 210.4,209.74 			" />
        <polygon class="st3" points="244.96,193.64 248.23,193.64 241.92,209.74 238.62,209.74 			" />
        <g>
          <polygon class="st3" points="283.55,193.57 286.92,193.57 280.34,209.72 277.47,209.72 273.69,201.46 270.41,209.72 
					267.11,209.72 273.57,193.48 278.8,205.35 				" />
        </g>
        <path class="st3" d="M117.41,209.74l1.8-4.59h-9.66l1.09-3.04h9.8l3.43-8.51h18.46l-4.61,11.56H122.5l-1.8,4.58H117.41z
				 M135.61,202.11l2.28-5.69l-11.91,0l-2.24,5.69H135.61z" />
        <path class="st3" d="M137.86,209.75L153.29,193l2.64,16.72h-3.13l-0.6-3.38h-7.22l-3.09,3.38L137.86,209.75z M151.7,203.25
				l-0.45-3.73l-3.4,3.68L151.7,203.25z" />
        <path class="st3" d="M174.88,209.75L190.31,193l2.64,16.72h-3.13l-0.6-3.38H182l-3.09,3.38L174.88,209.75z M188.72,203.25
				l-0.45-3.73l-3.4,3.68L188.72,203.25z" />
        <path class="st3" d="M248.08,209.74l6.44-16.17h13.37l-6.42,16.17H248.08z M252.57,206.68h6.82l4.04-10.05h-6.79L252.57,206.68z" />
      </g>
      <g>
        <path class="st3" d="M294.55,203.02c0-5.34,4.49-10.12,10.05-10.12c3.14,0,5.25,1.4,6.48,3.56l-2.42,1.64
				c-1-1.52-2.21-2.52-4.39-2.52c-3.56,0-6.67,3.42-6.67,7.32c0,2.73,1.88,4.51,4.51,4.51c1.88,0,3.11-0.76,4.42-1.9l1.92,1.95
				c-1.57,1.52-3.52,2.64-6.39,2.64C297.78,210.1,294.55,207.4,294.55,203.02z" />
        <path class="st3" d="M311.39,202.81c0-5.04,4.11-9.9,9.86-9.9c4.47,0,7.48,3.16,7.48,7.29c0,5.04-4.11,9.9-9.88,9.9
				C314.38,210.1,311.39,206.94,311.39,202.81z M325.68,200.36c0-2.73-1.76-4.77-4.73-4.77c-3.85,0-6.53,3.66-6.53,7.05
				c0,2.76,1.76,4.77,4.73,4.77C323,207.42,325.68,203.76,325.68,200.36z" />
        <path class="st3" d="M334.35,193.19h2.97l2.9,7.86l7.13-7.86h3.35l-4.47,16.63h-2.97l3.21-11.92l-7.32,7.84h-0.09l-3.06-7.79
				l-3.18,11.88h-2.92L334.35,193.19z" />
        <path class="st3" d="M354.97,193.19h5.25c2.26,0,3.9,0.48,5.04,1.64c0.81,0.81,1.24,1.9,1.24,3.28c0,4.01-3.42,6.32-8.12,6.32
				h-3.47l-1.45,5.39h-2.94L354.97,193.19z M358.51,201.84c3.04,0,4.94-1.28,4.94-3.49c0-0.67-0.21-1.21-0.64-1.64
				c-0.57-0.57-1.45-0.86-2.68-0.86h-2.95l-1.59,5.99H358.51z" />
        <path class="st3" d="M375.41,193.07h2.8l2.83,16.74h-2.99l-0.64-4.01h-7.86l-2.78,4.01h-3.16L375.41,193.07z M377.05,203.21
				l-1.07-6.72l-4.66,6.72H377.05z" />
        <path class="st3" d="M387.84,193.19h2.71l5.63,11.76l3.18-11.76h2.87l-4.46,16.63h-2.45l-5.82-12.09l-3.23,12.09h-2.9
				L387.84,193.19z" />
        <path class="st3" d="M407.84,203.21l-3.71-10.02h3.23l2.52,7.51l6.58-7.51h3.61l-9.38,10.33l-1.69,6.29h-2.92L407.84,203.21z" />
      </g>
      <g>
        <path class="st3" d="M95.15,193.07h2.8l2.83,16.74h-2.99l-0.64-4.01h-7.86l-2.78,4.01h-3.16L95.15,193.07z M96.79,203.21
				l-1.07-6.72l-4.66,6.72H96.79z" />
      </g>
    </g>
    <g class="st2">
      <path class="st3" d="M80.68,100.97h11l-9.98,51.1h26.19l-1.96,9.47H68.9L80.68,100.97z" />
      <path class="st3" d="M122.5,100.97h36.17l-1.88,9.47h-25.25l-3.07,15.87h20.39l-1.88,9.47H126.6l-3.16,16.29h26.62l-1.79,9.47
			h-37.62L122.5,100.97z" />
      <path class="st3" d="M164.71,100.97h36.17l-1.88,9.47h-25.25l-3.07,15.87h20.39l-1.87,9.47h-20.39l-3.16,16.29h26.62l-1.79,9.47
			h-37.62L164.71,100.97z" />
      <path class="st3" d="M199.7,177.55H70.09c-9.17,0-16.62-7.46-16.62-16.62v-59.36c0-9.17,7.46-16.62,16.62-16.62H199.7
			c9.17,0,16.62,7.46,16.62,16.62v59.36C216.32,170.1,208.86,177.55,199.7,177.55z M70.09,87.71c-7.64,0-13.86,6.22-13.86,13.86
			v59.36c0,7.64,6.22,13.86,13.86,13.86H199.7c7.64,0,13.86-6.22,13.86-13.86v-59.36c0-7.64-6.22-13.86-13.86-13.86H70.09z" />
      <g>
        <path class="st3" d="M193.21,157.73c0.08-0.53,0.25-1.02,0.51-1.48c0.27-0.46,0.6-0.86,0.99-1.21c0.39-0.34,0.83-0.62,1.33-0.82
				c0.49-0.2,1-0.3,1.53-0.3c0.53,0,1,0.1,1.44,0.3c0.43,0.2,0.8,0.47,1.1,0.82c0.3,0.34,0.51,0.75,0.64,1.21
				c0.13,0.46,0.16,0.95,0.09,1.48c-0.08,0.53-0.24,1.02-0.51,1.48c-0.26,0.46-0.59,0.86-0.99,1.21c-0.4,0.34-0.84,0.62-1.33,0.82
				c-0.49,0.2-0.99,0.3-1.52,0.3c-0.53,0-1-0.1-1.44-0.3c-0.43-0.2-0.8-0.47-1.1-0.82c-0.3-0.34-0.51-0.75-0.65-1.21
				C193.16,158.74,193.13,158.25,193.21,157.73z M193.88,157.73c-0.06,0.43-0.04,0.84,0.08,1.22c0.11,0.38,0.29,0.71,0.53,1
				c0.24,0.28,0.54,0.51,0.9,0.67s0.75,0.25,1.18,0.25s0.85-0.08,1.25-0.25c0.41-0.16,0.77-0.39,1.1-0.67
				c0.32-0.28,0.59-0.62,0.81-1c0.21-0.38,0.35-0.79,0.41-1.22c0.06-0.43,0.04-0.84-0.07-1.22c-0.11-0.38-0.29-0.71-0.53-1
				c-0.25-0.28-0.55-0.51-0.91-0.67c-0.36-0.16-0.75-0.25-1.18-0.25c-0.43,0-0.85,0.08-1.25,0.25c-0.41,0.16-0.77,0.39-1.09,0.67
				c-0.32,0.28-0.59,0.62-0.81,1C194.08,156.89,193.95,157.3,193.88,157.73z M195.86,155.52h0.77h0.91c0.53,0,0.9,0.11,1.12,0.34
				c0.22,0.23,0.3,0.55,0.24,0.97c-0.05,0.38-0.19,0.67-0.41,0.86c-0.22,0.19-0.49,0.3-0.79,0.34l0.88,1.84h-0.84l-0.84-1.78h-0.58
				l-0.25,1.78h-0.8L195.86,155.52z M196.39,157.42h0.58c0.12,0,0.25-0.01,0.37-0.02c0.13-0.01,0.24-0.04,0.34-0.08
				s0.19-0.1,0.26-0.18c0.07-0.08,0.12-0.19,0.14-0.34c0.02-0.14,0.01-0.26-0.05-0.34c-0.05-0.08-0.12-0.14-0.21-0.18
				c-0.09-0.04-0.2-0.06-0.32-0.07c-0.12-0.01-0.24-0.01-0.37-0.01h-0.58L196.39,157.42z" />
      </g>
    </g>
  </g>
  <g class="st0">
    <g class="st2">
      <path class="st3" d="M33.23,109.9c0.03,0.29,0.1,0.58,0.1,0.87c0,13.83,0,27.66,0,41.49c0,0.29,0,0.58,0,0.95
			c7.73,0,15.37,0,23.06,0c0,1.59,0,3.11,0,4.72c-9.23,0-18.46,0-27.69,0c0-16.01,0-32.02,0-48.02
			C30.22,109.9,31.72,109.9,33.23,109.9z" />
    </g>
    <g class="st2">
      <path class="st3" d="M64.17,110.18c-0.01-0.35,0.1-0.27,0.28-0.27c1.44,0,2.88,0,4.32,0c0.14,0.03,0.08,0.49,0.08,0.74
			c0,15.5,0,31,0,46.49c0,0.25,0,0.49,0,0.74c-1.6,0-3.12,0-4.67,0c0-0.37,0-0.69,0-1.01c0-15.25,0-30.49,0-45.74
			C64.17,110.81,64.19,110.5,64.17,110.18z" />
    </g>
    <g class="st2">
      <path class="st3" d="M99.09,109.9c0.42,0.13,2.81,0.29,4.16,0.68c6.83,2.02,10.86,6.69,12.58,13.49c0.02,0.08,0,0.17,0,0.32
			c-1.63,0.33-3.26,0.66-4.96,1.01c-0.09-0.28-0.18-0.53-0.25-0.78c-0.69-2.25-1.65-4.35-3.2-6.16c-4.65-5.43-12.2-5.9-17.65-1.1
			c-3.08,2.71-4.87,6.14-5.64,10.11c-1.17,6.04-0.96,12.01,1.14,17.84c1.32,3.68,3.45,6.73,7.02,8.61
			c7.74,4.09,17.57-0.94,18.74-9.61c0.16-1.18,0.2-2.37,0.28-3.55c0.01-0.15-0.01-0.31-0.03-0.53c-3.96,0-7.88,0-11.86,0v-4.63
			h16.44v23.07h-4.56c0-1.96,0-3.89,0-5.98c-0.29,0.33-0.47,0.52-0.63,0.73c-7.21,9.14-21.71,8.06-27.93-1.47
			c-2.3-3.52-3.62-7.37-4.13-11.51c-0.68-5.57-0.53-11.1,1.13-16.5c1.73-5.63,5.21-9.89,10.61-12.57c1.76-0.87,3.7-1.24,5.65-1.47
			c0.15-0.02,0.39-0.05,0.54-0.06c0.84-0.06,0.29,0.04,0.36-0.03L99.09,109.9z" />
    </g>
    <g class="st2">
      <path class="st3" d="M160.01,109.9c0.01,0.25,0.04,0.5,0.04,0.75c0,15.5,0,31,0,46.5c0,0.23,0,0.45,0,0.73c-1.56,0-3.07,0-4.66,0
			c0-7.63,0-15.23,0-22.88c-8.49,0-16.92,0-25.42,0c0,7.62,0,15.24,0,22.89c-1.58,0-3.07,0-4.65,0c0-0.3,0-0.57,0-0.84
			c0-15.45,0-30.91,0-46.36c0-0.27-0.05-0.8,0.11-0.8c1.51,0,3.02,0,4.53,0c0,6.75,0,13.51,0,20.26c8.52,0,16.95,0,25.42,0
			c0-0.33,0-0.6,0-0.88c0-6.19,0-12.38,0-18.58c0-0.27,0.06-0.54,0.09-0.8C156.99,109.9,158.5,109.9,160.01,109.9z" />
    </g>
    <g class="st2">
      <path class="st3" d="M201.86,109.9c0,1.52,0,3.05,0,4.65c-5.1,0-10.12,0-15.19,0c0,14.47,0,28.87,0,43.33c-1.57,0-3.09,0-4.68,0
			c0-14.42,0-28.84,0-43.33c-0.34,0-0.61,0-0.88,0c-4.57,0-9.15,0-13.72-0.01c-0.26,0-0.53-0.07-0.79-0.11c0-1.51,0-3.01,0-4.53
			C178.35,109.9,190.11,109.9,201.86,109.9z" />
    </g>
    <path class="st1" d="M247.7,175.69c-23.64,0-42.88-19.23-42.88-42.88s19.24-42.88,42.88-42.88s42.88,19.24,42.88,42.88
		S271.34,175.69,247.7,175.69z M247.7,91.65c-22.7,0-41.16,18.47-41.16,41.16c0,22.7,18.47,41.16,41.16,41.16
		s41.16-18.47,41.16-41.16C288.86,110.11,270.39,91.65,247.7,91.65z" />
    <g class="st2">
      <path class="st3" d="M247.69,170.83c-20.96-0.01-37.91-17-37.92-38.02c-0.01-21.04,16.98-38.06,37.96-38.03
			c20.97,0.03,37.91,17.04,37.89,38.04C285.6,153.83,268.63,170.84,247.69,170.83z M231.1,108.04c0,0.33,0,0.6,0,0.87
			c0,8.55-0.01,17.1,0.01,25.65c0,1.25,0.06,2.52,0.25,3.76c0.87,5.6,3.96,9.37,9.41,11.09c2.07,0.65,4.21,0.81,6.37,0.8
			c0.61,0,1.21,0,1.89,0c0,2.9,0,5.68,0,8.49c4.13,0,8.19,0,12.27,0c0-10.26,0-20.47,0-30.72c-4.09,0-8.15,0-12.3,0
			c0,3.32,0,6.6,0,9.99c-0.71-0.09-1.32-0.13-1.92-0.24c-1.38-0.24-2.2-1.08-2.39-2.46c-0.12-0.81-0.18-1.64-0.18-2.46
			c-0.01-7.98-0.01-15.96-0.01-23.94c0-0.27,0-0.53,0-0.84C240.01,108.04,235.61,108.04,231.1,108.04z M255.24,123.76
			c0.27-0.03,0.77-0.06,1.27-0.15c2.28-0.38,4.09-2.02,4.56-4.1c0.5-2.24-0.35-4.3-2.35-5.7c-2.6-1.81-6.16-1.43-8.37,0.9
			c-2.24,2.37-1.88,6.02,0.79,7.9C252.29,123.43,253.61,123.73,255.24,123.76z" />
    </g>
    <g class="st2">
      <path class="st3" d="M249.08,150.16c0-4.11,0-8.09,0-12.13c1.21,0,2.39,0,3.63,0c0.02,0.21,0.04,0.41,0.04,0.6
			c0,3.61-0.01,7.22,0.01,10.83c0,0.52-0.12,0.74-0.68,0.71C251.1,150.13,250.12,150.16,249.08,150.16z" />
    </g>
    <g class="st2">
      <path class="st3" d="M313.88,153.6c2.26,0,4.51,0,6.81,0c0,1.47,0,2.85,0,4.28c-6.11,0-12.22,0-18.37,0c0-1.41,0-2.79,0-4.26
			c2.28,0,4.53,0,6.82,0c0-13.2,0-26.31,0-39.51c-2.27,0-4.52,0-6.81,0c0-1.42,0-2.76,0-4.14c6.12,0,12.21,0,18.36,0
			c0,1.36,0,2.7,0,4.12c-2.26,0-4.51,0-6.8,0C313.88,127.3,313.88,140.41,313.88,153.6z" />
    </g>
    <g class="st2">
      <path class="st3" d="M349.09,109.9c1.29,0.14,2.59,0.24,3.88,0.42c2.16,0.31,4.27,0.83,6.17,1.94c4.06,2.37,6.36,5.86,6.43,10.61
			c0.07,4.71-2.19,8.16-6.19,10.48c-1.14,0.66-2.41,1.09-3.62,1.62c-0.2,0.09-0.42,0.15-0.69,0.25c3.88,7.56,7.73,15.08,11.65,22.7
			c-1.67,0-3.24,0.02-4.8-0.03c-0.17,0-0.39-0.34-0.5-0.56c-3.38-6.48-6.8-12.95-10.09-19.47c-0.67-1.32-1.37-1.82-2.88-1.76
			c-3.45,0.14-6.9,0.04-10.35,0.04c-0.27,0-0.54,0-0.89,0c0,7.27,0,14.48,0,21.76c-1.63,0-3.18,0-4.72,0c0-15.99,0-31.98,0-48.02
			C338.02,109.9,343.55,109.9,349.09,109.9z M337.22,132.03c0.28,0,0.48,0,0.68,0c3.06,0,6.12-0.02,9.18,0.01
			c2.58,0.02,5.09-0.41,7.55-1.17c6.55-2.01,7.07-9.89,3.67-13.55c-1.99-2.14-4.53-3.02-7.3-3.11c-4.47-0.15-8.95-0.08-13.43-0.1
			c-0.11,0-0.21,0.04-0.35,0.07C337.22,120.1,337.22,126.01,337.22,132.03z" />
    </g>
    <g class="st2">
      <path class="st3" d="M394.37,109.9c0.82,0,1.65,0,2.47,0c0.18,0.04,0.35,0.1,0.53,0.12c4.68,0.39,8.51,2.49,11.6,5.93
			c3.34,3.72,5.04,8.21,5.84,13.08c0.28,1.71,0.38,3.44,0.56,5.16c0,0.55,0,1.1,0,1.65c-0.04,0.47-0.11,0.95-0.13,1.42
			c-0.18,4.1-1.18,7.99-3.07,11.63c-2.54,4.9-6.18,8.58-11.66,10.09c-1.34,0.37-2.71,0.58-4.07,0.86c-0.69,0-1.37,0-2.06,0
			c-0.25-0.04-0.49-0.11-0.74-0.13c-3.26-0.29-6.25-1.33-8.88-3.29c-3.37-2.52-5.82-5.79-7.23-9.71
			c-3.36-9.32-2.76-18.47,1.77-27.27c2.35-4.56,6.19-7.43,11.12-8.8C391.7,110.29,393.04,110.15,394.37,109.9z M380.74,134.93
			c-0.06,0.01-0.11,0.01-0.17,0.02c0.26,2.36,0.4,4.74,0.8,7.07c0.7,4.1,2.43,7.7,5.69,10.42c3.84,3.2,8.18,3.9,12.78,2.12
			c4.57-1.77,7.42-5.3,8.9-9.9c1.7-5.29,1.7-10.71,0.77-16.13c-0.64-3.71-2-7.12-4.45-10.03c-3.96-4.7-10.94-5.82-16.16-2.56
			c-3.46,2.17-5.66,5.31-6.86,9.19C381.04,128.31,380.73,131.6,380.74,134.93z" />
    </g>
    <g class="st2">
      <path class="st3" d="M459.4,109.9c1.51,0,3.02,0,4.53,0c0,16,0,31.99,0,48.03c-1.37,0-2.65-0.03-3.92,0.01
			c-0.53,0.02-0.8-0.15-1.08-0.61c-8.48-14.13-16.98-28.24-25.48-42.36c-0.12-0.2-0.25-0.4-0.38-0.6c-0.05,0.02-0.1,0.04-0.15,0.06
			c0,14.48,0,28.96,0,43.44c-1.58,0-3.1,0-4.65,0c0-0.29,0-0.51,0-0.74c0-15.5,0-31,0-46.51c0-0.24,0.07-0.48,0.11-0.73
			c2.38,0,4.76,0,7.13,0c7.88,13,15.75,26,23.63,39c0.05-0.02,0.1-0.04,0.14-0.06c0-0.27,0-0.54,0-0.82c0-12.42,0-24.83,0-37.25
			C459.31,110.49,459.37,110.19,459.4,109.9z" />
    </g>
    <g class="st2">
      <g>
        <polygon class="st3" points="191.66,183.02 194.75,183.02 196.23,192.57 204.84,183.06 208.66,183.04 194.3,198.81 			" />
        <g>
          <polygon class="st3" points="229.49,186.53 229.68,186.04 223.58,186.04 222.31,189.4 231.62,189.4 228.02,198.74 
					215.52,198.74 216.91,195.32 220.12,195.32 219.93,195.79 225.98,195.79 227.28,192.39 218.02,192.39 221.55,183.04 
					234.02,183.04 232.7,186.53 				" />
        </g>
        <g>
          <polygon class="st3" points="172,183.04 175.28,183.04 168.88,198.74 166.09,198.74 162.42,190.71 159.23,198.74 156.02,198.74 
					162.3,182.95 167.38,194.49 				" />
        </g>
        <polygon class="st3" points="212.2,183.09 215.39,183.09 209.25,198.74 206.04,198.74 			" />
        <polygon class="st3" points="239.64,183.09 242.83,183.09 236.68,198.74 233.47,198.74 			" />
        <g>
          <polygon class="st3" points="277.16,183.02 280.44,183.02 274.04,198.72 271.25,198.72 267.58,190.68 264.39,198.72 
					261.18,198.72 267.46,182.92 272.54,194.47 				" />
        </g>
        <path class="st3" d="M115.63,198.74l1.75-4.47h-9.39l1.06-2.96h9.53l3.33-8.28h17.95l-4.48,11.24h-14.8l-1.75,4.46H115.63z
				 M133.32,191.32l2.21-5.53l-11.58,0l-2.18,5.53H133.32z" />
        <path class="st3" d="M135.5,198.75l15-16.29l2.56,16.26h-3.05l-0.58-3.29h-7.02l-3,3.29L135.5,198.75z M148.96,192.43l-0.44-3.63
				l-3.3,3.58L148.96,192.43z" />
        <path class="st3" d="M171.5,198.75l15-16.29l2.56,16.26h-3.05l-0.58-3.29h-7.02l-3,3.29L171.5,198.75z M184.96,192.43l-0.44-3.63
				l-3.3,3.58L184.96,192.43z" />
        <path class="st3" d="M242.67,198.74l6.26-15.72h13l-6.24,15.72H242.67z M247.04,195.76h6.63l3.93-9.77h-6.6L247.04,195.76z" />
      </g>
      <g>
        <path class="st3" d="M287.86,192.21c0-5.2,4.36-9.84,9.77-9.84c3.05,0,5.1,1.36,6.3,3.46l-2.36,1.59
				c-0.97-1.48-2.15-2.45-4.27-2.45c-3.46,0-6.49,3.33-6.49,7.11c0,2.66,1.82,4.39,4.39,4.39c1.82,0,3.03-0.74,4.3-1.85l1.87,1.89
				c-1.52,1.48-3.42,2.56-6.21,2.56C291,199.09,287.86,196.46,287.86,192.21z" />
        <path class="st3" d="M304.23,192c0-4.9,4-9.63,9.58-9.63c4.34,0,7.27,3.07,7.27,7.09c0,4.9-3.99,9.63-9.61,9.63
				C307.14,199.09,304.23,196.02,304.23,192z M318.13,189.62c0-2.66-1.71-4.64-4.6-4.64c-3.74,0-6.35,3.56-6.35,6.86
				c0,2.68,1.71,4.64,4.6,4.64C315.52,196.48,318.13,192.92,318.13,189.62z" />
        <path class="st3" d="M326.56,182.65h2.89l2.82,7.64l6.93-7.64h3.26l-4.34,16.17h-2.89l3.12-11.59l-7.11,7.62h-0.09l-2.98-7.57
				l-3.09,11.55h-2.84L326.56,182.65z" />
        <path class="st3" d="M346.61,182.65h5.1c2.19,0,3.79,0.46,4.9,1.59c0.79,0.79,1.2,1.85,1.2,3.19c0,3.9-3.33,6.14-7.9,6.14h-3.37
				l-1.41,5.24h-2.86L346.61,182.65z M350.05,191.05c2.96,0,4.8-1.25,4.8-3.39c0-0.65-0.21-1.18-0.62-1.59
				c-0.55-0.55-1.41-0.83-2.61-0.83h-2.86l-1.55,5.82H350.05z" />
        <path class="st3" d="M366.48,182.53h2.73l2.75,16.28h-2.91l-0.62-3.9h-7.64l-2.7,3.9h-3.07L366.48,182.53z M368.08,192.39
				l-1.04-6.54l-4.53,6.54H368.08z" />
        <path class="st3" d="M378.56,182.65h2.63l5.47,11.43l3.09-11.43h2.79l-4.34,16.17h-2.38l-5.66-11.75l-3.14,11.75h-2.82
				L378.56,182.65z" />
        <path class="st3" d="M398.01,192.39l-3.6-9.75h3.14l2.45,7.3l6.4-7.3h3.51l-9.12,10.05l-1.64,6.12h-2.84L398.01,192.39z" />
      </g>
      <g>
        <path class="st3" d="M93.98,182.53h2.73l2.75,16.28h-2.91l-0.62-3.9h-7.64l-2.7,3.9H82.5L93.98,182.53z M95.57,192.39l-1.04-6.54
				L90,192.39H95.57z" />
      </g>
    </g>
  </g>
  <g class="st0">
    <g class="st2">
      <path class="st3" d="M356.42,117.36c-15.87-25.41-58.16-43.63-107.69-43.63c-49.57,0-91.87,18.24-107.72,43.66h8.36
			c16.34-21.37,55.26-36.81,99.36-36.81c44.06,0,82.96,15.43,99.32,36.78H356.42z M348.08,161.77
			c-16.35,21.36-55.26,36.8-99.34,36.8c-44.07,0-82.97-15.44-99.34-36.79h-8.37c15.86,25.42,58.16,43.64,107.71,43.64
			c49.54,0,91.83-18.22,107.7-43.64L348.08,161.77z" />
    </g>
    <g class="st2">
      <path class="st3" d="M289.51,161.79c-9.63,8.47-24.47,14.02-40.78,14.02c-16.31,0-31.17-5.55-40.79-14.02l-9.68-0.02
			c10.32,12.51,29.09,20.89,50.47,20.89c21.38,0,40.14-8.37,50.46-20.87H289.51z M299.16,117.33
			c-10.33-12.48-29.07-20.84-50.43-20.84c-21.39,0-40.15,8.38-50.47,20.89h9.68c9.63-8.48,24.48-14.03,40.8-14.03
			c16.29,0,31.13,5.53,40.76,13.99H299.16z" />
    </g>
    <g class="st2">
      <path class="st3" d="M415.19,52.92H78.85v173.31h339.77V52.92H415.19z M411.76,59.77c0,6.43,0,153.17,0,159.61
			c-6.64,0-319.42,0-326.06,0c0-6.43,0-153.17,0-159.61C92.34,59.77,405.12,59.77,411.76,59.77z" />
    </g>
    <g class="st2">
      <path class="st3" d="M103.97,150.81v-23.79h20.39c3.57,0,5.35,1.54,5.35,4.61v5.3c0,3.07-1.78,4.61-5.35,4.61h-14.93v9.28H103.97z
			 M121.91,131.05h-12.47v6.44h12.47c0.86,0,1.46-0.09,1.8-0.28c0.46-0.28,0.69-0.83,0.69-1.64v-2.58c0-0.81-0.23-1.36-0.69-1.64
			C123.37,131.15,122.77,131.05,121.91,131.05z" />
      <path class="st3" d="M141.17,150.81l13.47-23.79h5.35l13.65,23.79h-6.23l-2.86-5.24h-15.08l-2.77,5.24H141.17z M151.81,141.31
			h10.42l-5.12-9.67L151.81,141.31z" />
      <path class="st3" d="M188.71,150.81v-23.79h3.79l16.76,14.02c1.2,1.01,2.11,1.88,2.72,2.58c-0.15-2.21-0.22-3.58-0.22-4.1v-12.5
			h5.01v23.79h-3.79l-17.5-14.71c-0.74-0.62-1.4-1.26-1.99-1.94c0.15,1.54,0.22,2.8,0.22,3.78v12.87H188.71z" />
      <path class="st3" d="M231.78,150.81l13.47-23.79h5.35l13.65,23.79h-6.23l-2.86-5.24h-15.08l-2.77,5.24H231.78z M242.43,141.31
			h10.42l-5.12-9.67L242.43,141.31z" />
      <path class="st3" d="M279.4,150.81v-23.79h5.54v19.31h17.83v4.49H279.4z" />
      <path class="st3" d="M323.93,127.01v19.31h15.79v-19.31h5.54v18.17c0,2.21-0.42,3.71-1.25,4.47c-0.83,0.77-2.39,1.15-4.66,1.15
			H324.3c-2.28,0-3.83-0.38-4.66-1.15c-0.83-0.77-1.25-2.26-1.25-4.47v-18.17H323.93z" />
      <path class="st3" d="M361.27,150.81l11.29-12.22l-11.48-11.57h7.33l7.61,8.08l7.24-8.08h6.36l-10.37,10.93l12.82,12.87h-7.51
			l-8.71-9.22l-8.02,9.22H361.27z" />
    </g>
    <g class="st2">
      <path class="st3" d="M398.64,201.67c0.81,0,1.57,0.15,2.29,0.45c0.72,0.3,1.36,0.74,1.92,1.31c0.54,0.55,0.95,1.18,1.23,1.88
			c0.28,0.7,0.43,1.45,0.43,2.23c0,0.8-0.15,1.55-0.44,2.27c-0.3,0.71-0.72,1.34-1.28,1.88c-0.56,0.55-1.2,0.97-1.92,1.27
			c-0.72,0.3-1.46,0.44-2.23,0.44c-0.79,0-1.54-0.15-2.25-0.46c-0.72-0.31-1.35-0.74-1.91-1.31c-0.55-0.55-0.97-1.18-1.25-1.88
			c-0.29-0.7-0.43-1.44-0.43-2.2c0-0.54,0.07-1.06,0.22-1.57c0.14-0.51,0.36-1,0.64-1.48c0.53-0.89,1.23-1.59,2.1-2.08
			C396.63,201.91,397.59,201.67,398.64,201.67z M398.66,202.64c-0.67,0-1.29,0.12-1.86,0.35c-0.57,0.23-1.09,0.58-1.55,1.04
			c-0.47,0.47-0.84,1.01-1.1,1.62c-0.26,0.61-0.39,1.23-0.39,1.88c0,0.66,0.12,1.28,0.36,1.86c0.24,0.59,0.59,1.11,1.04,1.56
			c0.47,0.47,1.01,0.84,1.61,1.1c0.6,0.26,1.22,0.39,1.86,0.39c0.63,0,1.25-0.12,1.84-0.37c0.59-0.25,1.13-0.6,1.63-1.06
			c0.45-0.44,0.8-0.95,1.06-1.54c0.25-0.59,0.38-1.2,0.38-1.83c0-0.7-0.12-1.34-0.35-1.93c-0.23-0.59-0.58-1.12-1.04-1.59
			c-0.47-0.48-1.01-0.85-1.6-1.1C399.97,202.76,399.34,202.64,398.66,202.64z M396.22,204.17h2.55c0.92,0,1.62,0.16,2.08,0.47
			c0.46,0.31,0.69,0.78,0.69,1.4c0,0.43-0.13,0.8-0.38,1.1c-0.25,0.31-0.6,0.51-1.04,0.62l1.45,2.9h-1.76l-1.24-2.66h-0.78v2.66
			h-1.58V204.17z M397.81,205.17v1.89h0.78c0.46,0,0.8-0.08,1.02-0.23c0.22-0.15,0.32-0.38,0.32-0.69c0-0.33-0.12-0.58-0.35-0.73
			c-0.23-0.16-0.59-0.23-1.07-0.23H397.81z" />
    </g>
    <g class="st2">
      <g>
        <polygon class="st3" points="202.98,240.93 205.59,240.93 206.84,249 214.12,240.96 217.34,240.94 205.21,254.27 			" />
        <g>
          <polygon class="st3" points="234.95,243.89 235.11,243.48 229.96,243.48 228.88,246.32 236.75,246.32 233.71,254.21 
					223.15,254.21 224.32,251.32 227.03,251.32 226.87,251.71 231.99,251.71 233.08,248.85 225.25,248.85 228.24,240.94 
					238.78,240.94 237.67,243.89 				" />
        </g>
        <g>
          <polygon class="st3" points="186.36,240.94 189.13,240.94 183.73,254.21 181.36,254.21 178.26,247.42 175.57,254.21 
					172.86,254.21 178.16,240.86 182.46,250.62 				" />
        </g>
        <polygon class="st3" points="220.34,240.98 223.04,240.98 217.84,254.21 215.13,254.21 			" />
        <polygon class="st3" points="243.53,240.98 246.22,240.98 241.03,254.21 238.32,254.21 			" />
        <g>
          <polygon class="st3" points="275.24,240.92 278.01,240.92 272.61,254.19 270.24,254.19 267.14,247.4 264.45,254.19 
					261.74,254.19 267.05,240.84 271.34,250.6 				" />
        </g>
        <path class="st3" d="M138.72,254.21l1.48-3.77h-7.94l0.89-2.5h8.06l2.82-6.99h15.17l-3.79,9.5h-12.51l-1.48,3.77H138.72z
				 M153.67,247.94l1.87-4.68l-9.78,0l-1.84,4.68H153.67z" />
        <path class="st3" d="M155.52,254.22l12.68-13.77l2.17,13.74h-2.58l-0.49-2.78h-5.93l-2.54,2.78L155.52,254.22z M166.89,248.87
				l-0.37-3.07l-2.79,3.03L166.89,248.87z" />
        <path class="st3" d="M185.94,254.22l12.68-13.77l2.17,13.74h-2.58l-0.49-2.78h-5.93l-2.54,2.78L185.94,254.22z M197.31,248.87
				l-0.37-3.07l-2.79,3.03L197.31,248.87z" />
        <path class="st3" d="M246.09,254.21l5.29-13.29h10.99l-5.27,13.29H246.09z M249.78,251.7h5.6l3.32-8.26h-5.58L249.78,251.7z" />
      </g>
      <g>
        <path class="st3" d="M284.28,248.69c0-4.39,3.69-8.31,8.26-8.31c2.58,0,4.31,1.15,5.33,2.93l-1.99,1.35
				c-0.82-1.25-1.82-2.07-3.61-2.07c-2.93,0-5.48,2.81-5.48,6.01c0,2.24,1.54,3.71,3.71,3.71c1.54,0,2.56-0.62,3.63-1.56l1.58,1.6
				c-1.29,1.25-2.89,2.17-5.25,2.17C286.94,254.51,284.28,252.28,284.28,248.69z" />
        <path class="st3" d="M298.12,248.52c0-4.14,3.38-8.14,8.1-8.14c3.67,0,6.15,2.6,6.15,5.99c0,4.14-3.38,8.14-8.12,8.14
				C300.58,254.51,298.12,251.91,298.12,248.52z M309.87,246.5c0-2.24-1.44-3.92-3.88-3.92c-3.16,0-5.37,3.01-5.37,5.8
				c0,2.26,1.44,3.92,3.88,3.92C307.66,252.3,309.87,249.3,309.87,246.5z" />
        <path class="st3" d="M316.99,240.61h2.44l2.38,6.46l5.86-6.46h2.75l-3.67,13.66h-2.44l2.63-9.8l-6.01,6.44h-0.08l-2.52-6.4
				l-2.62,9.76h-2.4L316.99,240.61z" />
        <path class="st3" d="M333.94,240.61h4.31c1.85,0,3.2,0.39,4.14,1.35c0.66,0.66,1.02,1.56,1.02,2.69c0,3.3-2.81,5.19-6.68,5.19
				h-2.85l-1.19,4.43h-2.42L333.94,240.61z M336.84,247.71c2.5,0,4.06-1.05,4.06-2.87c0-0.55-0.18-1-0.53-1.35
				c-0.47-0.47-1.19-0.7-2.21-0.7h-2.42l-1.31,4.92H336.84z" />
        <path class="st3" d="M350.74,240.51h2.3l2.32,13.76h-2.46l-0.53-3.3h-6.46l-2.28,3.3h-2.6L350.74,240.51z M352.08,248.85
				l-0.88-5.52l-3.83,5.52H352.08z" />
        <path class="st3" d="M360.94,240.61h2.23l4.63,9.66l2.62-9.66h2.36l-3.67,13.66h-2.01l-4.78-9.93l-2.65,9.93h-2.38L360.94,240.61
				z" />
        <path class="st3" d="M377.38,248.85l-3.04-8.24h2.65l2.07,6.17l5.41-6.17h2.97l-7.71,8.49l-1.39,5.17h-2.4L377.38,248.85z" />
      </g>
      <g>
        <path class="st3" d="M120.42,240.51h2.3l2.32,13.76h-2.46l-0.53-3.3h-6.46l-2.28,3.3h-2.6L120.42,240.51z M121.76,248.85
				l-0.88-5.52l-3.83,5.52H121.76z" />
      </g>
    </g>
  </g>
  <g class="st0">
    <g class="st2">
      <path class="st3" d="M199.19,110.17c0.22-5.49,0.3-8.05,2.09-10.62c1.66-2.39,7.95-3.54,15.68-3.98c7.3-0.41,22.4-0.72,30.86-0.79
			c8.46-0.07,22.98,0.36,29.77,0.79c6.79,0.44,12.74,0.99,15.17,3.03c2.74,2.32,3.18,7.95,3.18,11.63h-4.62c0,0,0-3.68-0.22-4.77
			c-0.22-1.08-0.36-3.97-4.19-4.41c-3.83-0.43-20.38-1.59-24.86-1.66c-6.66-0.11-23.85,0-29.55,0.14
			c-4.33,0.11-21.17,1.01-23.92,1.37c-2.32,0.3-4.34,1.52-4.55,4.04c-0.21,2.38-0.29,5.21-0.29,5.21H199.19z" />
    </g>
    <g class="st2">
      <path class="st3" d="M295.94,154.67c-0.21,5.49-0.3,8.05-2.1,10.62c-1.66,2.39-7.95,3.54-15.68,3.97
			c-7.29,0.41-22.4,0.72-30.85,0.8c-8.46,0.07-22.98-0.36-29.77-0.8c-6.79-0.43-12.74-0.99-15.17-3.03
			c-2.74-2.31-3.18-7.95-3.18-11.63h4.62c0,0,0,3.68,0.22,4.77c0.22,1.08,0.36,3.97,4.19,4.41c3.83,0.43,20.38,1.59,24.86,1.66
			c6.66,0.11,23.85,0,29.56-0.14c4.33-0.11,21.17-1.01,23.92-1.37c2.32-0.31,4.34-1.52,4.55-4.05c0.2-2.38,0.29-5.2,0.29-5.2H295.94
			z" />
    </g>
    <g class="st2">
      <path class="st3" d="M451.05,50.62c3.7,0,6.8,2.92,6.8,6.75c0,3.9-3.1,6.82-6.8,6.82c-3.72,0-6.84-2.92-6.84-6.82
			C444.21,53.54,447.33,50.62,451.05,50.62 M451.05,63.19c3.14,0,5.57-2.5,5.57-5.82c0-3.25-2.43-5.75-5.57-5.75
			c-3.17,0-5.61,2.5-5.61,5.75C445.45,60.68,447.88,63.19,451.05,63.19 M448.4,53.43h3.07c1.88,0,2.77,0.74,2.77,2.27
			c0,1.43-0.91,2.03-2.09,2.16l2.27,3.5h-1.32l-2.16-3.41h-1.31v3.41h-1.23V53.43z M449.64,56.95h1.29c1.09,0,2.08-0.05,2.08-1.31
			c0-1.05-0.91-1.21-1.74-1.21h-1.63V56.95z" />
    </g>
    <g class="st2">
      <path class="st3" d="M440.32,51.49H58.01v162.83h382.31v-5.2V51.49z M63.21,56.69h371.91v152.43H63.21V56.69z" />
    </g>
    <g class="st2">
      <path class="st3" d="M362.96,196.11H131.91v-41.54h5.2v36.34h220.64v-36.34h5.2V196.11z M362.96,110.06h-5.2V73.75H137.11v36.31
			h-5.2V68.54h231.05V110.06z" />
    </g>
    <g class="st2">
      <path class="st3" d="M87.66,147.65l4.16-9.63H72.78l1.9-4.78h19.16l7.04-16.63h36.43l-8.82,21.4H97.88l-4.15,9.63H87.66z
			 M124.26,133.25l5.22-12h-24.73l-4.9,12H124.26z" />
    </g>
    <g class="st2">
      <path class="st3" d="M130.35,147.57l29.19-30.78l5.93,30.79l-6.3,0l-1.16-7.71h-13.4l-7.31,7.7H130.35z M148.77,135.64h8.51
			l-1.28-7.65L148.77,135.64z" />
    </g>
    <g class="st2">
      <path class="st3" d="M204.75,147.53l29.27-30.75l5.93,30.79l-6.34-0.01l-1.12-7.7h-13.41l-7.25,7.67H204.75z M223.25,135.64h8.51
			l-1.29-7.65L223.25,135.64z" />
    </g>
    <g class="st2">
      <polygon class="st3" points="170.68,147.53 184.81,116.06 194.81,138.28 204.32,116.64 210.31,116.64 197.3,147.6 192.25,147.56 
			184.33,131.56 176.93,147.53 		" />
    </g>
    <g class="st2">
      <polygon class="st3" points="388.91,147.53 403.04,116.06 413.05,138.28 422.55,116.64 428.55,116.64 415.54,147.6 410.48,147.56 
			402.57,131.56 395.16,147.53 		" />
    </g>
    <g class="st2">
      <polygon class="st3" points="246.05,116.64 251.43,147.57 280.23,116.67 273.65,116.67 254.72,136.44 251.43,116.64 		" />
    </g>
    <g class="st2">
      <polygon class="st3" points="275.31,147.57 288.79,116.6 294.54,116.6 281.82,147.57 		" />
    </g>
    <g class="st2">
      <polygon class="st3" points="330.92,147.57 344.4,116.6 350.14,116.6 337.42,147.57 		" />
    </g>
    <g class="st2">
      <polygon class="st3" points="293.56,147.64 296.38,141.68 302.3,141.68 301.91,142.72 315.13,142.72 318.89,134.38 299.12,134.38 
			306.42,116.64 332.34,116.64 329.57,123.54 323.88,123.54 324.45,121.91 310.66,121.91 307.65,129.82 326.82,129.82 319.59,147.6 
					" />
    </g>
    <g class="st2">
      <path class="st3" d="M363.44,116.62h25.79l-12.62,31h-25.79L363.44,116.62z M359.13,142.51h13.76l8.48-20.57h-14.03L359.13,142.51
			z" />
    </g>
    <g class="st2">
      <path class="st3" d="M199.19,110.17c0.22-5.49,0.3-8.05,2.09-10.62c1.66-2.39,7.95-3.54,15.68-3.98c7.3-0.41,22.4-0.72,30.86-0.79
			c8.46-0.07,22.98,0.36,29.77,0.79c6.79,0.44,12.74,0.99,15.17,3.03c2.74,2.32,3.18,7.95,3.18,11.63h-4.62c0,0,0-3.68-0.22-4.77
			c-0.22-1.08-0.36-3.97-4.19-4.41c-3.83-0.43-20.38-1.59-24.86-1.66c-6.66-0.11-23.85,0-29.55,0.14
			c-4.33,0.11-21.17,1.01-23.92,1.37c-2.32,0.3-4.34,1.52-4.55,4.04c-0.21,2.38-0.29,5.21-0.29,5.21H199.19z" />
    </g>
    <g class="st2">
      <path class="st3" d="M295.94,154.67c-0.21,5.49-0.3,8.05-2.1,10.62c-1.66,2.39-7.95,3.54-15.68,3.97
			c-7.29,0.41-22.4,0.72-30.85,0.8c-8.46,0.07-22.98-0.36-29.77-0.8c-6.79-0.43-12.74-0.99-15.17-3.03
			c-2.74-2.31-3.18-7.95-3.18-11.63h4.62c0,0,0,3.68,0.22,4.77c0.22,1.08,0.36,3.97,4.19,4.41c3.83,0.43,20.38,1.59,24.86,1.66
			c6.66,0.11,23.85,0,29.56-0.14c4.33-0.11,21.17-1.01,23.92-1.37c2.32-0.31,4.34-1.52,4.55-4.05c0.2-2.38,0.29-5.2,0.29-5.2H295.94
			z" />
    </g>
    <g class="st2">
      <polygon class="st3" points="149.06,236.66 152.19,236.66 150.62,231.62 		" />
      <path class="st3" d="M184.01,230.25h-1.18v9.14h1.22c1.01,0,1.78-0.36,2.32-1.07c0.54-0.72,0.81-1.78,0.81-3.19v-0.63
			c0-1.41-0.27-2.46-0.81-3.18C185.83,230.6,185.05,230.25,184.01,230.25z" />
      <path class="st3" d="M126.06,230.25h-2.34v4.2h2.3c0.68,0,1.2-0.17,1.55-0.51c0.36-0.34,0.53-0.82,0.53-1.44
			c0-0.68-0.18-1.22-0.55-1.63C127.19,230.46,126.69,230.25,126.06,230.25z" />
      <path class="st3" d="M261.86,230.09c-1.76,0-2.69,1.32-2.79,3.96l-0.01,1.07c0,1.43,0.24,2.52,0.71,3.29
			c0.47,0.77,1.18,1.15,2.11,1.15c0.89,0,1.57-0.38,2.05-1.13c0.48-0.75,0.72-1.83,0.73-3.25v-0.67c0-1.45-0.24-2.54-0.72-3.29
			C263.45,230.46,262.76,230.09,261.86,230.09z" />
      <path class="st3" d="M209.52,230.24h-2.22v4.01h2.22c0.67,0,1.17-0.18,1.5-0.53c0.34-0.35,0.5-0.84,0.5-1.47
			c0-0.63-0.17-1.12-0.51-1.48C210.68,230.42,210.18,230.24,209.52,230.24z" />
      <path class="st3" d="M58.01,221.59v27.23h382.32v-27.23H58.01z M89.66,240.29c-0.54,0.6-1.33,1.08-2.37,1.45
			c-1.04,0.37-2.18,0.55-3.42,0.55c-1.91,0-3.43-0.58-4.57-1.75c-1.14-1.17-1.75-2.79-1.83-4.87l-0.01-1.26
			c0-1.43,0.25-2.68,0.76-3.75c0.51-1.07,1.23-1.89,2.17-2.47c0.94-0.58,2.03-0.86,3.27-0.86c1.81,0,3.22,0.41,4.22,1.24
			c1,0.83,1.59,2.07,1.75,3.71h-3.38c-0.12-0.81-0.38-1.39-0.78-1.74c-0.4-0.35-0.97-0.52-1.7-0.52c-0.88,0-1.56,0.37-2.04,1.12
			c-0.48,0.75-0.72,1.81-0.73,3.2v0.88c0,1.45,0.25,2.54,0.74,3.27c0.5,0.73,1.28,1.09,2.34,1.09c0.91,0,1.59-0.2,2.04-0.61v-2.26
			h-2.44v-2.41h5.95V240.29z M106.57,242.09h-3.76l-2.57-5.15h-1.9v5.15h-3.51v-14.55h5.73c1.73,0,3.07,0.38,4.05,1.15
			c0.97,0.77,1.46,1.85,1.46,3.24c0,1.01-0.2,1.85-0.61,2.52c-0.41,0.67-1.05,1.2-1.92,1.62l3.04,5.87V242.09z M114.73,242.09h-3.5
			v-14.55h3.5V242.09z M130.14,235.88c-1.02,0.85-2.41,1.27-4.18,1.27h-2.24v4.94h-3.51v-14.55h5.81c1.11,0,2.1,0.21,2.95,0.61
			c0.86,0.41,1.52,0.99,1.99,1.75c0.47,0.76,0.7,1.61,0.7,2.57C131.66,233.89,131.15,235.03,130.14,235.88z M153.88,242.09
			l-0.85-2.72h-4.81l-0.84,2.72h-3.75l5.34-14.55h3.3l5.38,14.55H153.88z M173.95,242.09h-3.49l-5.16-9.05v9.05h-3.51v-14.55h3.51
			l5.15,9.05v-9.05h3.5V242.09z M190.76,235.12c0,1.33-0.28,2.53-0.84,3.58c-0.56,1.06-1.36,1.88-2.38,2.48
			c-1.02,0.6-2.16,0.9-3.42,0.9h-4.79v-14.55h4.69c1.29,0,2.44,0.29,3.47,0.87c1.03,0.58,1.83,1.41,2.4,2.47
			c0.58,1.06,0.87,2.25,0.87,3.57V235.12z M215.52,242.09h-3.76l-2.57-5.15h-1.9v5.15h-3.51v-14.55h5.73c1.73,0,3.07,0.38,4.05,1.15
			c0.97,0.77,1.46,1.85,1.46,3.24c0,1.01-0.2,1.85-0.61,2.52c-0.41,0.67-1.05,1.2-1.92,1.62l3.04,5.87V242.09z M230.13,230.25h-6.53
			v3.07h5.52v2.6h-5.52v3.48h6.51v2.7h-10.02v-14.55h10.04V230.25z M250.62,242.09h-3.52v-3.4l0.34-6.95l-3.52,10.35h-2.32
			l-3.53-10.36l0.34,6.96v3.4h-3.51v-14.55h4.61l3.25,10.12l3.24-10.12h4.62V242.09z M268.22,235.11c0,1.42-0.26,2.67-0.79,3.77
			c-0.53,1.09-1.27,1.93-2.24,2.52c-0.97,0.59-2.07,0.88-3.31,0.88c-1.24,0-2.34-0.29-3.3-0.85c-0.96-0.57-1.71-1.38-2.24-2.44
			c-0.54-1.06-0.82-2.27-0.84-3.65v-0.82c0-1.43,0.26-2.68,0.78-3.77c0.52-1.09,1.27-1.93,2.25-2.52c0.98-0.59,2.09-0.89,3.33-0.89
			c1.23,0,2.33,0.29,3.3,0.88c0.97,0.59,1.72,1.42,2.25,2.5c0.54,1.08,0.81,2.32,0.81,3.72V235.11z M284.09,230.25h-4.37v11.84
			h-3.51v-11.84h-4.29v-2.71h12.16V230.25z M298.48,230.25h-6.53v3.07h5.52v2.6h-5.52v3.48h6.51v2.7h-10.02v-14.55h10.04V230.25z
			 M315.19,232.47c0.4,0.3,1.1,0.62,2.11,0.94c1.01,0.32,1.83,0.67,2.48,1.04c1.57,0.91,2.36,2.16,2.36,3.75
			c0,1.27-0.48,2.27-1.44,3c-0.96,0.73-2.27,1.09-3.95,1.09c-1.18,0-2.25-0.21-3.2-0.63c-0.96-0.42-1.68-1-2.16-1.74
			c-0.48-0.74-0.72-1.58-0.72-2.54h3.52c0,0.78,0.2,1.35,0.6,1.72c0.4,0.37,1.06,0.55,1.96,0.55c0.58,0,1.04-0.13,1.37-0.37
			c0.34-0.25,0.5-0.6,0.5-1.05c0-0.51-0.18-0.91-0.54-1.2c-0.36-0.29-1-0.58-1.91-0.89c-0.91-0.31-1.66-0.6-2.24-0.89
			c-1.89-0.93-2.83-2.2-2.83-3.82c0-0.81,0.23-1.52,0.7-2.13c0.47-0.62,1.13-1.1,1.99-1.44c0.86-0.34,1.82-0.51,2.9-0.51
			c1.05,0,1.98,0.19,2.81,0.56c0.83,0.37,1.47,0.9,1.93,1.59c0.46,0.69,0.69,1.48,0.69,2.36h-3.5c0-0.59-0.18-1.05-0.54-1.38
			c-0.36-0.33-0.85-0.49-1.47-0.49c-0.63,0-1.12,0.14-1.48,0.41c-0.36,0.28-0.54,0.63-0.54,1.05
			C314.59,231.83,314.79,232.17,315.19,232.47z M333.58,236.86v5.23h-3.56v-5.23l-4.68-9.32h3.77l2.69,6.31l2.68-6.31h3.79
			L333.58,236.86z M345.81,232.47c0.4,0.3,1.1,0.62,2.11,0.94c1.01,0.32,1.83,0.67,2.48,1.04c1.57,0.91,2.36,2.16,2.36,3.75
			c0,1.27-0.48,2.27-1.44,3c-0.96,0.73-2.27,1.09-3.95,1.09c-1.18,0-2.25-0.21-3.2-0.63c-0.96-0.42-1.68-1-2.16-1.74
			c-0.48-0.74-0.72-1.58-0.72-2.54h3.52c0,0.78,0.2,1.35,0.6,1.72c0.4,0.37,1.06,0.55,1.96,0.55c0.58,0,1.04-0.13,1.37-0.37
			c0.34-0.25,0.5-0.6,0.5-1.05c0-0.51-0.18-0.91-0.54-1.2c-0.36-0.29-1-0.58-1.91-0.89c-0.91-0.31-1.66-0.6-2.24-0.89
			c-1.89-0.93-2.83-2.2-2.83-3.82c0-0.81,0.23-1.52,0.7-2.13c0.47-0.62,1.13-1.1,1.99-1.44c0.86-0.34,1.82-0.51,2.9-0.51
			c1.05,0,1.98,0.19,2.81,0.56c0.83,0.37,1.47,0.9,1.93,1.59c0.46,0.69,0.69,1.48,0.69,2.36h-3.5c0-0.59-0.18-1.05-0.54-1.38
			c-0.36-0.33-0.85-0.49-1.47-0.49c-0.63,0-1.12,0.14-1.48,0.41c-0.36,0.28-0.54,0.63-0.54,1.05
			C345.21,231.83,345.41,232.17,345.81,232.47z M368.98,230.25h-4.37v11.84h-3.51v-11.84h-4.29v-2.71h12.16V230.25z M383.37,230.25
			h-6.53v3.07h5.52v2.6h-5.52v3.48h6.51v2.7h-10.02v-14.55h10.04V230.25z M403.86,242.09h-3.52v-3.4l0.34-6.95l-3.52,10.35h-2.32
			l-3.53-10.36l0.34,6.96v3.4h-3.51v-14.55h4.61l3.25,10.12l3.24-10.12h4.62V242.09z M413.11,232.47c0.4,0.3,1.1,0.62,2.11,0.94
			c1.01,0.32,1.83,0.67,2.48,1.04c1.57,0.91,2.36,2.16,2.36,3.75c0,1.27-0.48,2.27-1.44,3c-0.96,0.73-2.27,1.09-3.95,1.09
			c-1.18,0-2.25-0.21-3.2-0.63c-0.96-0.42-1.68-1-2.16-1.74c-0.48-0.74-0.72-1.58-0.72-2.54h3.52c0,0.78,0.2,1.35,0.6,1.72
			c0.4,0.37,1.06,0.55,1.96,0.55c0.58,0,1.04-0.13,1.37-0.37c0.34-0.25,0.5-0.6,0.5-1.05c0-0.51-0.18-0.91-0.54-1.2
			c-0.36-0.29-1-0.58-1.91-0.89c-0.91-0.31-1.66-0.6-2.24-0.89c-1.89-0.93-2.83-2.2-2.83-3.82c0-0.81,0.23-1.52,0.7-2.13
			c0.47-0.62,1.13-1.1,1.99-1.44c0.86-0.34,1.82-0.51,2.9-0.51c1.05,0,1.98,0.19,2.81,0.56c0.83,0.37,1.47,0.9,1.93,1.59
			c0.46,0.69,0.69,1.48,0.69,2.36h-3.5c0-0.59-0.18-1.05-0.54-1.38c-0.36-0.33-0.85-0.49-1.47-0.49c-0.63,0-1.12,0.14-1.48,0.41
			c-0.36,0.28-0.54,0.63-0.54,1.05C412.51,231.83,412.71,232.17,413.11,232.47z" />
      <path class="st3" d="M100.56,230.24h-2.22v4.01h2.22c0.67,0,1.17-0.18,1.5-0.53c0.34-0.35,0.5-0.84,0.5-1.47
			c0-0.63-0.17-1.12-0.51-1.48C101.72,230.42,101.22,230.24,100.56,230.24z" />
    </g>
  </g>
  <g>
    <path class="st3" d="M468.69,125.91c3.84,0,7.06,3.03,7.06,7c0,4.05-3.22,7.08-7.06,7.08c-3.86,0-7.1-3.03-7.1-7.08
		C461.59,128.94,464.83,125.91,468.69,125.91z M468.69,138.95c3.26,0,5.78-2.6,5.78-6.04c0-3.37-2.52-5.97-5.78-5.97
		c-3.29,0-5.82,2.6-5.82,5.97C462.87,136.36,465.39,138.95,468.69,138.95z M465.94,128.83h3.18c1.96,0,2.88,0.77,2.88,2.35
		c0,1.49-0.94,2.11-2.16,2.24l2.35,3.63h-1.37l-2.24-3.54h-1.36v3.54h-1.28V128.83z M467.22,132.48h1.34c1.13,0,2.16-0.06,2.16-1.35
		c0-1.09-0.94-1.26-1.81-1.26h-1.69V132.48z" />
    <path class="st3" d="M178.61,157.71" />
    <polygon class="st3" points="238.06,129.56 245.69,129.56 249.35,153.14 270.61,129.65 280.02,129.61 244.57,168.54 	" />
    <g>
      <polygon class="st3" points="331.45,138.22 331.91,137.02 316.86,137.02 313.72,145.31 336.69,145.31 327.8,168.37 296.97,168.37 
			300.39,159.93 308.31,159.93 307.85,161.07 322.79,161.07 325.98,152.69 303.12,152.69 311.84,129.61 342.62,129.61 
			339.37,138.22 		" />
    </g>
    <g>
      <polygon class="st3" points="189.54,129.61 197.63,129.61 181.85,168.37 174.95,168.37 165.89,148.53 158.02,168.37 150.1,168.37 
			165.6,129.38 178.14,157.88 		" />
    </g>
    <polygon class="st3" points="288.78,129.73 296.64,129.73 281.48,168.37 273.56,168.37 	" />
    <polygon class="st3" points="356.49,129.73 364.36,129.73 349.19,168.37 341.27,168.37 	" />
    <g>
      <polygon class="st3" points="449.1,129.55 457.19,129.55 441.41,168.31 434.51,168.31 425.45,148.48 417.59,168.31 409.66,168.31 
			425.17,129.33 437.7,157.82 		" />
    </g>
    <path class="st3" d="M240.45,151.27" />
    <path class="st3" d="M50.4,168.37l4.32-11.02H31.54l2.61-7.3h23.53l8.22-20.43h44.29l-11.06,27.74H62.6l-4.33,11H50.4z
		 M94.07,150.05l5.46-13.65l-28.57-0.01l-5.39,13.66H94.07z" />
    <path class="st3" d="M99.46,168.39l37.03-40.21l6.33,40.13h-7.52l-1.43-8.12h-17.32l-7.4,8.12L99.46,168.39z M132.67,152.78
		l-1.07-8.96l-8.15,8.84L132.67,152.78z" />
    <path class="st3" d="M188.31,168.39l37.03-40.21l6.33,40.13h-7.52l-1.43-8.12H205.4l-7.4,8.12L188.31,168.39z M221.53,152.78
		l-1.07-8.96l-8.15,8.84L221.53,152.78z" />
    <path class="st3" d="M363.98,168.37l15.46-38.81h32.09l-15.4,38.81H363.98z M374.75,161.01h16.36l9.7-24.11h-16.3L374.75,161.01z" />
  </g>
</svg>