<?xml version="1.0" encoding="UTF-8"?>
<svg xmlns="http://www.w3.org/2000/svg" xmlns:xlink="http://www.w3.org/1999/xlink" width="209px" height="125px" viewBox="0 0 208 125" version="1.1">
  <g id="surface1">
    <path style=" stroke:none;fill-rule:nonzero;fill:rgb(0%,0%,0%);fill-opacity:1;" d="M 199.199219 26.285156 C 201.292969 26.285156 203.050781 27.941406 203.050781 30.109375 C 203.050781 32.320312 201.292969 33.976562 199.199219 33.976562 C 197.09375 33.976562 195.324219 32.316406 195.324219 30.109375 C 195.324219 27.941406 197.089844 26.285156 199.199219 26.285156 Z M 199.199219 33.414062 C 200.972656 33.414062 202.351562 31.992188 202.351562 30.109375 C 202.351562 28.265625 200.972656 26.847656 199.199219 26.847656 C 197.398438 26.847656 196.023438 28.265625 196.023438 30.109375 C 196.023438 31.996094 197.394531 33.414062 199.199219 33.414062 Z M 197.695312 27.878906 L 199.429688 27.878906 C 200.5 27.878906 201.003906 28.300781 201.003906 29.167969 C 201.003906 29.980469 200.488281 30.320312 199.820312 30.390625 L 201.105469 32.378906 L 200.359375 32.378906 L 199.136719 30.445312 L 198.394531 30.445312 L 198.394531 32.378906 L 197.695312 32.378906 Z M 198.394531 29.875 L 199.121094 29.875 C 199.738281 29.875 200.304688 29.847656 200.304688 29.132812 C 200.304688 28.539062 199.792969 28.445312 199.316406 28.445312 L 198.394531 28.445312 Z M 198.394531 29.875 " />
    <path style=" stroke:none;fill-rule:nonzero;fill:rgb(0%,0%,0%);fill-opacity:1;" d="M 192.113281 101.265625 L 14.269531 101.265625 L 14.269531 26.308594 L 192.113281 26.308594 Z M 15.910156 99.617188 L 190.464844 99.617188 L 190.464844 27.957031 L 15.910156 27.957031 Z M 15.910156 99.617188 " />
    <path style=" stroke:none;fill-rule:nonzero;fill:rgb(0%,0%,0%);fill-opacity:1;" d="M 153.792969 52.824219 L 152.148438 52.824219 L 152.148438 37.5 L 51.636719 37.5 L 51.636719 52.824219 L 49.996094 52.824219 L 49.996094 35.855469 L 153.792969 35.855469 Z M 153.792969 52.824219 " />
    <path style=" stroke:none;fill-rule:nonzero;fill:rgb(0%,0%,0%);fill-opacity:1;" d="M 153.792969 91.574219 L 49.996094 91.574219 L 49.996094 74.605469 L 51.636719 74.605469 L 51.636719 89.925781 L 152.148438 89.925781 L 152.148438 74.605469 L 153.792969 74.605469 Z M 153.792969 91.574219 " />
    <path style=" stroke:none;fill-rule:nonzero;fill:rgb(0%,0%,0%);fill-opacity:1;" d="M 125.058594 52.824219 L 123.8125 52.824219 C 123.8125 52.328125 123.816406 51.882812 123.824219 51.484375 C 123.839844 49.972656 123.847656 49.058594 123.566406 48.734375 C 123.277344 48.402344 122.359375 48.277344 120.835938 48.074219 C 120.398438 48.015625 119.902344 47.949219 119.355469 47.867188 C 112.394531 46.839844 91.628906 46.988281 84.785156 47.867188 L 84.058594 47.957031 C 82.078125 48.207031 80.882812 48.363281 80.472656 48.765625 C 80.097656 49.132812 80.105469 50.066406 80.117188 51.761719 C 80.121094 52.085938 80.121094 52.441406 80.121094 52.820312 L 78.878906 52.820312 C 78.878906 52.441406 78.875 52.089844 78.875 51.769531 C 78.84375 47.464844 79.199219 47.320312 83.902344 46.726562 L 84.625 46.632812 C 91.53125 45.746094 112.503906 45.601562 119.539062 46.632812 C 120.082031 46.710938 120.574219 46.777344 121.007812 46.835938 C 124.882812 47.363281 125.113281 47.621094 125.070312 51.492188 C 125.0625 51.890625 125.058594 52.332031 125.058594 52.824219 Z M 125.058594 52.824219 " />
    <path style=" stroke:none;fill-rule:nonzero;fill:rgb(0%,0%,0%);fill-opacity:1;" d="M 102.800781 81.457031 C 95.5625 81.457031 88.199219 81.195312 84.617188 80.738281 L 83.894531 80.644531 C 78.953125 80.019531 78.835938 79.695312 78.867188 75.601562 C 78.871094 75.277344 78.871094 74.929688 78.871094 74.550781 L 80.113281 74.550781 C 80.113281 74.933594 80.109375 75.285156 80.109375 75.609375 C 80.097656 77.300781 80.09375 78.234375 80.460938 78.605469 C 80.875 79.007812 82.070312 79.164062 84.046875 79.414062 L 84.777344 79.503906 C 91.621094 80.382812 112.386719 80.527344 119.347656 79.503906 C 119.898438 79.421875 120.390625 79.359375 120.828125 79.296875 C 122.351562 79.089844 123.269531 78.964844 123.554688 78.636719 C 123.839844 78.3125 123.832031 77.398438 123.8125 75.886719 C 123.808594 75.488281 123.804688 75.042969 123.804688 74.546875 L 125.050781 74.546875 C 125.050781 75.039062 125.054688 75.480469 125.058594 75.875 C 125.097656 79.746094 124.871094 80.007812 120.992188 80.527344 C 120.5625 80.585938 120.074219 80.652344 119.523438 80.734375 C 116.148438 81.234375 109.527344 81.457031 102.800781 81.457031 Z M 102.800781 81.457031 " />
    <path style=" stroke:none;fill-rule:nonzero;fill:rgb(0%,0%,0%);fill-opacity:1;" d="M 100.800781 56.019531 L 103.84375 56.019531 L 105.296875 65.425781 L 113.761719 56.058594 L 117.511719 56.042969 L 103.398438 71.570312 Z M 100.800781 56.019531 " />
    <path style=" stroke:none;fill-rule:nonzero;fill:rgb(0%,0%,0%);fill-opacity:1;" d="M 137.992188 59.476562 L 138.175781 58.996094 L 132.179688 58.996094 L 130.933594 62.304688 L 140.078125 62.304688 L 136.539062 71.5 L 124.257812 71.5 L 125.621094 68.136719 L 128.777344 68.136719 L 128.59375 68.589844 L 134.542969 68.589844 L 135.8125 65.25 L 126.710938 65.25 L 130.183594 56.042969 L 142.4375 56.042969 L 141.144531 59.476562 Z M 137.992188 59.476562 " />
    <path style=" stroke:none;fill-rule:nonzero;fill:rgb(0%,0%,0%);fill-opacity:1;" d="M 81.476562 56.042969 L 84.703125 56.042969 L 78.414062 71.5 L 75.671875 71.5 L 72.058594 63.585938 L 68.925781 71.5 L 65.773438 71.5 L 71.945312 55.949219 L 76.9375 67.316406 Z M 81.476562 56.042969 " />
    <path style=" stroke:none;fill-rule:nonzero;fill:rgb(0%,0%,0%);fill-opacity:1;" d="M 120.996094 56.085938 L 124.128906 56.085938 L 118.09375 71.5 L 114.9375 71.5 Z M 120.996094 56.085938 " />
    <path style=" stroke:none;fill-rule:nonzero;fill:rgb(0%,0%,0%);fill-opacity:1;" d="M 147.960938 56.085938 L 151.09375 56.085938 L 145.058594 71.5 L 141.902344 71.5 Z M 147.960938 56.085938 " />
    <path style=" stroke:none;fill-rule:nonzero;fill:rgb(0%,0%,0%);fill-opacity:1;" d="M 184.839844 56.019531 L 188.066406 56.019531 L 181.78125 71.480469 L 179.035156 71.480469 L 175.421875 63.566406 L 172.289062 71.480469 L 169.136719 71.480469 L 175.3125 55.929688 L 180.300781 67.296875 Z M 184.839844 56.019531 " />
    <path style=" stroke:none;fill-rule:nonzero;fill:rgb(0%,0%,0%);fill-opacity:1;" d="M 26.070312 71.5 L 27.792969 67.105469 L 18.558594 67.105469 L 19.597656 64.191406 L 28.964844 64.191406 L 32.238281 56.046875 L 49.878906 56.046875 L 45.476562 67.113281 L 30.929688 67.113281 L 29.203125 71.5 Z M 43.460938 64.191406 L 45.636719 58.746094 L 34.257812 58.742188 L 32.109375 64.191406 Z M 43.460938 64.191406 " />
    <path style=" stroke:none;fill-rule:nonzero;fill:rgb(0%,0%,0%);fill-opacity:1;" d="M 45.609375 71.507812 L 60.359375 55.472656 L 62.878906 71.476562 L 59.882812 71.476562 L 59.3125 68.238281 L 52.414062 68.238281 L 49.464844 71.476562 Z M 58.835938 65.285156 L 58.40625 61.710938 L 55.15625 65.238281 Z M 58.835938 65.285156 " />
    <path style=" stroke:none;fill-rule:nonzero;fill:rgb(0%,0%,0%);fill-opacity:1;" d="M 80.992188 71.507812 L 95.738281 55.472656 L 98.257812 71.476562 L 95.265625 71.476562 L 94.695312 68.238281 L 87.796875 68.238281 L 84.847656 71.476562 Z M 94.214844 65.285156 L 93.789062 61.710938 L 90.539062 65.238281 Z M 94.214844 65.285156 " />
    <path style=" stroke:none;fill-rule:nonzero;fill:rgb(0%,0%,0%);fill-opacity:1;" d="M 150.945312 71.5 L 157.101562 56.019531 L 169.882812 56.019531 L 163.75 71.5 Z M 155.234375 68.566406 L 161.75 68.566406 L 165.613281 58.949219 L 159.125 58.949219 Z M 155.234375 68.566406 " />
  </g>
</svg>